<?xml version="1.0" encoding="UTF-8"?>
<svg version="1.1" xmlns="http://www.w3.org/2000/svg" width="500" height="500">
<path d="M0 0 C0 0.66 0 1.32 0 2 C0.58789307 2.12076904 1.17578613 2.24153809 1.78149414 2.3659668 C4.05078811 3.01451488 5.54837415 3.83087684 7.49609375 5.14453125 C8.13740234 5.57443359 8.77871094 6.00433594 9.43945312 6.44726562 C10.42848633 7.12305664 10.42848633 7.12305664 11.4375 7.8125 C12.09298828 8.25142578 12.74847656 8.69035156 13.42382812 9.14257812 C17.07411237 11.60661152 20.70277722 14.07125298 24 17 C24 17.66 24 18.32 24 19 C24.66 19 25.32 19 26 19 C26 19.66 26 20.32 26 21 C26.66 21 27.32 21 28 21 C28 21.66 28 22.32 28 23 C28.66 23 29.32 23 30 23 C31.87555325 25.33997596 33.63863192 27.68494591 35.375 30.125 C35.85710937 30.79015625 36.33921875 31.4553125 36.8359375 32.140625 C38.23823599 34.08402779 39.6212878 36.0398177 41 38 C41.61536621 38.85416504 41.61536621 38.85416504 42.24316406 39.72558594 C45 43.6531663 45 43.6531663 45 47 C45.66 47 46.32 47 47 47 C51.84533885 56.82004354 56.18649097 66.37118811 59 77 C59.21269531 77.73476562 59.42539062 78.46953125 59.64453125 79.2265625 C68.15618099 109.96647738 60.64924242 143.1690979 47 171 C46.34 171 45.68 171 45 171 C44.88527344 171.57234375 44.77054688 172.1446875 44.65234375 172.734375 C43.93817644 175.21471656 42.92692128 177.06368697 41.5625 179.25 C41.13066406 179.95640625 40.69882812 180.6628125 40.25390625 181.390625 C39.63322266 182.18726563 39.63322266 182.18726563 39 183 C38.34 183 37.68 183 37 183 C36.81179688 183.66773438 36.62359375 184.33546875 36.4296875 185.0234375 C34.39309838 189.26354926 31.36018568 192.25144589 28.125 195.625 C27.49980469 196.29273438 26.87460937 196.96046875 26.23046875 197.6484375 C21.52311551 202.62449801 21.52311551 202.62449801 18.78857422 204.58740234 C18.19834473 205.05355957 17.60811523 205.5197168 17 206 C17 206.66 17 207.32 17 208 C17.81202881 208.43892578 18.62405762 208.87785156 19.46069336 209.33007812 C23.64949433 213.73433997 22.6927746 218.87245564 22.62890625 224.71875 C22.63131821 225.96877808 22.63373016 227.21880615 22.63621521 228.50671387 C22.63523542 231.15037021 22.62440493 233.79176684 22.59692383 236.43505859 C22.56283889 239.81821776 22.56886034 243.19985992 22.5875864 246.58309174 C22.60071326 249.81589921 22.58243677 253.04847528 22.56640625 256.28125 C22.57136612 257.49486206 22.57632599 258.70847412 22.58143616 259.9588623 C22.56559982 261.08683228 22.54976349 262.21480225 22.53344727 263.37695312 C22.5241494 264.86443054 22.5241494 264.86443054 22.5146637 266.38195801 C21.83826623 269.82272326 20.74298557 270.84320817 18 273 C15.02020264 273.50336456 15.02020264 273.50336456 11.47167969 273.50793457 C10.49073397 273.51729451 10.49073397 273.51729451 9.48997116 273.52684355 C7.30023822 273.54278935 5.11161605 273.53016445 2.921875 273.51757812 C1.35143382 273.52299859 -0.21900227 273.53012083 -1.78942871 273.53881836 C-6.05391389 273.55706383 -10.31801227 273.54997927 -14.58250427 273.53730202 C-19.04362029 273.52718063 -23.50470301 273.5365653 -27.96582031 273.54284668 C-35.45774283 273.55012561 -42.94950767 273.54052898 -50.44140625 273.52148438 C-59.10524253 273.49971511 -67.7687023 273.50676631 -76.43252945 273.52879 C-83.86873728 273.54693704 -91.30483172 273.54950574 -98.74105453 273.53903532 C-103.1834302 273.53279654 -107.62562885 273.53197525 -112.06799316 273.54518127 C-116.2443455 273.5567291 -120.42021203 273.54873395 -124.59651184 273.52560425 C-126.12998141 273.52031139 -127.66349181 273.52184083 -129.19694519 273.53065491 C-131.28907677 273.54157225 -133.37964781 273.52789623 -135.47167969 273.50793457 C-136.64269226 273.50642647 -137.81370483 273.50491837 -139.02020264 273.50336456 C-142.62690676 272.89409929 -143.8067507 271.87512349 -146 269 C-146.5146637 266.426651 -146.5146637 266.426651 -146.53344727 263.48461914 C-146.55720177 261.82753685 -146.55720177 261.82753685 -146.58143616 260.13697815 C-146.57647629 258.94837692 -146.57151642 257.7597757 -146.56640625 256.53515625 C-146.57260483 255.30969589 -146.57880341 254.08423553 -146.58518982 252.82164001 C-146.5922936 250.23014114 -146.58910438 247.63859669 -146.57641602 245.04711914 C-146.56256352 241.08068836 -146.59660275 237.11662162 -146.63476562 233.15039062 C-146.63571691 230.63281192 -146.63385749 228.11523026 -146.62890625 225.59765625 C-146.64216446 224.41107925 -146.65542267 223.22450226 -146.66908264 222.00196838 C-146.56553396 212.84870596 -146.56553396 212.84870596 -143.46069336 209.71264648 C-142.64866455 209.14747314 -141.83663574 208.5822998 -141 208 C-142.03675721 205.36098165 -142.94914364 204.04068509 -145.1875 202.25 C-148.95789723 199.23368221 -151.90498314 195.68908407 -155 192 C-155.804375 191.05125 -156.60875 190.1025 -157.4375 189.125 C-159 187 -159 187 -159 185 C-159.66 185 -160.32 185 -161 185 C-162.5078125 183.13671875 -162.5078125 183.13671875 -164.125 180.6875 C-164.66382813 179.88699219 -165.20265625 179.08648437 -165.7578125 178.26171875 C-167 176 -167 176 -167 173 C-167.66 173 -168.32 173 -169 173 C-186.16944054 136.5851879 -192.0623696 104.29908159 -178.7265625 65.2734375 C-176.18371514 58.32394616 -173.01776159 51.91903693 -169.25 45.5625 C-168.86110596 44.90507812 -168.47221191 44.24765625 -168.0715332 43.5703125 C-167.1091572 42.00731807 -166.06184377 40.49719971 -165 39 C-164.34 39 -163.68 39 -163 39 C-162.773125 38.319375 -162.54625 37.63875 -162.3125 36.9375 C-160.68773854 33.3011291 -158.67196743 29.97170737 -156 27 C-155.34 27 -154.68 27 -154 27 C-153.65001953 26.16275391 -153.65001953 26.16275391 -153.29296875 25.30859375 C-149.32088387 18.2164422 -141.83150544 12.2696909 -135 8 C-134.34 8 -133.68 8 -133 8 C-133 7.34 -133 6.68 -133 6 C-92.75313181 -23.68373667 -42.91095313 -20.01517837 0 0 Z M-110 6 C-110.9178125 6.46535156 -111.835625 6.93070313 -112.78125 7.41015625 C-119.12927034 10.75356584 -125.49407336 14.36594461 -131 19 C-131 19.66 -131 20.32 -131 21 C-131.598125 21.28875 -132.19625 21.5775 -132.8125 21.875 C-135.19327792 23.04742026 -135.19327792 23.04742026 -138 25 C-138 25.66 -138 26.32 -138 27 C-138.66 27 -139.32 27 -140 27 C-140 27.66 -140 28.32 -140 29 C-140.66 29 -141.32 29 -142 29 C-142 29.66 -142 30.32 -142 31 C-142.66 31 -143.32 31 -144 31 C-144 31.66 -144 32.32 -144 33 C-144.66 33 -145.32 33 -146 33 C-166.31073052 56.85208867 -177.29894282 86.63585158 -175 118 C-172.73493646 142.28651461 -162.58280603 162.80426553 -148 182 C-147.28328125 182.95648438 -146.5665625 183.91296875 -145.828125 184.8984375 C-145.22484375 185.59195313 -144.6215625 186.28546875 -144 187 C-143.34 187 -142.68 187 -142 187 C-142 187.66 -142 188.32 -142 189 C-141.34 189 -140.68 189 -140 189 C-140 189.66 -140 190.32 -140 191 C-139.34 191 -138.68 191 -138 191 C-138 191.66 -138 192.32 -138 193 C-135.98391833 194.81240747 -135.98391833 194.81240747 -133.5 196.625 C-132.6646875 197.25664062 -131.829375 197.88828125 -130.96875 198.5390625 C-130.3190625 199.02117187 -129.669375 199.50328125 -129 200 C-123.3008977 197.25290462 -117.95382267 194.21674788 -112.625 190.8125 C-111.22181146 189.92245573 -109.81818638 189.03309921 -108.4140625 188.14453125 C-107.8051416 187.75628174 -107.1962207 187.36803223 -106.56884766 186.96801758 C-105 186 -105 186 -103 185 C-103 184.34 -103 183.68 -103 183 C-102.195625 182.79375 -101.39125 182.5875 -100.5625 182.375 C-96.5933461 180.84304586 -93.50942714 178.78299776 -90.05078125 176.33984375 C-88 175 -88 175 -85 174 C-85 173.34 -85 172.68 -85 172 C-83.69675781 171.61521484 -83.69675781 171.61521484 -82.3671875 171.22265625 C-78.92417574 169.97246753 -76.19174934 168.42797823 -73.125 166.4375 C-72.15820312 165.81746094 -71.19140625 165.19742188 -70.1953125 164.55859375 C-69.10863281 163.78708984 -69.10863281 163.78708984 -68 163 C-68 162.67 -68 162.34 -68 162 C-69.03898437 161.89042969 -70.07796875 161.78085937 -71.1484375 161.66796875 C-83.24421045 160.32689987 -92.51695517 158.44646399 -102.75 151.42578125 C-104.83761045 149.82157954 -104.83761045 149.82157954 -107 150 C-107 149.34 -107 148.68 -107 148 C-107.66 148 -108.32 148 -109 148 C-109.26941406 147.4534375 -109.53882813 146.906875 -109.81640625 146.34375 C-110.65390942 144.68532789 -111.51872839 143.04056923 -112.40234375 141.40625 C-120.96223428 125.2012664 -120.96223428 125.2012664 -119.56640625 117.65625 C-119.37949219 117.1096875 -119.19257813 116.563125 -119 116 C-105.72595284 113.99534798 -91.2016785 115.41202784 -79.9921875 123.4375 C-78.63340419 124.59279402 -77.31187029 125.79169842 -76 127 C-75.34 127 -74.68 127 -74 127 C-74 127.66 -74 128.32 -74 129 C-73.34 129 -72.68 129 -72 129 C-71.74476563 129.52078125 -71.48953125 130.0415625 -71.2265625 130.578125 C-69.66311906 133.66517892 -68.01918305 136.70521658 -66.375 139.75 C-65.88773438 140.65298828 -65.88773438 140.65298828 -65.390625 141.57421875 C-64.59429415 143.04977297 -63.79722161 144.52492686 -63 146 C-61.84476118 143.70610473 -60.7126522 141.40369328 -59.59765625 139.08984375 C-59.09105469 138.04957031 -58.58445312 137.00929687 -58.0625 135.9375 C-57.55847656 134.89464844 -57.05445313 133.85179687 -56.53515625 132.77734375 C-55.18670307 130.33777577 -53.97475232 128.89222535 -52 127 C-52 126.34 -52 125.68 -52 125 C-51.34 125 -50.68 125 -50 125 C-50 124.34 -50 123.68 -50 123 C-49.41476562 122.72027344 -48.82953125 122.44054687 -48.2265625 122.15234375 C-46.14955333 121.07740041 -44.30357656 119.87967676 -42.375 118.5625 C-33.3639171 112.87393929 -23.0042176 111.81330757 -12.5625 111.9375 C-11.83095703 111.94201172 -11.09941406 111.94652344 -10.34570312 111.95117188 C-8.56376581 111.96281852 -6.78187137 111.98074809 -5 112 C-5.94395852 120.61983171 -7.38786432 128.11256311 -11 136 C-11.67392243 137.66374601 -12.34245339 139.32971419 -13 141 C-13.66 141 -14.32 141 -15 141 C-16.0211924 142.1730315 -16.99181275 143.39028853 -17.9375 144.625 C-26.45837088 154.46478369 -39.56718591 157.7651233 -52 160 C-53.32 160 -54.64 160 -56 160 C-56 160.99 -56 161.98 -56 163 C-54.34076462 164.47389489 -54.34076462 164.47389489 -52.1875 165.6875 C-51.47980469 166.12449219 -50.77210938 166.56148437 -50.04296875 167.01171875 C-47.92814093 168.21773547 -47.92814093 168.21773547 -45 168 C-45 168.66 -45 169.32 -45 170 C-42.03 170.99 -42.03 170.99 -39 172 C-39 172.66 -39 173.32 -39 174 C-37.89591797 174.59748047 -37.89591797 174.59748047 -36.76953125 175.20703125 C-35.79371094 175.73683594 -34.81789063 176.26664063 -33.8125 176.8125 C-32.36810547 177.59560547 -32.36810547 177.59560547 -30.89453125 178.39453125 C-28.99086293 179.45041206 -27.11141174 180.55140641 -25.26171875 181.69921875 C-23.14589743 183.16618517 -23.14589743 183.16618517 -21 183 C-21 183.66 -21 184.32 -21 185 C-20.47792969 185.27972656 -19.95585937 185.55945313 -19.41796875 185.84765625 C-13.99152329 188.80321586 -8.76756538 191.99815219 -3.578125 195.3515625 C-2.72734375 195.89554688 -1.8765625 196.43953125 -1 197 C-0.10925781 197.5775 0.78148437 198.155 1.69921875 198.75 C2.45847656 199.1625 3.21773437 199.575 4 200 C6.14853436 199.46804363 6.14853436 199.46804363 8 198 C8.7425 197.505 9.485 197.01 10.25 196.5 C10.8275 196.005 11.405 195.51 12 195 C12 194.34 12 193.68 12 193 C12.53625 192.79375 13.0725 192.5875 13.625 192.375 C16.91978009 190.46749574 19.59363628 187.95180616 22 185 C22 184.34 22 183.68 22 183 C22.66 183 23.32 183 24 183 C27.02517909 179.94441577 27.02517909 179.94441577 28 176 C28.66 176 29.32 176 30 176 C44.29113231 156.33359945 51.44552989 131.99923516 51.3125 107.8125 C51.30404053 106.18066772 51.30404053 106.18066772 51.29541016 104.51586914 C50.91102306 78.75622477 41.80207294 54.08482337 24 35 C23.34 35 22.68 35 22 35 C21.76667969 34.44183594 21.53335938 33.88367188 21.29296875 33.30859375 C17.32088387 26.2164422 9.83150544 20.2696909 3 16 C2.34 16 1.68 16 1 16 C1 15.34 1 14.68 1 14 C-17.0122138 1.2001118 -38.35077332 -4.17550979 -60.125 -4.1875 C-61.27226562 -4.19974609 -62.41953125 -4.21199219 -63.6015625 -4.22460938 C-79.83315496 -4.25202761 -95.47821768 -1.36521431 -110 6 Z M-39 128 C-39 128.66 -39 129.32 -39 130 C-39.59683594 130.26296875 -40.19367188 130.5259375 -40.80859375 130.796875 C-46.16660783 133.73852979 -49.73698288 139.46818036 -52 145 C-52 145.99 -52 146.98 -52 148 C-42.01386648 148.99861335 -34.25205817 144.89718093 -26.5625 138.6875 C-21.34753384 133.78760472 -18.17433664 128.04601987 -17 121 C-25.0678117 121 -32.27527434 123.66628791 -39 128 Z M-108 125 C-105.38446257 134.91151028 -100.95130365 141.42718732 -92.14453125 146.81640625 C-85.66613207 150.39191618 -79.28307542 150.51446164 -72 151 C-73.65 147.37 -75.3 143.74 -77 140 C-77.66 140 -78.32 140 -79 140 C-79.2475 139.38125 -79.495 138.7625 -79.75 138.125 C-81.20628639 135.64931313 -82.37812506 135.04874998 -85 134 C-85 133.34 -85 132.68 -85 132 C-92.69785868 127.60698117 -99.0754426 125.03513605 -108 125 Z M-74.3125 179.5 C-74.93680908 179.85586182 -75.56111816 180.21172363 -76.2043457 180.57836914 C-81.49657877 183.63284319 -86.54742232 186.95768986 -91.57421875 190.43359375 C-94 192 -94 192 -97 193 C-97 193.66 -97 194.32 -97 195 C-97.54011719 195.0928125 -98.08023438 195.185625 -98.63671875 195.28125 C-101.72623235 196.22087066 -104.08453941 197.77057593 -106.8125 199.5 C-107.96039766 200.22091237 -109.10885967 200.94092674 -110.2578125 201.66015625 C-110.86141602 202.03930176 -111.46501953 202.41844727 -112.08691406 202.80908203 C-115.43049739 204.89050106 -118.80892715 206.91354942 -122.1875 208.9375 C-123.15876831 209.52144531 -123.15876831 209.52144531 -124.1496582 210.1171875 C-128.74691791 212.87345895 -128.74691791 212.87345895 -131 214 C-131 214.66 -131 215.32 -131 216 C-131.9590625 216.1546875 -131.9590625 216.1546875 -132.9375 216.3125 C-133.9584375 216.6528125 -133.9584375 216.6528125 -135 217 C-135.93425257 219.80275772 -136.09949044 221.3188539 -136.02172852 224.19604492 C-136.00163223 225.03668991 -135.98153595 225.8773349 -135.96083069 226.74345398 C-135.93379562 227.64666885 -135.90676056 228.54988373 -135.87890625 229.48046875 C-135.85529526 230.40845779 -135.83168427 231.33644684 -135.80735779 232.29255676 C-135.73075991 235.25769495 -135.64671871 238.22256942 -135.5625 241.1875 C-135.50927545 243.1972527 -135.45653507 245.20701829 -135.40429688 247.21679688 C-135.27606026 252.14474687 -135.13776449 257.07227024 -135 262 C-124.77 262 -114.54 262 -104 262 C-103.95101562 259.60363281 -103.90203125 257.20726562 -103.8515625 254.73828125 C-103.79749704 252.40822296 -103.74021151 250.07826444 -103.68261719 247.74829102 C-103.64441928 246.1334583 -103.60955055 244.51854316 -103.578125 242.90356445 C-103.53227391 240.57733783 -103.47431416 238.25167408 -103.4140625 235.92578125 C-103.40251129 235.20787918 -103.39096008 234.48997711 -103.37905884 233.75032043 C-103.23276554 228.74131344 -102.83654096 224.93441555 -99.30957031 221.21948242 C-96.14976429 219.55106476 -93.61119736 219.56379655 -90.046875 219.48828125 C-88.83870117 219.45516846 -87.63052734 219.42205566 -86.38574219 219.38793945 C-84.85594727 219.36304443 -83.32615234 219.33814941 -81.75 219.3125 C-76.8825 219.209375 -72.015 219.10625 -67 219 C-67 204.81 -67 190.62 -67 176 C-69.45016048 176 -72.18255574 178.28180758 -74.3125 179.5 Z M-56 177 C-56 190.86 -56 204.72 -56 219 C-46.63648481 219.2493264 -46.63648481 219.2493264 -37.27246094 219.47802734 C-36.10489258 219.5136377 -34.93732422 219.54924805 -33.734375 219.5859375 C-32.54038086 219.6173584 -31.34638672 219.6487793 -30.11621094 219.68115234 C-27.10442221 219.98931562 -25.40274078 220.18589629 -23 222 C-20.60450073 226.14076429 -20.65877984 230.47947821 -20.5859375 235.14453125 C-20.56657135 235.91431808 -20.5472052 236.68410492 -20.5272522 237.47721863 C-20.46774377 239.92220171 -20.42118705 242.36723262 -20.375 244.8125 C-20.33679369 246.47593134 -20.29774043 248.13934347 -20.2578125 249.80273438 C-20.16048018 253.86838633 -20.08068605 257.93384762 -20 262 C-9.44 262 1.12 262 12 262 C12.18401573 255.84058463 12.34309808 249.6907398 12.43945312 243.53076172 C12.47961792 241.43733373 12.53416361 239.34412924 12.60351562 237.25146484 C12.70088225 234.23739513 12.74599402 231.22629592 12.78125 228.2109375 C12.82254028 227.27945892 12.86383057 226.34798035 12.90637207 225.38827515 C12.90903524 221.50772282 12.89938231 219.02306167 10.27124023 216.0335083 C7.08376062 213.53488554 5.12175937 212 1 212 C1 211.34 1 210.68 1 210 C-0.98 209.34 -2.96 208.68 -5 208 C-5 207.34 -5 206.68 -5 206 C-6.14855469 205.443125 -7.29710937 204.88625 -8.48046875 204.3125 C-12.90540695 202.09760228 -17.10795886 199.60438645 -21.3125 197 C-22.07506104 196.53086182 -22.83762207 196.06172363 -23.62329102 195.57836914 C-43.85029237 183.09980509 -43.85029237 183.09980509 -53 177 C-53.99 177 -54.98 177 -56 177 Z M-93 230 C-93 240.56 -93 251.12 -93 262 C-84.42 262 -75.84 262 -67 262 C-67 251.44 -67 240.88 -67 230 C-75.58 230 -84.16 230 -93 230 Z M-55 230 C-55.86471793 235.98066904 -55.86471793 235.98066904 -56.1328125 241.8828125 C-56.13410156 242.74003906 -56.13539063 243.59726562 -56.13671875 244.48046875 C-56.13285156 245.35316406 -56.12898437 246.22585938 -56.125 247.125 C-56.12886719 248.00542969 -56.13273438 248.88585937 -56.13671875 249.79296875 C-56.13542969 250.64761719 -56.13414062 251.50226563 -56.1328125 252.3828125 C-56.13168457 253.14996582 -56.13055664 253.91711914 -56.12939453 254.70751953 C-56.02716021 257.47322943 -56.02716021 257.47322943 -55 262 C-47.08 262 -39.16 262 -31 262 C-31 251.44 -31 240.88 -31 230 C-38.92 230 -46.84 230 -55 230 Z " fill="#33B3B9" transform="translate(312,100)"/>
<path d="M0 0 C1.9375 0.3125 1.9375 0.3125 4 1 C4.33 1.99 4.66 2.98 5 4 C4.34 4 3.68 4 3 4 C3 4.66 3 5.32 3 6 C3.66 6 4.32 6 5 6 C5.80974903 8.84313331 6.12241859 11.35702965 6.11352539 14.30957031 C6.11344986 15.15013977 6.11337433 15.99070923 6.11329651 16.85675049 C6.10813522 17.75480408 6.10297394 18.65285767 6.09765625 19.578125 C6.0962413 20.5046991 6.09482635 21.43127319 6.09336853 22.38592529 C6.08777824 25.34064992 6.0752275 28.29529833 6.0625 31.25 C6.05748375 33.25520724 6.05292106 35.26041567 6.04882812 37.265625 C6.03866357 42.17713621 6.01908621 47.08848294 6 52 C15.9 52 25.8 52 36 52 C36 52.66 36 53.32 36 54 C36.99 53.67 37.98 53.34 39 53 C39.99 53.99 40.98 54.98 42 56 C42 54.68 42 53.36 42 52 C52.56 52 63.12 52 74 52 C73.814375 49.525 73.62875 47.05 73.4375 44.5 C72.86375882 35.88797617 73.30267002 27.60040304 74 19 C65.09 19 56.18 19 47 19 C47 18.67 47 18.34 47 18 C56.57 18 66.14 18 76 18 C76.495 30.375 76.495 30.375 77 43 C78.98 43.66 80.96 44.32 83 45 C83.495 47.97 83.495 47.97 84 51 C97.365 51.495 97.365 51.495 111 52 C111 43.09 111 34.18 111 25 C111.99 24.67 112.98 24.34 114 24 C114.73323796 21.98491642 114.73323796 21.98491642 115 20 C115.66 20 116.32 20 117 20 C117 20.99 117 21.98 117 23 C117.66 23 118.32 23 119 23 C119 33.23 119 43.46 119 54 C119.99 53.67 120.98 53.34 122 53 C123.98001191 52.90550997 125.96304835 52.8692826 127.9453125 52.8671875 C129.10417969 52.86589844 130.26304687 52.86460937 131.45703125 52.86328125 C133.27267578 52.86908203 133.27267578 52.86908203 135.125 52.875 C136.34316406 52.87113281 137.56132812 52.86726563 138.81640625 52.86328125 C140.55083984 52.86521484 140.55083984 52.86521484 142.3203125 52.8671875 C143.38523926 52.86831543 144.45016602 52.86944336 145.54736328 52.87060547 C148 53 148 53 149 54 C151.00720923 53.71325582 153.0085944 53.38133299 155 53 C155 54.65 155 56.3 155 58 C155.99 58.33 156.98 58.66 158 59 C158 59.66 158 60.32 158 61 C137.33841232 61.35445809 116.67656955 61.68580651 96.0141716 61.98955154 C86.42053142 62.13112217 76.82712112 62.28028897 67.23388672 62.44726562 C58.8736455 62.59276202 50.51332322 62.72408039 42.15259385 62.83828807 C37.72449959 62.89927345 33.29677364 62.96741465 28.86907196 63.05252838 C24.70291762 63.13239053 20.53691845 63.19331476 16.37026024 63.23962784 C14.83989972 63.25999345 13.30961383 63.28731915 11.77951241 63.32207108 C9.6918492 63.36845152 7.6053621 63.3898963 5.51727295 63.40509033 C4.34843945 63.42352619 3.17960594 63.44196205 1.97535324 63.46095657 C-1.64885685 62.89947586 -2.80587255 61.88389605 -5 59 C-5.48101807 56.46893311 -5.48101807 56.46893311 -5.45410156 53.58886719 C-5.45379944 52.50804871 -5.45349731 51.42723022 -5.45318604 50.31365967 C-5.43254089 49.15312073 -5.41189575 47.99258179 -5.390625 46.796875 C-5.38496521 45.60394836 -5.37930542 44.41102173 -5.37347412 43.1819458 C-5.35107926 39.37088944 -5.30087429 35.56077233 -5.25 31.75 C-5.22993915 29.16668024 -5.21168766 26.58334575 -5.1953125 24 C-5.15120411 17.66634606 -5.08425978 11.33324013 -5 5 C-4.01 4.67 -3.02 4.34 -2 4 C-0.79117904 1.99983534 -0.79117904 1.99983534 0 0 Z " fill="#29B1B7" transform="translate(171,310)"/>
<path d="M0 0 C0.8559375 -0.02449219 1.711875 -0.04898438 2.59375 -0.07421875 C9.00349111 -0.10335394 13.61784659 1.39658961 19.25 4.375 C20.58264063 5.04305027 21.91577091 5.71012786 23.25 6.375 C23.25 7.035 23.25 7.695 23.25 8.375 C23.91 8.375 24.57 8.375 25.25 8.375 C25.25 9.035 25.25 9.695 25.25 10.375 C25.91 10.375 26.57 10.375 27.25 10.375 C34.10292496 18.10601562 36.85531532 27.77699594 36.46875 37.97265625 C35.54299617 48.13941711 31.59721513 57.81077466 23.76171875 64.6796875 C19.28463546 68.15843267 14.65688677 69.82418751 9.25 71.375 C8.26 71.705 7.27 72.035 6.25 72.375 C-3.87853173 73.32845746 -11.81751066 70.96530702 -20.75 66.375 C-20.75 65.715 -20.75 65.055 -20.75 64.375 C-21.348125 64.11589844 -21.94625 63.85679687 -22.5625 63.58984375 C-28.64303135 60.21297723 -31.94302687 52.9258649 -34.05859375 46.5703125 C-36.64607561 34.61234548 -35.17943154 23.52253252 -28.6875 13.1875 C-24.9085917 8.02860821 -20.47395725 5.09894107 -14.75 2.375 C-13.66332031 1.81425781 -13.66332031 1.81425781 -12.5546875 1.2421875 C-8.37911715 -0.04886628 -4.34646077 0.00642968 0 0 Z M-17.75 18.375 C-17.75 19.035 -17.75 19.695 -17.75 20.375 C-18.41 20.375 -19.07 20.375 -19.75 20.375 C-24.09029088 27.2923386 -24.73016607 33.28615478 -23.75 41.375 C-22.12090195 47.30770465 -19.40626394 51.31569298 -14.75 55.375 C-14.255 55.931875 -13.76 56.48875 -13.25 57.0625 C-9.31494376 60.50567421 -4.84600081 60.67110423 0.1875 60.6875 C1.37214844 60.70425781 2.55679688 60.72101563 3.77734375 60.73828125 C9.6480616 60.12413416 13.94147178 57.30336396 18.25 53.375 C18.25 52.715 18.25 52.055 18.25 51.375 C18.91 51.375 19.57 51.375 20.25 51.375 C24.34728463 44.23779452 26.30471425 37.48706025 24.625 29.25 C22.37262377 21.91495897 18.77124331 17.10411824 12.1171875 13.28515625 C8.14410281 11.34848526 4.81215799 11.18090617 0.4375 11.125 C-0.76519531 11.09921875 -1.96789062 11.0734375 -3.20703125 11.046875 C-9.12963466 11.59538513 -13.41102152 14.41887257 -17.75 18.375 Z " fill="#34B3B8" transform="translate(249.75,140.625)"/>
<path d="M0 0 C0.33 0.66 0.66 1.32 1 2 C1.66 2 2.32 2 3 2 C3.33 1.34 3.66 0.68 4 0 C4.66 0 5.32 0 6 0 C6.66 2.31 7.32 4.62 8 7 C8.99 7 9.98 7 11 7 C11.33 7.99 11.66 8.98 12 10 C11.01 10 10.02 10 9 10 C8.67 11.65 8.34 13.3 8 15 C5.03 14.505 5.03 14.505 2 14 C1.896875 14.556875 1.79375 15.11375 1.6875 15.6875 C0.86866423 18.44176578 -0.45853781 20.58727657 -2 23 C-0.35 23.33 1.3 23.66 3 24 C3.06058594 24.85464844 3.12117188 25.70929688 3.18359375 26.58984375 C3.30927734 28.24693359 3.30927734 28.24693359 3.4375 29.9375 C3.51871094 31.03964844 3.59992188 32.14179688 3.68359375 33.27734375 C3.70418084 35.91109903 3.70418084 35.91109903 5 37 C5.07271741 39.35313555 5.08370868 41.70833668 5.0625 44.0625 C5.05347656 45.35285156 5.04445312 46.64320313 5.03515625 47.97265625 C5.02355469 48.97167969 5.01195312 49.97070312 5 51 C3.515 51.495 3.515 51.495 2 52 C1.67 53.65 1.34 55.3 1 57 C0.67 56.01 0.34 55.02 0 54 C-0.99 54 -1.98 54 -3 54 C-3 55.65 -3 57.3 -3 59 C-3.33 59 -3.66 59 -4 59 C-4 44.48 -4 29.96 -4 15 C-8.455 15.495 -8.455 15.495 -13 16 C-13 15.01 -13 14.02 -13 13 C-13.99 12.67 -14.98 12.34 -16 12 C-14.37633534 8.75267068 -11.24612161 8.29844864 -8 7 C-8.99 6.34 -9.98 5.68 -11 5 C-9.125 3.9375 -9.125 3.9375 -7 3 C-6.34 3.33 -5.68 3.66 -5 4 C-5 4.66 -5 5.32 -5 6 C-1.62911733 3.72584713 -1.62911733 3.72584713 0 0 Z " fill="#26B1B8" transform="translate(250,260)"/>
<path d="M0 0 C-0.33 1.65 -0.66 3.3 -1 5 C-3.3125 5.625 -3.3125 5.625 -6 6 C-6.99 5.34 -7.98 4.68 -9 4 C-9 4.66 -9 5.32 -9 6 C-10.02480469 6.01417969 -11.04960937 6.02835938 -12.10546875 6.04296875 C-13.46618971 6.08989016 -14.82686541 6.13813744 -16.1875 6.1875 C-16.86103516 6.19330078 -17.53457031 6.19910156 -18.22851562 6.20507812 C-22.17559235 6.37836442 -23.81107795 6.83215712 -26.80078125 9.48828125 C-27.52652344 10.31714844 -28.25226563 11.14601562 -29 12 C-32 13 -32 13 -35 12 C-35.66 13.32 -36.32 14.64 -37 16 C-37.99 16 -38.98 16 -40 16 C-40 17.32 -40 18.64 -40 20 C-40.66 20 -41.32 20 -42 20 C-42 20.66 -42 21.32 -42 22 C-43.32 21.34 -44.64 20.68 -46 20 C-45.625 17.0625 -45.625 17.0625 -45 14 C-44.34 13.67 -43.68 13.34 -43 13 C-42.62660278 11.61434625 -42.30085204 10.21569274 -42 8.8125 C-40.34466172 3.40678592 -37.19996418 1.67855224 -32.375 -0.90625 C-23.05467418 -5.19850531 -9.39785921 -3.70968127 0 0 Z " fill="#2BB2B8" transform="translate(265,145)"/>
<path d="M0 0 C3.14550813 -0.11792821 6.29043541 -0.18781383 9.4375 -0.25 C10.31599609 -0.28351563 11.19449219 -0.31703125 12.09960938 -0.3515625 C18.64359355 -0.44815267 23.25638508 0.93316497 29 4 C30.33238017 4.66856959 31.66543618 5.33580001 33 6 C33 6.66 33 7.32 33 8 C33.66 8 34.32 8 35 8 C35 8.66 35 9.32 35 10 C35.66 10 36.32 10 37 10 C41 14.47058824 41 14.47058824 41 17 C40.34 17 39.68 17 39 17 C38.814375 18.175625 38.814375 18.175625 38.625 19.375 C38 22 38 22 36 24 C35.53993654 26.20250992 35.53993654 26.20250992 35.375 28.625 C35.30023438 29.44226563 35.22546875 30.25953125 35.1484375 31.1015625 C35.09945312 31.72804687 35.05046875 32.35453125 35 33 C34.67 33 34.34 33 34 33 C33.7525 31.80375 33.505 30.6075 33.25 29.375 C32.25336253 25.301786 30.4423313 22.41926382 28 19 C28 18.34 28 17.68 28 17 C26.67741528 16.31225595 25.34013497 15.65288627 24 15 C22.96875 14.484375 21.9375 13.96875 20.875 13.4375 C16.73297876 11.67099414 13.00711198 11.65390909 8.5625 11.8125 C7.46518555 11.83280273 7.46518555 11.83280273 6.34570312 11.85351562 C4.56347578 11.88846126 2.78163427 11.94225195 1 12 C0.67 11.34 0.34 10.68 0 10 C5.28 10 10.56 10 16 10 C16 9.34 16 8.68 16 8 C16.763125 8.20625 17.52625 8.4125 18.3125 8.625 C21.21885944 9.33391203 21.21885944 9.33391203 24 7 C24 6.34 24 5.68 24 5 C19.22473775 2.64697222 14.40795809 2.349941 9.1875 1.875 C7.86202148 1.74544922 7.86202148 1.74544922 6.50976562 1.61328125 C4.34047942 1.40221556 2.17031542 1.20020574 0 1 C0 0.67 0 0.34 0 0 Z " fill="#26B2BB" transform="translate(240,141)"/>
<path d="M0 0 C0 0.66 0 1.32 0 2 C0.721875 2.04125 1.44375 2.0825 2.1875 2.125 C6.28189875 3.39881294 7.52448804 5.53428325 10 9 C10 9.66 10 10.32 10 11 C10.66 11 11.32 11 12 11 C11.125 14.875 11.125 14.875 10 16 C10.53625 16.0825 11.0725 16.165 11.625 16.25 C14.95749311 17.30236625 17.29904157 18.79012492 20 21 C20.375 23.75 20.375 23.75 20 26 C19.34 26.33 18.68 26.66 18 27 C17.67 27.66 17.34 28.32 17 29 C16.01 28.67 15.02 28.34 14 28 C13.67 27.01 13.34 26.02 13 25 C11.01276732 24.29618843 9.01222047 23.6288189 7 23 C6.67 22.34 6.34 21.68 6 21 C4.824375 20.3503125 4.824375 20.3503125 3.625 19.6875 C0.6795497 17.79399624 -0.41904675 16.07869843 -2 13 C-1.34 12.67 -0.68 12.34 0 12 C-2.0072908 8.9890638 -2.83884224 8.36983503 -6 7 C-6 5.68 -6 4.36 -6 3 C-6.99 2.67 -7.98 2.34 -9 2 C-5.62902617 0.50178941 -3.79557881 0 0 0 Z " fill="#2EB3B8" transform="translate(158,276)"/>
<path d="M0 0 C3.0625 0.1875 3.0625 0.1875 5.0625 2.1875 C5.65974346 5.3976836 5.59774834 7.36820883 3.7890625 10.13671875 C2.28481419 11.94548562 0.83302101 13.63714741 -0.9375 15.1875 C-1.5975 15.1875 -2.2575 15.1875 -2.9375 15.1875 C-2.9375 15.8475 -2.9375 16.5075 -2.9375 17.1875 C-3.5975 17.1875 -4.2575 17.1875 -4.9375 17.1875 C-4.9375 17.8475 -4.9375 18.5075 -4.9375 19.1875 C-5.5975 19.1875 -6.2575 19.1875 -6.9375 19.1875 C-6.9375 19.8475 -6.9375 20.5075 -6.9375 21.1875 C-13.34944487 22.51828101 -13.34944487 22.51828101 -15.9375 21.0625 C-17.35425378 18.40608665 -16.76681702 17.03933505 -15.9375 14.1875 C-14.484375 12.125 -14.484375 12.125 -12.6875 10.1875 C-12.06101562 9.50558594 -11.43453125 8.82367188 -10.7890625 8.12109375 C-8.53866066 5.77099057 -6.2724784 3.45380256 -3.9375 1.1875 C-2.9375 0.1875 -2.9375 0.1875 0 0 Z " fill="#27B0B7" transform="translate(295.9375,124.8125)"/>
<path d="M0 0 C1.20462891 -0.02416992 1.20462891 -0.02416992 2.43359375 -0.04882812 C7.11521782 -0.05268449 10.38196633 0.17862671 14.125 3.3125 C15.125 6.3125 15.125 6.3125 14.37890625 8.97265625 C11.67219919 11.78256532 10.87374475 11.69864073 7.08984375 11.87109375 C5.08037698 11.85646494 3.07096733 11.81503608 1.0625 11.75 C0.04349609 11.74419922 -0.97550781 11.73839844 -2.02539062 11.73242188 C-9.58024132 11.60725868 -9.58024132 11.60725868 -11.875 9.3125 C-12.1875 5.8125 -12.1875 5.8125 -11.875 2.3125 C-7.82801203 -0.38549198 -4.74798435 -0.01887116 0 0 Z " fill="#29B2B8" transform="translate(193.875,169.6875)"/>
<path d="M0 0 C0 0.66 0 1.32 0 2 C0.66 2 1.32 2 2 2 C6 6.47058824 6 6.47058824 6 9 C6.66 9 7.32 9 8 9 C10.28901142 11.89492621 11.85238504 14.07213455 12.4375 17.75 C12.2209375 18.86375 12.2209375 18.86375 12 20 C8.1496895 22.56687367 6.41430237 21.83288724 2 21 C2 20.34 2 19.68 2 19 C1.34 19 0.68 19 0 19 C-1.65625 17.35546875 -1.65625 17.35546875 -3.5 15.1875 C-4.1084375 14.47980469 -4.716875 13.77210938 -5.34375 13.04296875 C-8.92122691 8.63018473 -8.92122691 8.63018473 -9.3125 5.5 C-9 3 -9 3 -7.875 1.1875 C-5.22464043 -0.49106106 -3.06753576 -0.20450238 0 0 Z " fill="#38B3B7" transform="translate(209,125)"/>
<path d="M0 0 C2 2 2 2 2 6 C1.34 6.33 0.68 6.66 0 7 C-0.0825 7.928125 -0.165 8.85625 -0.25 9.8125 C-1 13 -1 13 -3.875 15.4375 C-4.90625 15.953125 -5.9375 16.46875 -7 17 C-7.99 16.67 -8.98 16.34 -10 16 C-10 16.66 -10 17.32 -10 18 C-13.63423209 20.32590854 -16.77088331 20.16265833 -21 20 C-21 19.34 -21 18.68 -21 18 C-21.66 17.67 -22.32 17.34 -23 17 C-23.66 16.34 -24.32 15.68 -25 15 C-25 15.66 -25 16.32 -25 17 C-26.65 17 -28.3 17 -30 17 C-30.66 15.68 -31.32 14.36 -32 13 C-24.08 12.505 -24.08 12.505 -16 12 C-16 11.01 -16 10.02 -16 9 C-12.535 8.505 -12.535 8.505 -9 8 C-9 7.34 -9 6.68 -9 6 C-6.96918264 3.56301917 -4.86938443 2.29585103 -2 1 C-1.34 0.67 -0.68 0.34 0 0 Z " fill="#28B1B6" transform="translate(278,189)"/>
<path d="M0 0 C1.30710937 -0.01417969 2.61421875 -0.02835938 3.9609375 -0.04296875 C7.36298963 0.1710196 9.59183747 0.70605189 12.625 2.1875 C12.875 5 12.875 5 12.625 8.1875 C10.82662159 10.30294788 9.3029216 11.08371683 6.56298828 11.50317383 C4.05555094 11.66448752 1.57495661 11.69503925 -0.9375 11.6875 C-1.80052734 11.71585938 -2.66355469 11.74421875 -3.55273438 11.7734375 C-5.93951128 11.78085561 -8.05043296 11.73296142 -10.375 11.1875 C-12.46484375 8.65625 -12.46484375 8.65625 -13.375 6.1875 C-9.95220849 -0.1691128 -6.96204239 0.03419471 0 0 Z " fill="#25B2B8" transform="translate(305.375,169.8125)"/>
<path d="M0 0 C1.84869991 3.94782133 2.29726551 7.15309242 2.3125 11.5 C2.32925781 12.6034375 2.34601563 13.706875 2.36328125 14.84375 C1.96567355 18.29823407 0.98922952 20.18673608 -1 23 C-4.375 22.75 -4.375 22.75 -8 22 C-10.74572679 18.49009035 -10.33164479 14.19147129 -10.3125 9.9375 C-10.32861328 9.21755859 -10.34472656 8.49761719 -10.36132812 7.75585938 C-10.36411168 4.75796749 -10.35184223 2.55015331 -8.7109375 -0.015625 C-5.81879728 -1.67959608 -3.1324076 -0.65012233 0 0 Z " fill="#43B6B9" transform="translate(254,111)"/>
<path d="M0 0 C3.25 -0.375 3.25 -0.375 6 0 C5.67 0.99 5.34 1.98 5 3 C4.34 3 3.68 3 3 3 C3 3.66 3 4.32 3 5 C2.34 5 1.68 5 1 5 C1 5.66 1 6.32 1 7 C0.34 7 -0.32 7 -1 7 C-1 7.66 -1 8.32 -1 9 C-1.66 9 -2.32 9 -3 9 C-3.24878906 9.5465625 -3.49757812 10.093125 -3.75390625 10.65625 C-5.25146403 13.4729731 -7.04402026 15.93304795 -8.9375 18.5 C-9.97197266 19.90765625 -9.97197266 19.90765625 -11.02734375 21.34375 C-12.67858361 23.56720169 -14.33827831 25.78437108 -16 28 C-15.67 24.7 -15.34 21.4 -15 18 C-18.40614946 18.02126462 -18.40614946 18.02126462 -22 19 C-24.01041003 21.93449408 -24.01041003 21.93449408 -25 25 C-25.66 25 -26.32 25 -27 25 C-25.66749209 21.4124787 -24.169283 18.1635377 -22 15 C-21.34 15 -20.68 15 -20 15 C-19.773125 14.319375 -19.54625 13.63875 -19.3125 12.9375 C-17.68773854 9.3011291 -15.67196743 5.97170737 -13 3 C-12.34 3 -11.68 3 -11 3 C-10.67 2.34 -10.34 1.68 -10 1 C-10.33 3.64 -10.66 6.28 -11 9 C-10.01 9.33 -9.02 9.66 -8 10 C-7.34 8.68 -6.68 7.36 -6 6 C-5.34 6 -4.68 6 -4 6 C-3.4225 5.01 -2.845 4.02 -2.25 3 C-1.5075 2.01 -0.765 1.02 0 0 Z " fill="#3EB7BB" transform="translate(169,124)"/>
<path d="M0 0 C2.47923801 -0.02685095 4.9581884 -0.04676547 7.4375 -0.0625 C8.14455078 -0.07087891 8.85160156 -0.07925781 9.58007812 -0.08789062 C11.38693559 -0.09653588 13.19387603 -0.05220011 15 0 C16 1 16 1 16.09765625 3.72265625 C16.08605469 4.82480469 16.07445312 5.92695313 16.0625 7.0625 C16.05347656 8.16722656 16.04445313 9.27195313 16.03515625 10.41015625 C16.02355469 11.26480469 16.01195312 12.11945313 16 13 C15.01 13 14.02 13 13 13 C12.67 13.99 12.34 14.98 12 16 C11.01 15.01 10.02 14.02 9 13 C8.01 13.66 7.02 14.32 6 15 C6 12.69 6 10.38 6 8 C5.443125 8.144375 4.88625 8.28875 4.3125 8.4375 C-0.94136317 9.71546672 -5.59708529 10.19646963 -11 10 C-11.33 8.35 -11.66 6.7 -12 5 C-8.33333333 5 -4.66666667 5 -1 5 C-0.67 3.35 -0.34 1.7 0 0 Z " fill="#2BB2B7" transform="translate(289,213)"/>
<path d="M0 0 C0.51820313 0.16242188 1.03640625 0.32484375 1.5703125 0.4921875 C4.7083677 1.14805113 7.67015382 1.13189214 10.875 1.125 C12.06867188 1.12757813 13.26234375 1.13015625 14.4921875 1.1328125 C17.75347351 1.00933396 20.79938334 0.61663257 24 0 C23.67 0.99 23.34 1.98 23 3 C18.05 3.33 13.1 3.66 8 4 C8.33 4.66 8.66 5.32 9 6 C11.52733235 6.65555119 11.52733235 6.65555119 14 7 C14 6.34 14 5.68 14 5 C14.99 5.33 15.98 5.66 17 6 C17.33 7.32 17.66 8.64 18 10 C23.445 9.01 23.445 9.01 29 8 C29 7.34 29 6.68 29 6 C29.99 6 30.98 6 32 6 C32 6.66 32 7.32 32 8 C23.37899803 13.38812623 15.14005096 15.06871302 5 14 C-4.50252951 11.49747049 -4.50252951 11.49747049 -8 8 C-7.34 7.34 -6.68 6.68 -6 6 C-5.484375 6.495 -4.96875 6.99 -4.4375 7.5 C-1.19319983 9.49649241 1.26217334 9.21564385 5 9 C5 8.34 5 7.68 5 7 C4.071875 6.7834375 4.071875 6.7834375 3.125 6.5625 C1 6 1 6 -1 5 C-0.67 3.35 -0.34 1.7 0 0 Z " fill="#2FB4BA" transform="translate(239,199)"/>
<path d="M0 0 C1.65 0 3.3 0 5 0 C3.68 0.33 2.36 0.66 1 1 C1.92994117 2.94113934 2.8692453 4.8777951 3.8125 6.8125 C4.33457031 7.89144531 4.85664063 8.97039062 5.39453125 10.08203125 C6.77837685 12.59719587 7.96577747 14.06351789 10 16 C10 16.66 10 17.32 10 18 C10.763125 18.268125 11.52625 18.53625 12.3125 18.8125 C14.87380884 19.94424112 16.19692938 20.91223401 18 23 C13.4234072 22.45080886 9.3387831 21.54956539 5 20 C4.67 20 4.34 20 4 20 C4.9977758 22.99332739 5.7522025 23.94766315 8 26 C7.67 26.66 7.34 27.32 7 28 C4.525 27.01 4.525 27.01 2 26 C2 25.34 2 24.68 2 24 C1.34 24 0.68 24 0 24 C-1.4375 22.171875 -1.4375 22.171875 -3 19.75 C-3.515625 18.96109375 -4.03125 18.1721875 -4.5625 17.359375 C-8 11.7173913 -8 11.7173913 -8 8 C-7.34 8 -6.68 8 -6 8 C-6 8.66 -6 9.32 -6 10 C-5.34 10 -4.68 10 -4 10 C-4 10.66 -4 11.32 -4 12 C-3.34 12 -2.68 12 -2 12 C-1.67 11.34 -1.34 10.68 -1 10 C-0.34 10 0.32 10 1 10 C0.67 9.01 0.34 8.02 0 7 C-0.03954234 4.66700175 -0.04401732 2.33291811 0 0 Z " fill="#39B6B9" transform="translate(203,224)"/>
<path d="M0 0 C2 3 2 3 2 5 C3.32 5 4.64 5 6 5 C6.66 6.98 7.32 8.96 8 11 C6.58653438 12.44064765 5.16908789 13.87739015 3.75 15.3125 C2.96109375 16.11300781 2.1721875 16.91351563 1.359375 17.73828125 C-1 20 -1 20 -3.296875 21.66796875 C-3.85890625 22.10753906 -4.4209375 22.54710937 -5 23 C-5.2284549 25.24362573 -5.2284549 25.24362573 -3 27.125 C-2.34 27.74375 -1.68 28.3625 -1 29 C-1.928125 28.979375 -2.85625 28.95875 -3.8125 28.9375 C-7.02286011 28.84230396 -7.02286011 28.84230396 -10 30 C-10 31.65 -10 33.3 -10 35 C-13.465 33.02 -13.465 33.02 -17 31 C-17 30.67 -17 30.34 -17 30 C-15.35 29.67 -13.7 29.34 -12 29 C-12.66 28.01 -13.32 27.02 -14 26 C-13.34 25.01 -12.68 24.02 -12 23 C-12.66 22.67 -13.32 22.34 -14 22 C-12.68 21.67 -11.36 21.34 -10 21 C-10 21.66 -10 22.32 -10 23 C-9.34 23 -8.68 23 -8 23 C-7.34 21.35 -6.68 19.7 -6 18 C-4.68 18 -3.36 18 -2 18 C-2 17.01 -2 16.02 -2 15 C-2.99 14.67 -3.98 14.34 -5 14 C-3.625 12.5 -3.625 12.5 -2 11 C-1.34 11 -0.68 11 0 11 C0.33 10.34 0.66 9.68 1 9 C1.33 8.67 1.66 8.34 2 8 C0.68 7.34 -0.64 6.68 -2 6 C-2 6.66 -2 7.32 -2 8 C-3.65 8.33 -5.3 8.66 -7 9 C-6.57847656 8.51789063 -6.15695312 8.03578125 -5.72265625 7.5390625 C-5.17480469 6.90742188 -4.62695312 6.27578125 -4.0625 5.625 C-3.51722656 4.99851562 -2.97195313 4.37203125 -2.41015625 3.7265625 C-0.93041376 2.04367666 -0.93041376 2.04367666 0 0 Z " fill="#37B5B8" transform="translate(334,283)"/>
<path d="M0 0 C0.19148936 21.53191489 0.19148936 21.53191489 -1 32 C-1.33 32 -1.66 32 -2 32 C-2.33 30.35 -2.66 28.7 -3 27 C-3.66 27 -4.32 27 -5 27 C-5.33 28.65 -5.66 30.3 -6 32 C-7.485 32.495 -7.485 32.495 -9 33 C-9 30.36 -9 27.72 -9 25 C-8.34 24.67 -7.68 24.34 -7 24 C-7 16.41 -7 8.82 -7 1 C-4.53721199 -0.231394 -2.7204945 -0.07159196 0 0 Z " fill="#26B2B9" transform="translate(372,198)"/>
<path d="M0 0 C0.99 0 1.98 0 3 0 C7.03040009 9.23633353 6.1505403 17.15877139 5 27 C4.34 27 3.68 27 3 27 C3 27.99 3 28.98 3 30 C2.34 30 1.68 30 1 30 C0.375 27.6875 0.375 27.6875 0 25 C0.66 24.01 1.32 23.02 2 22 C1.6878236 19.35367713 1.6878236 19.35367713 1 17 C0.01 18.32 -0.98 19.64 -2 21 C-3.80116392 17.89998878 -4.2961501 15.57517903 -4.3125 12 C-4.32925781 11.154375 -4.34601563 10.30875 -4.36328125 9.4375 C-3.92803724 6.51715308 -2.85324058 5.25203918 -1 3 C-0.67 2.01 -0.34 1.02 0 0 Z " fill="#30B2B8" transform="translate(279,158)"/>
<path d="M0 0 C4.05637924 0.64942032 7.21339589 2.78620946 10.625 4.9375 C11.21023438 5.29779297 11.79546875 5.65808594 12.3984375 6.02929688 C14.82944153 7.5430987 16.96827077 8.96827077 19 11 C17.02 11.33 15.04 11.66 13 12 C12.67 11.01 12.34 10.02 12 9 C11.34 9 10.68 9 10 9 C9.34 11.64 8.68 14.28 8 17 C2.09627893 14.73900044 -2.83132665 11.62158745 -8 8 C-4.28125 5.953125 -4.28125 5.953125 -1.75 6.375 C-1.1725 6.58125 -0.595 6.7875 0 7 C0 4.69 0 2.38 0 0 Z " fill="#3DB7BC" transform="translate(291,285)"/>
<path d="M0 0 C3.14550813 -0.11792821 6.29043541 -0.18781383 9.4375 -0.25 C10.31599609 -0.28351563 11.19449219 -0.31703125 12.09960938 -0.3515625 C18.64359355 -0.44815267 23.25638508 0.93316497 29 4 C30.33238017 4.66856959 31.66543618 5.33580001 33 6 C32.67 6.66 32.34 7.32 32 8 C29.9375 8.625 29.9375 8.625 28 9 C27.83318891 11.91652174 27.83318891 11.91652174 28 15 C28.66 15.66 29.32 16.32 30 17 C29.67 17.99 29.34 18.98 29 20 C28.67 19.01 28.34 18.02 28 17 C26.30230766 15.89831016 26.30230766 15.89831016 24 15 C22.97003906 14.48824219 21.94007813 13.97648438 20.87890625 13.44921875 C16.73349957 11.67153523 13.01419769 11.65365626 8.5625 11.8125 C7.46518555 11.83280273 7.46518555 11.83280273 6.34570312 11.85351562 C4.56347578 11.88846126 2.78163427 11.94225195 1 12 C0.67 11.34 0.34 10.68 0 10 C5.28 10 10.56 10 16 10 C16 9.34 16 8.68 16 8 C16.763125 8.20625 17.52625 8.4125 18.3125 8.625 C21.21885944 9.33391203 21.21885944 9.33391203 24 7 C24 6.34 24 5.68 24 5 C19.22473775 2.64697222 14.40795809 2.349941 9.1875 1.875 C7.86202148 1.74544922 7.86202148 1.74544922 6.50976562 1.61328125 C4.34047942 1.40221556 2.17031542 1.20020574 0 1 C0 0.67 0 0.34 0 0 Z " fill="#4BB9BE" transform="translate(240,141)"/>
<path d="M0 0 C2 1 4 2 6 3 C6 3.66 6 4.32 6 5 C6.66 5 7.32 5 8 5 C9.45442908 7.05821048 10.77143537 9.09283656 12.0625 11.25 C12.42666016 11.83652344 12.79082031 12.42304688 13.16601562 13.02734375 C14.94536126 15.95454822 16.45170881 18.59215935 17 22 C15.35 22 13.7 22 12 22 C12.33 20.35 12.66 18.7 13 17 C12.01 17 11.02 17 10 17 C10.33 15.35 10.66 13.7 11 12 C9.02 12.99 9.02 12.99 7 14 C7 17.3 7 20.6 7 24 C3 19.375 3 19.375 3 16 C2.34 16 1.68 16 1 16 C-0.37482707 14.36739286 -1.70647667 12.69774938 -3 11 C-3.66 10.34 -4.32 9.68 -5 9 C-3.72125 8.9175 -2.4425 8.835 -1.125 8.75 C1.05333418 8.54130069 1.05333418 8.54130069 3 8 C4.5899433 6.07935207 4.5899433 6.07935207 5 4 C3.35 3.67 1.7 3.34 0 3 C0 2.01 0 1.02 0 0 Z " fill="#30B2B5" transform="translate(232,224)"/>
<path d="M0 0 C-1.41519715 2.0343459 -2.54982123 2.90410393 -4.98046875 3.421875 C-6.98176954 3.66273952 -8.9909944 3.83532741 -11 4 C-11 5.32 -11 6.64 -11 8 C-13.90600261 9.25664978 -15.79604584 10 -19 10 C-19.33 12.31 -19.66 14.62 -20 17 C-16.71023192 18.09658936 -15.28696233 17.79953138 -12 17 C-12.39832031 17.50789063 -12.79664063 18.01578125 -13.20703125 18.5390625 C-16.28566175 22.53903498 -18.91595614 26.36879143 -21 31 C-21.99 30.67 -22.98 30.34 -24 30 C-24 28.68 -24 27.36 -24 26 C-23.01 26 -22.02 26 -21 26 C-21.33 24.68 -21.66 23.36 -22 22 C-23.98 21.67 -25.96 21.34 -28 21 C-26.63312778 17.01328937 -24.84804907 14.11505367 -22 11 C-21.34 11 -20.68 11 -20 11 C-20 10.34 -20 9.68 -20 9 C-17.98828125 7.34375 -17.98828125 7.34375 -15.3125 5.5 C-14.44238281 4.8915625 -13.57226562 4.283125 -12.67578125 3.65625 C-8.38081935 0.99776263 -5.07093811 -0.28976789 0 0 Z " fill="#43B6B9" transform="translate(282,214)"/>
<path d="M0 0 C3.18236599 4.77354898 2.33726939 9.88458989 2.3125 15.5 C2.31048584 16.70785156 2.30847168 17.91570312 2.30639648 19.16015625 C2.18489159 30.1377957 1.49811264 41.50566209 -2 52 C-2.66 52 -3.32 52 -4 52 C-3.67 49.03 -3.34 46.06 -3 43 C-3.99 42.67 -4.98 42.34 -6 42 C-6 39 -6 36 -6 33 C-4.68 33 -3.36 33 -2 33 C-0.81537388 26.22075306 -0.66605966 19.43053054 -0.4375 12.5625 C-0.37272461 10.74975586 -0.37272461 10.74975586 -0.30664062 8.90039062 C-0.20110596 5.93369394 -0.09899286 2.96692098 0 0 Z " fill="#46B4B7" transform="translate(372,192)"/>
<path d="M0 0 C2 2 2 2 2.5 4.6875 C1.79525666 9.3564246 -0.74719695 11.72783503 -4 15 C-4.33 14.01 -4.66 13.02 -5 12 C-5.66 12 -6.32 12 -7 12 C-7 10.68 -7 9.36 -7 8 C-8.32 7.67 -9.64 7.34 -11 7 C-11.0825 7.598125 -11.165 8.19625 -11.25 8.8125 C-12.21576779 11.62932273 -13.48868567 12.47799132 -16 14 C-16.66 14 -17.32 14 -18 14 C-14.53238068 6.4868248 -8.86743218 -0.96385132 0 0 Z " fill="#35B3B9" transform="translate(299,125)"/>
<path d="M0 0 C2.3125 -0.1875 2.3125 -0.1875 5 0 C6.02104551 0.97850195 7.0206121 1.97980427 8 3 C9.2684375 3.2475 9.2684375 3.2475 10.5625 3.5 C13 4 13 4 15 7 C15.99 7.33 16.98 7.66 18 8 C18 9.32 18 10.64 18 12 C17.01 12 16.02 12 15 12 C15 12.66 15 13.32 15 14 C14.34 14 13.68 14 13 14 C12.67 14.66 12.34 15.32 12 16 C11.608125 15.566875 11.21625 15.13375 10.8125 14.6875 C9.01616216 12.86118345 9.01616216 12.86118345 6.4375 11.6875 C3.29861897 9.51442852 3.01525659 7.5924464 2 4 C1.34 3.67 0.68 3.34 0 3 C0 2.01 0 1.02 0 0 Z " fill="#32AFB3" transform="translate(335,130)"/>
<path d="M0 0 C2.64237432 3.82403825 1.81676332 7.26216056 1.1328125 11.58984375 C-0.15607196 20.94700825 -0.22988891 30.13338296 -0.125 39.5625 C-0.11492825 41.17121825 -0.10580997 42.77994276 -0.09765625 44.38867188 C-0.07602495 48.25927469 -0.04173842 52.12956397 0 56 C-0.33 56 -0.66 56 -1 56 C-4.61908284 36.6120562 -4.15994483 19.34576287 0 0 Z " fill="#60BBBF" transform="translate(129,179)"/>
<path d="M0 0 C1.65 0.66 3.3 1.32 5 2 C4.67 3.32 4.34 4.64 4 6 C3.34 5.67 2.68 5.34 2 5 C2.33 4.34 2.66 3.68 3 3 C2.34 3 1.68 3 1 3 C1 3.66 1 4.32 1 5 C0.44570313 5.17015625 -0.10859375 5.3403125 -0.6796875 5.515625 C-5.19022781 6.88275567 -5.19022781 6.88275567 -8.4375 10.0625 C-8.623125 10.701875 -8.80875 11.34125 -9 12 C-9.33 12.66 -9.66 13.32 -10 14 C-10.99 14 -11.98 14 -13 14 C-13.33 13.01 -13.66 12.02 -14 11 C-14.33 12.32 -14.66 13.64 -15 15 C-15.66 14.67 -16.32 14.34 -17 14 C-17 14.66 -17 15.32 -17 16 C-19.64 16 -22.28 16 -25 16 C-25 14.68 -25 13.36 -25 12 C-23.35 12.33 -21.7 12.66 -20 13 C-19.93554688 12.37351563 -19.87109375 11.74703125 -19.8046875 11.1015625 C-19 9 -19 9 -16.8203125 8.0234375 C-15.93085938 7.80945313 -15.04140625 7.59546875 -14.125 7.375 C-10.79426712 6.54959972 -8.90928057 5.93952038 -6 4 C-5.01 4 -4.02 4 -3 4 C-3 3.34 -3 2.68 -3 2 C-2.01 2 -1.02 2 0 2 C0 1.34 0 0.68 0 0 Z " fill="#25B2B9" transform="translate(285,241)"/>
<path d="M0 0 C2.2989833 -0.08016702 4.54911828 -0.02238779 6.84619141 0.10009766 C8.04211914 0.13393555 8.04211914 0.13393555 9.26220703 0.16845703 C11.22850474 0.22732822 13.19383631 0.31701011 15.15869141 0.41259766 C15.15869141 0.74259766 15.15869141 1.07259766 15.15869141 1.41259766 C14.06556641 1.47447266 12.97244141 1.53634766 11.84619141 1.60009766 C8.01536425 2.02582096 8.01536425 2.02582096 6.22119141 4.97509766 C5.87056641 5.77947266 5.51994141 6.58384766 5.15869141 7.41259766 C8.78869141 8.07259766 12.41869141 8.73259766 16.15869141 9.41259766 C16.15869141 9.74259766 16.15869141 10.07259766 16.15869141 10.41259766 C13.21966792 10.54741525 10.28679581 10.64659182 7.34619141 10.72509766 C6.09612305 10.78793945 6.09612305 10.78793945 4.82080078 10.85205078 C2.49723542 10.89870872 0.43298834 10.89752849 -1.84130859 10.41259766 C-3.91552734 7.89306641 -3.91552734 7.89306641 -4.84130859 5.41259766 C-3.01351873 0.67526474 -3.01351873 0.67526474 0 0 Z " fill="#32A5AA" transform="translate(296.84130859375,170.58740234375)"/>
<path d="M0 0 C1.65 1.32 3.3 2.64 5 4 C4.67 5.32 4.34 6.64 4 8 C3.01 7.67 2.02 7.34 1 7 C2.3553326 9.53673288 2.3553326 9.53673288 4 12 C4.66 12 5.32 12 6 12 C8.125 16.625 8.125 16.625 7 20 C4.69 20 2.38 20 0 20 C-1.28317892 16.15046324 -1.06643637 13.05261865 -1 9 C-1.66 9 -2.32 9 -3 9 C-3.36923077 3.46153846 -3.36923077 3.46153846 -1.5 1.125 C-1.005 0.75375 -0.51 0.3825 0 0 Z " fill="#28B1B7" transform="translate(360,161)"/>
<path d="M0 0 C-2.48952921 2.66735273 -4.63408134 4.55746343 -8 6 C-7.34 6.33 -6.68 6.66 -6 7 C-6 7.99 -6 8.98 -6 10 C-5.34 9.67 -4.68 9.34 -4 9 C-1.69 9 0.62 9 3 9 C3 23.52 3 38.04 3 53 C2.67 53 2.34 53 2 53 C0.93095964 43.9306328 0.88169117 34.9261867 0.9375 25.8125 C0.94252912 24.36914219 0.94708951 22.92578267 0.95117188 21.48242188 C0.9620562 17.98824495 0.9792415 14.49413388 1 11 C-2.465 12.485 -2.465 12.485 -6 14 C-6.33 13.01 -6.66 12.02 -7 11 C-7.99 10.67 -8.98 10.34 -10 10 C-12 7 -12 7 -12 4 C-7.95460285 0.62883571 -5.25188178 -0.50017922 0 0 Z " fill="#3BABAF" transform="translate(243,266)"/>
<path d="M0 0 C0.99 0 1.98 0 3 0 C2.67 1.65 2.34 3.3 2 5 C2.99 5 3.98 5 5 5 C4.67 6.65 4.34 8.3 4 10 C4.99 9.67 5.98 9.34 7 9 C7.66 10.65 8.32 12.3 9 14 C7.824375 13.9071875 7.824375 13.9071875 6.625 13.8125 C5.325625 13.9053125 5.325625 13.9053125 4 14 C3.01 15.485 3.01 15.485 2 17 C-0.8203125 17.29296875 -0.8203125 17.29296875 -4.125 17.1875 C-5.22070312 17.16042969 -6.31640625 17.13335937 -7.4453125 17.10546875 C-8.28835937 17.07066406 -9.13140625 17.03585938 -10 17 C-10.33 17.99 -10.66 18.98 -11 20 C-11.66 20 -12.32 20 -13 20 C-13 20.99 -13 21.98 -13 23 C-14.98 22.67 -16.96 22.34 -19 22 C-19 21.67 -19 21.34 -19 21 C-17.35 21 -15.7 21 -14 21 C-13.67 19.35 -13.34 17.7 -13 16 C-8.38 16 -3.76 16 1 16 C0.34 14.68 -0.32 13.36 -1 12 C-1.484375 9.4921875 -1.484375 9.4921875 -1.75 6.875 C-1.84796875 6.00617188 -1.9459375 5.13734375 -2.046875 4.2421875 C-2 2 -2 2 0 0 Z " fill="#27AFB6" transform="translate(240,236)"/>
<path d="M0 0 C0.33 0 0.66 0 1 0 C1 11.88 1 23.76 1 36 C-0.32 36.66 -1.64 37.32 -3 38 C-2.67 26.12 -2.34 14.24 -2 2 C-1.34 2 -0.68 2 0 2 C0 1.34 0 0.68 0 0 Z " fill="#72C0C2" transform="translate(210,326)"/>
<path d="M0 0 C3.3 1.65 6.6 3.3 10 5 C10 5.66 10 6.32 10 7 C10.66 7.33 11.32 7.66 12 8 C10.68 8 9.36 8 8 8 C7.855625 8.78375 7.71125 9.5675 7.5625 10.375 C7 13 7 13 6 15 C3.69 14.67 1.38 14.34 -1 14 C-1 19.61 -1 25.22 -1 31 C-4.14040799 24.71918402 -3.11923294 18.71539762 -2 12 C-1.01 12 -0.02 12 1 12 C1.185625 10.7934375 1.185625 10.7934375 1.375 9.5625 C1.58125 8.716875 1.7875 7.87125 2 7 C2.66 6.67 3.32 6.34 4 6 C4 5.34 4 4.68 4 4 C3.01 4 2.02 4 1 4 C0.67 2.68 0.34 1.36 0 0 Z " fill="#4CC0C2" transform="translate(257,263)"/>
<path d="M0 0 C0.99 0.495 0.99 0.495 2 1 C2 12.55 2 24.1 2 36 C10.58 36 19.16 36 28 36 C28 36.33 28 36.66 28 37 C18.76 37.33 9.52 37.66 0 38 C0 25.46 0 12.92 0 0 Z " fill="#3AAEB2" transform="translate(290,326)"/>
<path d="M0 0 C3.88862987 1.26117725 5.89375599 2.45264167 8 6 C8 6.66 8 7.32 8 8 C8.33 8.66 8.66 9.32 9 10 C9.99 10.33 10.98 10.66 12 11 C12 11.66 12 12.32 12 13 C5.56532663 14.3611809 5.56532663 14.3611809 2.75 12.5625 C1.88375 11.7890625 1.88375 11.7890625 1 11 C0.01 11 -0.98 11 -2 11 C-2.24042276 6.91281305 -1.42258812 3.82320557 0 0 Z " fill="#2BB1B5" transform="translate(232,195)"/>
<path d="M0 0 C9.57 0 19.14 0 29 0 C29 11.22 29 22.44 29 34 C28.34 34 27.68 34 27 34 C26.10137551 22.82940631 26.09370697 12.17761403 27 1 C18.09 1 9.18 1 0 1 C0 0.67 0 0.34 0 0 Z " fill="#2CA2A6" transform="translate(218,328)"/>
<path d="M0 0 C-1.8125 1.0625 -1.8125 1.0625 -4 2 C-4.99 1.67 -5.98 1.34 -7 1 C-9.20068604 0.86025103 -11.40496254 0.77455791 -13.609375 0.71875 C-14.92164063 0.68136719 -16.23390625 0.64398438 -17.5859375 0.60546875 C-18.9739462 0.56983687 -20.3619673 0.53468461 -21.75 0.5 C-24.45330619 0.43174758 -27.15627464 0.35795246 -29.859375 0.28125 C-31.66100098 0.23581055 -31.66100098 0.23581055 -33.49902344 0.18945312 C-37.04792131 -0.00259323 -40.49100063 -0.44565216 -44 -1 C-44 -1.33 -44 -1.66 -44 -2 C-28.97642102 -4.0931728 -14.83006325 -2.9449771 0 0 Z " fill="#5FBDC1" transform="translate(278,87)"/>
<path d="M0 0 C0.99 0.33 1.98 0.66 3 1 C2.34 1 1.68 1 1 1 C0.67 1.66 0.34 2.32 0 3 C0 2.01 0 1.02 0 0 Z M3 5 C3 5.99 3 6.98 3 8 C1.1875 9.5625 1.1875 9.5625 -1 11 C-1.99 11.66 -2.98 12.32 -4 13 C-6.0625 13.75 -6.0625 13.75 -8 14 C-8.66 13.34 -9.32 12.68 -10 12 C-9.6730244 9.38419521 -9.17960932 7.35921863 -8 5 C-3.62829957 2.75507275 -1.29795956 2.85102022 3 5 Z " fill="#26B2B9" transform="translate(271,219)"/>
<path d="M0 0 C0 1.32 0 2.64 0 4 C-0.66 4 -1.32 4 -2 4 C-1.67 5.65 -1.34 7.3 -1 9 C-2.65 9.33 -4.3 9.66 -6 10 C-6 10.66 -6 11.32 -6 12 C-7.65 12 -9.3 12 -11 12 C-10.67 12.99 -10.34 13.98 -10 15 C-11.32 14.34 -12.64 13.68 -14 13 C-12.84826645 10.53199953 -11.95216435 8.95216435 -10 7 C-10 6.34 -10 5.68 -10 5 C-9.34 5 -8.68 5 -8 5 C-7.67 3.68 -7.34 2.36 -7 1 C-2.25 0 -2.25 0 0 0 Z " fill="#25B4BA" transform="translate(214,284)"/>
<path d="M0 0 C1.39456452 0.00667256 2.78911118 0.01863093 4.18359375 0.03515625 C4.89451172 0.03966797 5.60542969 0.04417969 6.33789062 0.04882812 C8.09899388 0.06064761 9.86005411 0.07858362 11.62109375 0.09765625 C11.62109375 0.42765625 11.62109375 0.75765625 11.62109375 1.09765625 C4.99609375 2.22265625 4.99609375 2.22265625 1.62109375 1.09765625 C1.62109375 2.74765625 1.62109375 4.39765625 1.62109375 6.09765625 C2.53632813 6.14664063 3.4515625 6.195625 4.39453125 6.24609375 C5.58304688 6.32085937 6.7715625 6.395625 7.99609375 6.47265625 C9.77113281 6.57707031 9.77113281 6.57707031 11.58203125 6.68359375 C14.62109375 7.09765625 14.62109375 7.09765625 16.62109375 9.09765625 C10.02109375 9.09765625 3.42109375 9.09765625 -3.37890625 9.09765625 C-4.74514299 6.36518277 -4.50733225 4.11566723 -4.37890625 1.09765625 C-3.37890625 0.09765625 -3.37890625 0.09765625 0 0 Z " fill="#2AB2B9" transform="translate(188.37890625,171.90234375)"/>
<path d="M0 0 C4.47238653 1.41807378 8.71146306 3.11304374 13 5 C9.94736336 5.98120464 8.05263664 5.98120464 5 5 C5.33 5.99 5.66 6.98 6 8 C5.34964186 9.34136367 4.6837045 10.67532254 4 12 C4.33 12.66 4.66 13.32 5 14 C0.31479085 12.78184562 -3.70543612 11.30440013 -8 9 C-8 8.34 -8 7.68 -8 7 C-5.03 7 -2.06 7 1 7 C0.67 4.69 0.34 2.38 0 0 Z " fill="#4AB7BB" transform="translate(295,93)"/>
<path d="M0 0 C0.66 0.33 1.32 0.66 2 1 C2 1.66 2 2.32 2 3 C2.99 3.33 3.98 3.66 5 4 C4.01 4.495 4.01 4.495 3 5 C2.31210423 6.78406473 2.31210423 6.78406473 1.875 8.875 C1.62363281 9.92300781 1.62363281 9.92300781 1.3671875 10.9921875 C0.91005209 13.15165752 0.91005209 13.15165752 1 16 C0.34 16 -0.32 16 -1 16 C-1 15.34 -1 14.68 -1 14 C-1.59425781 13.75121094 -2.18851563 13.50242188 -2.80078125 13.24609375 C-5.31884001 11.81934287 -6.49732092 10.39572921 -8.1875 8.0625 C-8.69667969 7.37285156 -9.20585937 6.68320313 -9.73046875 5.97265625 C-11 4 -11 4 -12 1 C-11.01 1.33 -10.02 1.66 -9 2 C-8.3125 4.0625 -8.3125 4.0625 -8 6 C-4.535 5.505 -4.535 5.505 -1 5 C-0.67 3.35 -0.34 1.7 0 0 Z " fill="#48BCBF" transform="translate(230,191)"/>
<path d="M0 0 C1.20462891 -0.02416992 1.20462891 -0.02416992 2.43359375 -0.04882812 C7.11521782 -0.05268449 10.38196633 0.17862671 14.125 3.3125 C15.125 6.3125 15.125 6.3125 14.125 9.3125 C13.465 9.3125 12.805 9.3125 12.125 9.3125 C12.021875 8.673125 11.91875 8.03375 11.8125 7.375 C11.585625 6.694375 11.35875 6.01375 11.125 5.3125 C10.135 4.9825 9.145 4.6525 8.125 4.3125 C8.125 3.6525 8.125 2.9925 8.125 2.3125 C-0.29 2.8075 -0.29 2.8075 -8.875 3.3125 C-8.875 5.9525 -8.875 8.5925 -8.875 11.3125 C-9.865 10.6525 -10.855 9.9925 -11.875 9.3125 C-12.25 5.8125 -12.25 5.8125 -11.875 2.3125 C-7.82801203 -0.38549198 -4.74798435 -0.01887116 0 0 Z " fill="#56B6B7" transform="translate(193.875,169.6875)"/>
<path d="M0 0 C0 0.66 0 1.32 0 2 C0.99 2 1.98 2 3 2 C3 3.32 3 4.64 3 6 C3.66 6.33 4.32 6.66 5 7 C4.34 8.32 3.68 9.64 3 11 C-1.455 9.02 -1.455 9.02 -6 7 C-6 5.68 -6 4.36 -6 3 C-6.99 2.67 -7.98 2.34 -9 2 C-5.62902617 0.50178941 -3.79557881 0 0 0 Z " fill="#27B1B8" transform="translate(158,276)"/>
<path d="M0 0 C2 3 2 3 2 5 C3.32 5 4.64 5 6 5 C6.66 6.98 7.32 8.96 8 11 C5.69 12.98 3.38 14.96 1 17 C0.19032562 14.08517222 -0.21845993 12.53886783 0.9375 9.6875 C1.288125 9.130625 1.63875 8.57375 2 8 C0.68 7.34 -0.64 6.68 -2 6 C-2 6.66 -2 7.32 -2 8 C-3.65 8.33 -5.3 8.66 -7 9 C-6.57847656 8.51789063 -6.15695312 8.03578125 -5.72265625 7.5390625 C-5.17480469 6.90742188 -4.62695312 6.27578125 -4.0625 5.625 C-3.51722656 4.99851562 -2.97195313 4.37203125 -2.41015625 3.7265625 C-0.93041376 2.04367666 -0.93041376 2.04367666 0 0 Z " fill="#4EBCC2" transform="translate(334,283)"/>
<path d="M0 0 C0.99 0.33 1.98 0.66 3 1 C3 3.64 3 6.28 3 9 C3.66 9 4.32 9 5 9 C5 9.99 5 10.98 5 12 C4.01 12 3.02 12 2 12 C1.67 12.99 1.34 13.98 1 15 C0.01 15 -0.98 15 -2 15 C-4.52197309 7.33183857 -4.52197309 7.33183857 -3.2421875 4.06640625 C-2.125 2.4375 -2.125 2.4375 0 0 Z " fill="#27B1B7" transform="translate(251,117)"/>
<path d="M0 0 C-3.21248778 1.07082926 -3.88530648 0.95213765 -6.99609375 0.1015625 C-12.34595903 -1.18847594 -17.57796019 -1.44180034 -23.0625 -1.625 C-24.02349609 -1.66367188 -24.98449219 -1.70234375 -25.97460938 -1.7421875 C-28.31612867 -1.8353823 -30.65803662 -1.91872639 -33 -2 C-33 0.97 -33 3.94 -33 7 C-35 3 -35 3 -34.125 -0.75 C-33.75375 -1.8225 -33.3825 -2.895 -33 -4 C-21.38303294 -6.05005301 -10.92256308 -4.23126318 0 0 Z " fill="#5AB7BD" transform="translate(226,219)"/>
<path d="M0 0 C0.66 0 1.32 0 2 0 C2 0.66 2 1.32 2 2 C3.36125 1.9071875 3.36125 1.9071875 4.75 1.8125 C8.28982642 2.01672076 9.44931155 2.64551835 12 5 C11.67 5.66 11.34 6.32 11 7 C8.525 6.01 8.525 6.01 6 5 C5.67 6.98 5.34 8.96 5 11 C2.625 10.6875 2.625 10.6875 0 10 C-2 7 -2 7 -2 3 C-1.34 3 -0.68 3 0 3 C0 2.01 0 1.02 0 0 Z " fill="#2AB0B4" transform="translate(314,105)"/>
<path d="M0 0 C1.32 0.66 2.64 1.32 4 2 C3.51781006 2.99906372 3.51781006 2.99906372 3.02587891 4.01831055 C1.79013652 7.60996257 1.64825122 10.95226317 1.5859375 14.70703125 C1.56657135 15.43242599 1.5472052 16.15782074 1.5272522 16.90519714 C1.46777892 19.20751422 1.42120155 21.50988219 1.375 23.8125 C1.33679042 25.37957832 1.29773697 26.94663631 1.2578125 28.51367188 C1.16210437 32.34228152 1.07795552 36.17098942 1 40 C0.67 40 0.34 40 0 40 C-0.01981934 39.34628418 -0.03963867 38.69256836 -0.06005859 38.01904297 C-0.44573406 25.90116234 -0.83231376 13.95384257 -3 2 C-2.01 2 -1.02 2 0 2 C0 1.34 0 0.68 0 0 Z " fill="#52B7BB" transform="translate(363,179)"/>
<path d="M0 0 C1.65 0 3.3 0 5 0 C3.68 0.33 2.36 0.66 1 1 C2.32 4.3 3.64 7.6 5 11 C3.02 12.65 1.04 14.3 -1 16 C-1.66 15.67 -2.32 15.34 -3 15 C-3.33 16.32 -3.66 17.64 -4 19 C-4.67408308 17.73308493 -5.33900497 16.46129251 -6 15.1875 C-6.37125 14.47980469 -6.7425 13.77210938 -7.125 13.04296875 C-8 11 -8 11 -8 8 C-7.34 8 -6.68 8 -6 8 C-6 8.66 -6 9.32 -6 10 C-5.34 10 -4.68 10 -4 10 C-4 10.66 -4 11.32 -4 12 C-3.34 12 -2.68 12 -2 12 C-1.67 11.34 -1.34 10.68 -1 10 C-0.34 10 0.32 10 1 10 C0.67 9.01 0.34 8.02 0 7 C-0.03954234 4.66700175 -0.04401732 2.33291811 0 0 Z " fill="#46B8BD" transform="translate(203,224)"/>
<path d="M0 0 C1.32 0 2.64 0 4 0 C3.34 2.64 2.68 5.28 2 8 C0.68 8.33 -0.64 8.66 -2 9 C-2 8.34 -2 7.68 -2 7 C-9.425 6.01 -9.425 6.01 -17 5 C-17 4.34 -17 3.68 -17 3 C-15.94039062 2.95101563 -14.88078125 2.90203125 -13.7890625 2.8515625 C-12.40101503 2.77653291 -11.01299549 2.70098515 -9.625 2.625 C-8.57699219 2.57859375 -8.57699219 2.57859375 -7.5078125 2.53125 C-3.29814173 2.40500502 -3.29814173 2.40500502 0 0 Z " fill="#4DBBBE" transform="translate(245,256)"/>
<path d="M0 0 C0.99 0.33 1.98 0.66 3 1 C4.12029814 6.48946087 3.79217969 9.83430559 2 15 C1.01 14.67 0.02 14.34 -1 14 C-2.125 11.75 -2.125 11.75 -3 9 C-3.28875 8.154375 -3.5775 7.30875 -3.875 6.4375 C-4 4 -4 4 -2.0625 1.6875 C-1.381875 1.130625 -0.70125 0.57375 0 0 Z " fill="#29B0B4" transform="translate(271,148)"/>
<path d="M0 0 C0.33 0.66 0.66 1.32 1 2 C1.99 2 2.98 2 4 2 C4 2.66 4 3.32 4 4 C4.66 4.33 5.32 4.66 6 5 C5.34 5 4.68 5 4 5 C4.33 6.98 4.66 8.96 5 11 C4.278125 10.690625 3.55625 10.38125 2.8125 10.0625 C0.19692691 9.07439461 -2.25118982 8.4712246 -5 8 C-5 7.34 -5 6.68 -5 6 C-5.66 6 -6.32 6 -7 6 C-5.47764564 2.95529127 -2.81575514 1.79729052 0 0 Z " fill="#25B1B5" transform="translate(287,283)"/>
<path d="M0 0 C1.134375 0.020625 2.26875 0.04125 3.4375 0.0625 C3.1075 3.3625 2.7775 6.6625 2.4375 10.0625 C1.1175 9.0725 -0.2025 8.0825 -1.5625 7.0625 C-2.5525 8.5475 -2.5525 8.5475 -3.5625 10.0625 C-4.2225 9.4025 -4.8825 8.7425 -5.5625 8.0625 C-6.5525 8.3925 -7.5425 8.7225 -8.5625 9.0625 C-8.5625 8.4025 -8.5625 7.7425 -8.5625 7.0625 C-7.9025 7.0625 -7.2425 7.0625 -6.5625 7.0625 C-6.253125 6.093125 -5.94375 5.12375 -5.625 4.125 C-4.21956052 0.07402738 -4.21956052 0.07402738 0 0 Z " fill="#27B1B5" transform="translate(150.5625,141.9375)"/>
<path d="M0 0 C1.65 0.33 3.3 0.66 5 1 C5.33 1.99 5.66 2.98 6 4 C5.4225 4.103125 4.845 4.20625 4.25 4.3125 C1.67950842 5.09792798 0.06342716 6.30504197 -2 8 C-1.34 8.33 -0.68 8.66 0 9 C0 9.99 0 10.98 0 12 C-1.98 12.66 -3.96 13.32 -6 14 C-5.67 11.36 -5.34 8.72 -5 6 C-5.66 5.67 -6.32 5.34 -7 5 C-6.34 5 -5.68 5 -5 5 C-5 4.34 -5 3.68 -5 3 C-3.35 2.67 -1.7 2.34 0 2 C0 1.34 0 0.68 0 0 Z " fill="#24B2B7" transform="translate(332,289)"/>
<path d="M0 0 C3.08089673 2.77280706 4.68775452 5.06326356 6 9 C2.535 10.485 2.535 10.485 -1 12 C-1 11.34 -1 10.68 -1 10 C-1.66 10 -2.32 10 -3 10 C-3.75 7.25 -3.75 7.25 -4 4 C-2.0625 1.625 -2.0625 1.625 0 0 Z " fill="#26B2B9" transform="translate(225,187)"/>
<path d="M0 0 C0 1.98 0 3.96 0 6 C0.99 5.67 1.98 5.34 3 5 C3.309375 6.134375 3.61875 7.26875 3.9375 8.4375 C4.62924531 11.78775099 4.62924531 11.78775099 6 13 C6.14115161 15.67058851 6.04247107 18.32432238 6 21 C6.66 21 7.32 21 8 21 C8 22.98 8 24.96 8 27 C6.47012727 23.9961403 5.06440285 20.95172754 3.6875 17.875 C1.26198983 12.51144627 -1.3268716 7.24388167 -4 2 C-1 0 -1 0 0 0 Z " fill="#55BBBC" transform="translate(351,149)"/>
<path d="M0 0 C2.0625 0.4375 2.0625 0.4375 4 1 C4 1.66 4 2.32 4 3 C5.32 3.33 6.64 3.66 8 4 C8 4.99 8 5.98 8 7 C7.030625 7.12375 6.06125 7.2475 5.0625 7.375 C3.5465625 7.684375 3.5465625 7.684375 2 8 C1.67 8.66 1.34 9.32 1 10 C0.01 10 -0.98 10 -2 10 C-2.33 10.66 -2.66 11.32 -3 12 C-2.69230293 10.18667846 -2.37870936 8.37435655 -2.0625 6.5625 C-1.80146484 5.04849609 -1.80146484 5.04849609 -1.53515625 3.50390625 C-1 1 -1 1 0 0 Z " fill="#25B1B8" transform="translate(229,273)"/>
<path d="M0 0 C2.39614126 -0.05425226 4.79103853 -0.09379027 7.1875 -0.125 C8.19780273 -0.15013672 8.19780273 -0.15013672 9.22851562 -0.17578125 C13.28807807 -0.21538674 16.34998815 0.19979998 20 2 C20.3125 4.8125 20.3125 4.8125 20 8 C17.5 9.875 17.5 9.875 15 11 C14.01 10.34 13.02 9.68 12 9 C13.32 8.67 14.64 8.34 16 8 C16.33 6.68 16.66 5.36 17 4 C16.01 4.33 15.02 4.66 14 5 C14 4.34 14 3.68 14 3 C11.36 3 8.72 3 6 3 C6 2.67 6 2.34 6 2 C3.03 1.505 3.03 1.505 0 1 C0 0.67 0 0.34 0 0 Z " fill="#5ABCBE" transform="translate(298,170)"/>
<path d="M0 0 C1.98 0.495 1.98 0.495 4 1 C4 1.66 4 2.32 4 3 C4.8353125 3.12375 4.8353125 3.12375 5.6875 3.25 C8.69714206 4.22610013 10.62154752 5.95188814 13 8 C11.35 8 9.7 8 8 8 C8 7.34 8 6.68 8 6 C7.34 6 6.68 6 6 6 C6 6.99 6 7.98 6 9 C5.34 9 4.68 9 4 9 C4.99 11.64 5.98 14.28 7 17 C6.34 17 5.68 17 5 17 C5 16.34 5 15.68 5 15 C2.525 14.01 2.525 14.01 0 13 C0 10 0 10 2 7.9375 C2.66 7.298125 3.32 6.65875 4 6 C4 5.34 4 4.68 4 4 C3.34 4 2.68 4 2 4 C2 3.34 2 2.68 2 2 C1.34 2 0.68 2 0 2 C0 1.34 0 0.68 0 0 Z " fill="#57BBBE" transform="translate(308,99)"/>
<path d="M0 0 C2.3125 -0.1875 2.3125 -0.1875 5 0 C6.02104551 0.97850195 7.0206121 1.97980427 8 3 C10.60611077 3.72197162 10.60611077 3.72197162 13 4 C12.01 5.98 11.02 7.96 10 10 C6.79424013 9.65652573 6.02483241 9.0292146 3.875 6.5 C3.25625 5.675 2.6375 4.85 2 4 C1.34 3.67 0.68 3.34 0 3 C0 2.01 0 1.02 0 0 Z " fill="#24B4BA" transform="translate(335,130)"/>
<path d="M0 0 C1.70884005 1.62339805 3.37446717 3.29319053 5 5 C5 5.66 5 6.32 5 7 C5.763125 7.268125 6.52625 7.53625 7.3125 7.8125 C9.87380884 8.94424112 11.19692938 9.91223401 13 12 C0.7016129 10.52419355 0.7016129 10.52419355 -3 6 C-2.34 5.67 -1.68 5.34 -1 5 C-0.34444881 2.47266765 -0.34444881 2.47266765 0 0 Z " fill="#4CBBBF" transform="translate(208,235)"/>
<path d="M0 0 C0.99 0 1.98 0 3 0 C3 0.66 3 1.32 3 2 C-5.96773406 7.60483379 -13.56611471 8.31301656 -24 8 C-24 7.34 -24 6.68 -24 6 C-20.04 6 -16.08 6 -12 6 C-11.67 5.01 -11.34 4.02 -11 3 C-9.9275 3.020625 -8.855 3.04125 -7.75 3.0625 C-4.85209576 3.0142016 -2.71387859 2.86844115 0 2 C0 1.34 0 0.68 0 0 Z " fill="#64BDC0" transform="translate(268,205)"/>
<path d="M0 0 C0.928125 0.144375 1.85625 0.28875 2.8125 0.4375 C7.85405316 1.16364963 12.92629204 1.5687807 18 2 C18.33 1.34 18.66 0.68 19 0 C19.66 0.66 20.32 1.32 21 2 C20.67 2.66 20.34 3.32 20 4 C16.40533783 4.3181117 12.82995917 4.38020437 9.22265625 4.4609375 C8.15917969 4.63882813 7.09570312 4.81671875 6 5 C4.47645258 6.91629768 4.47645258 6.91629768 4 9 C3.71125 8.030625 3.4225 7.06125 3.125 6.0625 C2.35785318 2.89335797 2.35785318 2.89335797 0 2 C0 1.34 0 0.68 0 0 Z " fill="#4DBABD" transform="translate(221,248)"/>
<path d="M0 0 C0 0.66 0 1.32 0 2 C-0.66 2 -1.32 2 -2 2 C-2 2.66 -2 3.32 -2 4 C-2.66 4 -3.32 4 -4 4 C-4 4.66 -4 5.32 -4 6 C-10.43487859 7.33554084 -10.43487859 7.33554084 -13 5.8125 C-14 4 -14 4 -13.6875 1.8125 C-13.460625 1.214375 -13.23375 0.61625 -13 0 C-12.67 1.65 -12.34 3.3 -12 5 C-10.35 5 -8.7 5 -7 5 C-7.33 3.02 -7.66 1.04 -8 -1 C-4.59745511 -2.2151946 -3.06748874 -1.86240388 0 0 Z " fill="#52BBBD" transform="translate(293,140)"/>
<path d="M0 0 C1.24652344 -0.01675781 2.49304688 -0.03351563 3.77734375 -0.05078125 C7.0625 0.3125 7.0625 0.3125 9.0546875 1.4453125 C10.60104908 4.31027698 9.89004324 6.36715679 9.25 9.5 C9.03730469 10.58667969 8.82460938 11.67335937 8.60546875 12.79296875 C8.42628906 13.62441406 8.24710937 14.45585937 8.0625 15.3125 C7.7325 15.3125 7.4025 15.3125 7.0625 15.3125 C6.7325 11.3525 6.4025 7.3925 6.0625 3.3125 C1.1125 2.9825 -3.8375 2.6525 -8.9375 2.3125 C-6.07413629 -0.55086371 -3.98521654 0.01233813 0 0 Z " fill="#5EB8BC" transform="translate(297.9375,210.6875)"/>
<path d="M0 0 C0.66 0.66 1.32 1.32 2 2 C1.34 2 0.68 2 0 2 C1.3089572 5.12197478 1.3089572 5.12197478 4 7 C3.01 7.66 2.02 8.32 1 9 C-0.19232613 11.05003955 -0.19232613 11.05003955 -1 13 C-1.99 12.67 -2.98 12.34 -4 12 C-3.67 9.69 -3.34 7.38 -3 5 C-3.66 4.67 -4.32 4.34 -5 4 C-4.67 3.01 -4.34 2.02 -4 1 C-2.0625 0.1875 -2.0625 0.1875 0 0 Z " fill="#2AB1B6" transform="translate(176,112)"/>
<path d="M0 0 C0.66 0 1.32 0 2 0 C2 8.25 2 16.5 2 25 C1.01 24.67 0.02 24.34 -1 24 C-0.67 16.08 -0.34 8.16 0 0 Z " fill="#6DC4C7" transform="translate(255,337)"/>
<path d="M0 0 C-1.41519715 2.0343459 -2.54982123 2.90410393 -4.98046875 3.421875 C-6.98176954 3.66273952 -8.9909944 3.83532741 -11 4 C-11 5.32 -11 6.64 -11 8 C-13.90600261 9.25664978 -15.79604584 10 -19 10 C-19 10.66 -19 11.32 -19 12 C-19.99 12.33 -20.98 12.66 -22 13 C-22 12.34 -22 11.68 -22 11 C-21.34 11 -20.68 11 -20 11 C-20 10.34 -20 9.68 -20 9 C-17.98828125 7.34375 -17.98828125 7.34375 -15.3125 5.5 C-14.44238281 4.8915625 -13.57226562 4.283125 -12.67578125 3.65625 C-8.38081935 0.99776263 -5.07093811 -0.28976789 0 0 Z " fill="#4BB5B8" transform="translate(282,214)"/>
<path d="M0 0 C3.63 0 7.26 0 11 0 C11 1.32 11 2.64 11 4 C15.455 3.505 15.455 3.505 20 3 C17 6 17 6 13.3125 6.1875 C11.6728125 6.0946875 11.6728125 6.0946875 10 6 C10 5.34 10 4.68 10 4 C9.34 3.67 8.68 3.34 8 3 C7.34 2.34 6.68 1.68 6 1 C6 1.66 6 2.32 6 3 C4.35 3 2.7 3 1 3 C0.67 2.01 0.34 1.02 0 0 Z M13 2 C13.66 2 14.32 2 15 2 C14.67 2.66 14.34 3.32 14 4 C13.67 3.34 13.34 2.68 13 2 Z " fill="#22B3B8" transform="translate(247,203)"/>
<path d="M0 0 C0.33 0 0.66 0 1 0 C1.40946417 10.89629657 -0.23037191 18.68491342 -6 28 C-6.66 26.68 -7.32 25.36 -8 24 C-7.01 24 -6.02 24 -5 24 C-4.34 20.7 -3.68 17.4 -3 14 C-2.34 14 -1.68 14 -1 14 C-1.01160156 13.32453125 -1.02320313 12.6490625 -1.03515625 11.953125 C-1.04417969 11.06109375 -1.05320312 10.1690625 -1.0625 9.25 C-1.07410156 8.36828125 -1.08570313 7.4865625 -1.09765625 6.578125 C-1.00826198 4.2181162 -0.66912821 2.25501476 0 0 Z " fill="#5FBDBF" transform="translate(285,171)"/>
<path d="M0 0 C0.99 0 1.98 0 3 0 C2.54979057 5.85272256 -0.03839227 10.08220119 -3 15 C-3.33 15 -3.66 15 -4 15 C-4 12.03 -4 9.06 -4 6 C-3.34 6 -2.68 6 -2 6 C-1.7834375 5.071875 -1.7834375 5.071875 -1.5625 4.125 C-1 2 -1 2 0 0 Z " fill="#57BCC1" transform="translate(302,226)"/>
<path d="M0 0 C0.33 1.65 0.66 3.3 1 5 C-0.65 5.66 -2.3 6.32 -4 7 C-4 6.34 -4 5.68 -4 5 C-4.99 4.67 -5.98 4.34 -7 4 C-7.6875 1.9375 -7.6875 1.9375 -8 0 C-5.13822943 -1.43088528 -3.06624227 -0.59991697 0 0 Z " fill="#26B1B6" transform="translate(278,276)"/>
<path d="M0 0 C0.99 0.99 1.98 1.98 3 3 C2.443125 3.226875 1.88625 3.45375 1.3125 3.6875 C-1.63246684 5.35896766 -3.68156544 7.55276352 -6 10 C-8.79872437 7.47211993 -10.45773019 5.79588866 -11 2 C-10.01 2.33 -9.02 2.66 -8 3 C-8 3.66 -8 4.32 -8 5 C-6.35 4.67 -4.7 4.34 -3 4 C-3.33 3.01 -3.66 2.02 -4 1 C-2.68 1.33 -1.36 1.66 0 2 C0 1.34 0 0.68 0 0 Z " fill="#45B7BC" transform="translate(353,140)"/>
<path d="M0 0 C2.31 0.66 4.62 1.32 7 2 C6.67 3.32 6.34 4.64 6 6 C5.01 6 4.02 6 3 6 C3 7.32 3 8.64 3 10 C2.01 9.67 1.02 9.34 0 9 C-1.125 3.375 -1.125 3.375 0 0 Z " fill="#26B2B7" transform="translate(255,234)"/>
<path d="M0 0 C0.99 0 1.98 0 3 0 C1.00306281 5.37636935 -0.96882466 9.91637641 -6 13 C-6.66 13 -7.32 13 -8 13 C-7.40312566 9.65750371 -6.26396123 7.53563658 -4 5 C-3.34 5 -2.68 5 -2 5 C-1.34 3.35 -0.68 1.7 0 0 Z " fill="#4CB9BA" transform="translate(344,271)"/>
<path d="M0 0 C1.41791408 0.45445964 2.83428046 0.91374944 4.25 1.375 C5.43335938 1.75785156 5.43335938 1.75785156 6.640625 2.1484375 C8.86627958 2.95173667 10.90931672 3.89711662 13 5 C10.6875 7.0625 10.6875 7.0625 8 9 C5 8 5 8 3 6 C2.34 5.67 1.68 5.34 1 5 C0.375 2.4375 0.375 2.4375 0 0 Z " fill="#24B3B9" transform="translate(205,242)"/>
<path d="M0 0 C0.99 0.33 1.98 0.66 3 1 C3 1.66 3 2.32 3 3 C3.99 3.33 4.98 3.66 6 4 C3.81008568 6.51840147 2.3092617 7.51334387 -1 8 C-2.66623639 8.03786901 -4.33397597 8.04627845 -6 8 C-5.34 7.01 -4.68 6.02 -4 5 C-3.34 5 -2.68 5 -2 5 C-1.34 3.35 -0.68 1.7 0 0 Z " fill="#23B3B7" transform="translate(191,297)"/>
<path d="M0 0 C0 3 0 3 0 3 Z M-2 3 C-1.01 3.33 -0.02 3.66 1 4 C4.35357089 4.26914008 7.70674598 4.44505804 11.06640625 4.62109375 C14 5 14 5 16 7 C9.4 7 2.8 7 -4 7 C-3.34 5.68 -2.68 4.36 -2 3 Z " fill="#36A0A6" transform="translate(189,174)"/>
<path d="M0 0 C0.33 0.66 0.66 1.32 1 2 C1.66 2 2.32 2 3 2 C4.79083852 4.30166787 6.47259242 6.60238901 8.125 9 C8.82689453 10.00160156 8.82689453 10.00160156 9.54296875 11.0234375 C10.70126236 12.67814266 11.85139765 14.33855307 13 16 C12.01 16 11.02 16 10 16 C9.67 15.01 9.34 14.02 9 13 C6.98491642 12.26676204 6.98491642 12.26676204 5 12 C5 11.01 5 10.02 5 9 C3.64594139 7.39588754 3.64594139 7.39588754 2 6 C1.34 5.34 0.68 4.68 0 4 C0 2.68 0 1.36 0 0 Z " fill="#71C5C7" transform="translate(339,121)"/>
<path d="M0 0 C0.639375 0.804375 1.27875 1.60875 1.9375 2.4375 C3.40603502 4.2750504 3.40603502 4.2750504 5 6 C5.25 8.4375 5.25 8.4375 5 11 C1.77208445 13.1519437 0.71599191 13.20086443 -3 13 C-1.68 12.34 -0.36 11.68 1 11 C0.835 9.9275 0.67 8.855 0.5 7.75 C0 4 0 4 0 0 Z " fill="#63BFC2" transform="translate(216,134)"/>
<path d="M0 0 C3.20825562 -0.05849554 6.41637233 -0.09376162 9.625 -0.125 C10.52863281 -0.14175781 11.43226563 -0.15851563 12.36328125 -0.17578125 C17.32750152 -0.21201643 21.34411907 0.03555854 26 2 C22.16512671 4.5565822 20.83697791 3.94088407 16.375 3.1875 C15.13234375 2.98769531 13.8896875 2.78789062 12.609375 2.58203125 C10.82273438 2.29392578 10.82273438 2.29392578 9 2 C6.00248059 1.62731376 3.00470865 1.31083193 0 1 C0 0.67 0 0.34 0 0 Z " fill="#6ABEC2" transform="translate(240,141)"/>
<path d="M0 0 C2.72226766 2.72226766 3.78896139 5.36688418 5 9 C3.92745123 11.51698632 2.45196548 13.66805545 1 16 C-0.2380014 12.42355152 0.25073929 9.66305234 1 6 C0.34 6 -0.32 6 -1 6 C-1.625 4.125 -1.625 4.125 -2 2 C-1.34 1.34 -0.68 0.68 0 0 Z " fill="#25B0B9" transform="translate(153,136)"/>
<path d="M0 0 C0.33 0.66 0.66 1.32 1 2 C0.0625 4.625 0.0625 4.625 -1 7 C-1.66 7 -2.32 7 -3 7 C-2.95875 7.928125 -2.9175 8.85625 -2.875 9.8125 C-3 13 -3 13 -5 16 C-5.66 16 -6.32 16 -7 16 C-6.71601983 9.32646591 -3.92194468 5.28922815 0 0 Z " fill="#4FB7BC" transform="translate(223,152)"/>
<path d="M0 0 C1.32 0.33 2.64 0.66 4 1 C4 1.66 4 2.32 4 3 C5.423125 3.12375 5.423125 3.12375 6.875 3.25 C10 4 10 4 11.3125 5.8125 C11.95768702 7.8653678 12.54907535 9.89568499 13 12 C12.34 12 11.68 12 11 12 C10.443125 11.29875 9.88625 10.5975 9.3125 9.875 C6.9085998 6.88636732 4.34930157 4.64606935 1.390625 2.234375 C0.93171875 1.82703125 0.4728125 1.4196875 0 1 C0 0.67 0 0.34 0 0 Z " fill="#5BBDC2" transform="translate(161,296)"/>
<path d="M0 0 C0.66 0.33 1.32 0.66 2 1 C1.67 1.66 1.34 2.32 1 3 C0.34 3 -0.32 3 -1 3 C-1 3.66 -1 4.32 -1 5 C-0.34 5.33 0.32 5.66 1 6 C-3.54250956 7.61511451 -6.3133416 8.56221947 -11 7 C-9.21475351 5.80286983 -7.4215972 4.61752721 -5.625 3.4375 C-4.62726563 2.77621094 -3.62953125 2.11492187 -2.6015625 1.43359375 C-1.74304688 0.96050781 -0.88453125 0.48742187 0 0 Z " fill="#52BCC0" transform="translate(205,286)"/>
<path d="M0 0 C1.32 0.66 2.64 1.32 4 2 C3.34 2 2.68 2 2 2 C2 2.66 2 3.32 2 4 C1.34 4 0.68 4 0 4 C0.33 4.99 0.66 5.98 1 7 C0.0625 9.1875 0.0625 9.1875 -1 11 C-3.475 10.01 -3.475 10.01 -6 9 C-5.34 8.67 -4.68 8.34 -4 8 C-2.99983813 5.99967627 -2.50603992 4.16874252 -2 2 C-1.34 2 -0.68 2 0 2 C0 1.34 0 0.68 0 0 Z " fill="#45B9C0" transform="translate(226,220)"/>
<path d="M0 0 C1.32 0.33 2.64 0.66 4 1 C4.33 2.98 4.66 4.96 5 7 C3.3125 7.6875 3.3125 7.6875 1 8 C-1.75 6.5625 -1.75 6.5625 -4 5 C-3 3 -3 3 0 2 C0 1.34 0 0.68 0 0 Z " fill="#27AFB2" transform="translate(287,91)"/>
<path d="M0 0 C0.33 0 0.66 0 1 0 C1.33 7.59 1.66 15.18 2 23 C1.01 23 0.02 23 -1 23 C-1.66 21.02 -2.32 19.04 -3 17 C-2.34 16.67 -1.68 16.34 -1 16 C-0.68758545 13.28553021 -0.48663408 10.66090639 -0.375 7.9375 C-0.33632812 7.17888672 -0.29765625 6.42027344 -0.2578125 5.63867188 C-0.16326438 3.75952805 -0.08053244 1.87979664 0 0 Z " fill="#64C1C5" transform="translate(255,295)"/>
<path d="M0 0 C0 1.32 0 2.64 0 4 C-0.66 4 -1.32 4 -2 4 C-2 4.66 -2 5.32 -2 6 C-5.75 7.125 -5.75 7.125 -8 6 C-7.67 4.35 -7.34 2.7 -7 1 C-2.25 0 -2.25 0 0 0 Z " fill="#2CB0B4" transform="translate(214,284)"/>
<path d="M0 0 C0.99 0.33 1.98 0.66 3 1 C2.67 2.65 2.34 4.3 2 6 C0.68 6 -0.64 6 -2 6 C-2.99 7.98 -3.98 9.96 -5 12 C-5.66 12 -6.32 12 -7 12 C-5.66749209 8.4124787 -4.169283 5.1635377 -2 2 C-1.34 2 -0.68 2 0 2 C0 1.34 0 0.68 0 0 Z " fill="#55B9BD" transform="translate(149,137)"/>
<path d="M0 0 C0.33 0.99 0.66 1.98 1 3 C-0.65 3 -2.3 3 -4 3 C-3.67 3.66 -3.34 4.32 -3 5 C-3.66 5.66 -4.32 6.32 -5 7 C-5.99 6.67 -6.98 6.34 -8 6 C-8.33 6.66 -8.66 7.32 -9 8 C-9.22223194 5.25913944 -9.34781139 3.56036279 -7.875 1.1875 C-5.22464043 -0.49106106 -3.06753576 -0.20450238 0 0 Z " fill="#5EBABB" transform="translate(209,125)"/>
<path d="M0 0 C1.67542976 0.28604898 3.34385343 0.61781233 5 1 C3.79618552 3.49361571 2.54571278 5.68143083 1 8 C-0.32 8 -1.64 8 -3 8 C-1.125 1.125 -1.125 1.125 0 0 Z " fill="#24B1B7" transform="translate(160,126)"/>
<path d="M0 0 C0.99 0.33 1.98 0.66 3 1 C3.6875 3.0625 3.6875 3.0625 4 5 C5.65 5.33 7.3 5.66 9 6 C9 6.66 9 7.32 9 8 C9.66 8 10.32 8 11 8 C10.67 8.99 10.34 9.98 10 11 C7.14073687 10.65191579 6.18144409 10.2164012 4.296875 7.96875 C3.78640625 7.1540625 3.2759375 6.339375 2.75 5.5 C2.22921875 4.6853125 1.7084375 3.870625 1.171875 3.03125 C0 1 0 1 0 0 Z " fill="#4FB7BA" transform="translate(218,192)"/>
<path d="M0 0 C1.32 0.33 2.64 0.66 4 1 C4.33 2.98 4.66 4.96 5 7 C3.35 7.33 1.7 7.66 0 8 C-1.125 6.25 -1.125 6.25 -2 4 C-1.125 1.75 -1.125 1.75 0 0 Z " fill="#41B1B4" transform="translate(294,172)"/>
<path d="M0 0 C0.94875 0.350625 1.8975 0.70125 2.875 1.0625 C2.545 2.0525 2.215 3.0425 1.875 4.0625 C-1.60323115 5.22191038 -3.58395578 4.77070884 -7.125 4.0625 C-4.65909091 -1.39772727 -4.65909091 -1.39772727 0 0 Z " fill="#25B2B6" transform="translate(311.125,300.9375)"/>
<path d="M0 0 C2.64 0 5.28 0 8 0 C8 0.66 8 1.32 8 2 C8.66 2.33 9.32 2.66 10 3 C9.01 3 8.02 3 7 3 C7 3.66 7 4.32 7 5 C5.02 5 3.04 5 1 5 C0.67 3.35 0.34 1.7 0 0 Z " fill="#25B1B6" transform="translate(277,218)"/>
<path d="M0 0 C1.65 0.33 3.3 0.66 5 1 C5 2.32 5 3.64 5 5 C5.66 5 6.32 5 7 5 C6.67 5.66 6.34 6.32 6 7 C5.34 6.67 4.68 6.34 4 6 C4 5.34 4 4.68 4 4 C2.576875 4.99 2.576875 4.99 1.125 6 C-2 8 -2 8 -4 8 C-2.66666667 5.33333333 -1.33333333 2.66666667 0 0 Z " fill="#27ACB1" transform="translate(351,143)"/>
<path d="M0 0 C-3.76706948 3.76706948 -5.54662512 5.28869023 -11 6 C-11.33 5.01 -11.66 4.02 -12 3 C-7.89542386 0.01485372 -5.02254631 -0.2954439 0 0 Z " fill="#3CB1B7" transform="translate(240,144)"/>
<path d="M0 0 C3.3 1.65 6.6 3.3 10 5 C10 5.66 10 6.32 10 7 C10.66 7.33 11.32 7.66 12 8 C9.69 8 7.38 8 5 8 C4.67 6.68 4.34 5.36 4 4 C3.01 4 2.02 4 1 4 C0.67 2.68 0.34 1.36 0 0 Z " fill="#50B7B9" transform="translate(257,263)"/>
<path d="M0 0 C2.475 0.495 2.475 0.495 5 1 C4.67 4.96 4.34 8.92 4 13 C1.12420019 8.68630028 0 5.19265239 0 0 Z " fill="#51B9BE" transform="translate(129,235)"/>
<path d="M0 0 C0.66 0.99 1.32 1.98 2 3 C2.66 2.34 3.32 1.68 4 1 C4.66 1 5.32 1 6 1 C6 2.98 6 4.96 6 7 C5.01 7 4.02 7 3 7 C2.01 7.495 2.01 7.495 1 8 C0.67 7.34 0.34 6.68 0 6 C-0.66 5.67 -1.32 5.34 -2 5 C-1.34 3.35 -0.68 1.7 0 0 Z " fill="#3AB8BF" transform="translate(294,224)"/>
<path d="M0 0 C9.405 1.485 9.405 1.485 19 3 C17.02 3.99 17.02 3.99 15 5 C14.01 4.67 13.02 4.34 12 4 C9.94106379 3.77674186 7.87766347 3.59294241 5.8125 3.4375 C4.18248047 3.31181641 4.18248047 3.31181641 2.51953125 3.18359375 C1.68808594 3.12300781 0.85664063 3.06242187 0 3 C0 2.01 0 1.02 0 0 Z " fill="#7AC6C9" transform="translate(259,84)"/>
<path d="M0 0 C0.99 0.33 1.98 0.66 3 1 C3 2.65 3 4.3 3 6 C2.01 6.33 1.02 6.66 0 7 C0.66 7.66 1.32 8.32 2 9 C0.68 9 -0.64 9 -2 9 C-1.125 1.125 -1.125 1.125 0 0 Z " fill="#27B0B6" transform="translate(301,293)"/>
<path d="M0 0 C3.09592835 3.5087188 4.74194623 6.49197399 6 11 C4.35 11 2.7 11 1 11 C1.33 9.35 1.66 7.7 2 6 C1.01 6 0.02 6 -1 6 C-0.67 4.02 -0.34 2.04 0 0 Z " fill="#52B9BC" transform="translate(243,235)"/>
<path d="M0 0 C0.33 0.66 0.66 1.32 1 2 C1.66 2 2.32 2 3 2 C7 6.47058824 7 6.47058824 7 9 C4.625 9.1875 4.625 9.1875 2 9 C-0.29013653 5.5647952 -0.17842973 4.014669 0 0 Z " fill="#51B7BC" transform="translate(274,149)"/>
<path d="M0 0 C0.33 0 0.66 0 1 0 C1 1.65 1 3.3 1 5 C-0.875 6.0625 -0.875 6.0625 -3 7 C-3.66 6.67 -4.32 6.34 -5 6 C-5 6.66 -5 7.32 -5 8 C-5.66 8 -6.32 8 -7 8 C-7 6.68 -7 5.36 -7 4 C-6.01 4 -5.02 4 -4 4 C-2.62689293 2.70766393 -1.28965176 1.37562854 0 0 Z " fill="#2BAFB4" transform="translate(207,235)"/>
<path d="M0 0 C0.53625 0.37125 1.0725 0.7425 1.625 1.125 C-4 5.125 -4 5.125 -7.375 5.125 C-7.705 3.805 -8.035 2.485 -8.375 1.125 C-2.95961538 -1.09038462 -2.95961538 -1.09038462 0 0 Z " fill="#38AFB1" transform="translate(195.375,303.875)"/>
<path d="M0 0 C4.29 0 8.58 0 13 0 C13 0.33 13 0.66 13 1 C6.85221129 2.6277833 1.35987804 3.20190089 -5 3 C-5 2.67 -5 2.34 -5 2 C-3.35 2 -1.7 2 0 2 C0 1.34 0 0.68 0 0 Z " fill="#3BACAF" transform="translate(224,95)"/>
<path d="M0 0 C4.30764815 1.56641751 8.06171464 3.68336156 12 6 C11.34 6.66 10.68 7.32 10 8 C8.68 8 7.36 8 6 8 C5.67 7.01 5.34 6.02 5 5 C4.34 4.67 3.68 4.34 3 4 C1 3 1 3 0 0 Z " fill="#5ABABD" transform="translate(298,289)"/>
<path d="M0 0 C0.66 0 1.32 0 2 0 C2 0.66 2 1.32 2 2 C2.66 2 3.32 2 4 2 C4 2.66 4 3.32 4 4 C4.9590625 4.433125 4.9590625 4.433125 5.9375 4.875 C8 6 8 6 9 8 C5.21472479 7.48847632 3.55891312 6.79154158 1 4 C0.01 3.67 -0.98 3.34 -2 3 C-1 1 -1 1 0 0 Z " fill="#68C0C5" transform="translate(170,289)"/>
<path d="M0 0 C2 1 2 1 3 3 C2.01 3 1.02 3 0 3 C0 3.66 0 4.32 0 5 C-6.96428571 7.27678571 -6.96428571 7.27678571 -11 6 C-10.28972656 5.65066406 -9.57945312 5.30132812 -8.84765625 4.94140625 C-7.92855469 4.48636719 -7.00945312 4.03132812 -6.0625 3.5625 C-4.68771484 2.88380859 -4.68771484 2.88380859 -3.28515625 2.19140625 C-1.09471096 1.19474606 -1.09471096 1.19474606 0 0 Z " fill="#65C0C2" transform="translate(282,240)"/>
<path d="M0 0 C2 1 4 2 6 3 C6 3.66 6 4.32 6 5 C6.66 5 7.32 5 8 5 C8.33 5.99 8.66 6.98 9 8 C7.02 8.66 5.04 9.32 3 10 C3.66 8.02 4.32 6.04 5 4 C3.35 3.67 1.7 3.34 0 3 C0 2.01 0 1.02 0 0 Z " fill="#51B6BB" transform="translate(232,224)"/>
<path d="M0 0 C-0.33 0.99 -0.66 1.98 -1 3 C-7.27 3 -13.54 3 -20 3 C-20 2.67 -20 2.34 -20 2 C-19.01257813 1.93941406 -18.02515625 1.87882813 -17.0078125 1.81640625 C-15.72648438 1.73261719 -14.44515625 1.64882812 -13.125 1.5625 C-11.84882813 1.48128906 -10.57265625 1.40007812 -9.2578125 1.31640625 C-5.64633226 0.96565097 -3.73217997 0 0 0 Z " fill="#7BD0D2" transform="translate(263,199)"/>
<path d="M0 0 C1.875 0.1875 1.875 0.1875 4 1 C5.25 3.5625 5.25 3.5625 6 6 C5.34 6.66 4.68 7.32 4 8 C2 6.25 2 6.25 0 4 C0 2.68 0 1.36 0 0 Z " fill="#46B7B8" transform="translate(201,131)"/>
<path d="M0 0 C1.98 0 3.96 0 6 0 C5.67 0.99 5.34 1.98 5 3 C4.34 3 3.68 3 3 3 C3 3.66 3 4.32 3 5 C2.34 5 1.68 5 1 5 C1 5.66 1 6.32 1 7 C0.34 7 -0.32 7 -1 7 C-0.67 4.69 -0.34 2.38 0 0 Z " fill="#4BBAB6" transform="translate(169,124)"/>
<path d="M0 0 C0.99 0 1.98 0 3 0 C3.33 1.65 3.66 3.3 4 5 C0.535 6.485 0.535 6.485 -3 8 C-1.125 2.25 -1.125 2.25 0 0 Z " fill="#56BABB" transform="translate(139,152)"/>
<path d="M0 0 C0.66 0.33 1.32 0.66 2 1 C-2.12208259 8.80251346 -2.12208259 8.80251346 -6 11 C-6.66 11 -7.32 11 -8 11 C-6.63629701 8.00779732 -5.05091917 5.70973471 -2.875 3.25 C-2.33617187 2.63640625 -1.79734375 2.0228125 -1.2421875 1.390625 C-0.62730469 0.70226562 -0.62730469 0.70226562 0 0 Z " fill="#5FBCBC" transform="translate(289,128)"/>
<path d="M0 0 C-0.33 1.65 -0.66 3.3 -1 5 C-2.32 5 -3.64 5 -5 5 C-5.33 3.35 -5.66 1.7 -6 0 C-3.50907189 -1.24546405 -2.58919267 -0.7767578 0 0 Z " fill="#25B3B8" transform="translate(211,130)"/>
<path d="M0 0 C0.66 0.99 1.32 1.98 2 3 C1.67 3.99 1.34 4.98 1 6 C1.66 6.33 2.32 6.66 3 7 C0.525 8.485 0.525 8.485 -2 10 C-3.39195915 5.82412255 -1.82323219 3.86525224 0 0 Z " fill="#53BAC0" transform="translate(253,235)"/>
<path d="M0 0 C1.32 0.99 2.64 1.98 4 3 C3.67 4.32 3.34 5.64 3 7 C1.68 7.33 0.36 7.66 -1 8 C-1.93065133 5.39417629 -2.14917407 4.35801776 -1.0625 1.75 C-0.711875 1.1725 -0.36125 0.595 0 0 Z " fill="#25B2BA" transform="translate(214,138)"/>
<path d="M0 0 C3.3 0 6.6 0 10 0 C6.7895201 2.40785992 4.64991166 3.68197635 1 5 C0.67 3.35 0.34 1.7 0 0 Z " fill="#49BABA" transform="translate(236,275)"/>
<path d="M0 0 C2 3 2 3 1.8125 5.125 C1.544375 5.74375 1.27625 6.3625 1 7 C0.01 7.33 -0.98 7.66 -2 8 C-2 7.34 -2 6.68 -2 6 C-2.66 5.67 -3.32 5.34 -4 5 C-3.34 5 -2.68 5 -2 5 C-2 3.68 -2 2.36 -2 1 C-1.34 0.67 -0.68 0.34 0 0 Z " fill="#28AFB1" transform="translate(294,229)"/>
<path d="M0 0 C0.70125 0.45375 1.4025 0.9075 2.125 1.375 C5.02984591 3.01686943 7.8139348 4.03677099 11 5 C11 5.33 11 5.66 11 6 C6.12335991 6.34833144 3.22949995 5.41685712 -1 3 C-0.67 2.01 -0.34 1.02 0 0 Z M9 3 C11 4 11 4 11 4 Z " fill="#50B8BB" transform="translate(232,205)"/>
<path d="M0 0 C1.68252622 2.57327539 2.0150238 3.82347033 1.75 6.9375 C1.05517575 9.77469901 0.1774665 12.33107593 -1 15 C-1.33 15 -1.66 15 -2 15 C-1.03644647 4.44191344 -1.03644647 4.44191344 0 0 Z " fill="#67BCC0" transform="translate(129,179)"/>
<path d="M0 0 C1.98 0 3.96 0 6 0 C2.80009492 2.74277578 -0.00499382 4.6302836 -4 6 C-4 5.01 -4 4.02 -4 3 C-3.01 3 -2.02 3 -1 3 C-0.67 2.01 -0.34 1.02 0 0 Z " fill="#5DBEBD" transform="translate(231,280)"/>
<path d="M0 0 C0.66 0.33 1.32 0.66 2 1 C1.4375 2.9375 1.4375 2.9375 0 5 C-3.625 5.75 -3.625 5.75 -7 6 C-7 5.34 -7 4.68 -7 4 C-1.7265625 0.77734375 -1.7265625 0.77734375 0 0 Z " fill="#5BBFC0" transform="translate(216,279)"/>
<path d="M0 0 C0.66 0 1.32 0 2 0 C1.82374165 2.37948772 1.30280227 3.70225849 -0.40234375 5.37890625 C-1.90649092 6.62115486 -3.45129851 7.81376056 -5 9 C-5 7.35 -5 5.7 -5 4 C-3.35 3.67 -1.7 3.34 0 3 C0 2.01 0 1.02 0 0 Z " fill="#5CBEC2" transform="translate(295,240)"/>
<path d="M0 0 C-2.4453385 2.96527758 -4.44602347 3.55582214 -8.1875 4.1875 C-9.08855469 4.34605469 -9.98960937 4.50460938 -10.91796875 4.66796875 C-11.94857422 4.83232422 -11.94857422 4.83232422 -13 5 C-9.15304156 0.94179239 -5.60773394 -0.32044194 0 0 Z " fill="#5ABDC0" transform="translate(282,214)"/>
<path d="M0 0 C2.56616632 3.84924948 2.55097676 6.4349304 3 11 C1.68 10.34 0.36 9.68 -1 9 C-1.125 2.25 -1.125 2.25 0 0 Z " fill="#56BABE" transform="translate(368,170)"/>
<path d="M0 0 C1.5625 1.75 1.5625 1.75 3 4 C2.8125 6.1875 2.8125 6.1875 2 8 C1.01 8.495 1.01 8.495 0 9 C-2 6 -2 6 -1.6875 3.9375 C-1 2 -1 2 0 0 Z " fill="#48B7BD" transform="translate(362,155)"/>
<path d="M0 0 C0.66 0.33 1.32 0.66 2 1 C0.38405168 3.04119788 -1.2856382 5.04072937 -3 7 C-3.66 7 -4.32 7 -5 7 C-5.33 7.66 -5.66 8.32 -6 9 C-5.69381595 5.32579134 -5.24228216 4.21864487 -2.4375 1.6875 C-1.633125 1.130625 -0.82875 0.57375 0 0 Z " fill="#62BBC1" transform="translate(215,319)"/>
<path d="M0 0 C1 3 1 3 1 6 C0.2575 5.95875 -0.485 5.9175 -1.25 5.875 C-4.08758952 6.00398134 -5.58773938 6.57051222 -8 8 C-6.71937515 6.2925002 -5.38232443 4.62626404 -4 3 C-3.34 3 -2.68 3 -2 3 C-2 2.34 -2 1.68 -2 1 C-1.34 0.67 -0.68 0.34 0 0 Z " fill="#60BDC4" transform="translate(326,292)"/>
<path d="M0 0 C1 3.875 1 3.875 1 5 C1.33 5.99 1.66 6.98 2 8 C-1.37503669 6.8141763 -3.64722731 5.72426311 -6 3 C-4.02 2.67 -2.04 2.34 0 2 C0 1.34 0 0.68 0 0 Z " fill="#58BEC3" transform="translate(281,284)"/>
<path d="M0 0 C1.98 0 3.96 0 6 0 C6.625 1.8125 6.625 1.8125 7 4 C6.01 5.485 6.01 5.485 5 7 C2 3.25 2 3.25 2 1 C1.34 0.67 0.68 0.34 0 0 Z " fill="#62C4C4" transform="translate(151,284)"/>
<path d="M0 0 C0.33 0 0.66 0 1 0 C1.66 4.29 2.32 8.58 3 13 C-0.54091616 9.45908384 -0.65205706 7.87120122 -1 3 C-0.67 2.01 -0.34 1.02 0 0 Z " fill="#56B5B9" transform="translate(138,225)"/>
<path d="M0 0 C0.66 0.33 1.32 0.66 2 1 C1.67 1.66 1.34 2.32 1 3 C1.66 3.33 2.32 3.66 3 4 C-0.27185553 5.07310858 -2.42947592 4.89263102 -5.75 4.0625 C-6.54921875 3.86785156 -7.3484375 3.67320312 -8.171875 3.47265625 C-8.77515625 3.31667969 -9.3784375 3.16070312 -10 3 C-10 2.67 -10 2.34 -10 2 C-9.04287109 1.90912109 -9.04287109 1.90912109 -8.06640625 1.81640625 C-6.82697266 1.69072266 -6.82697266 1.69072266 -5.5625 1.5625 C-4.73878906 1.48128906 -3.91507813 1.40007812 -3.06640625 1.31640625 C-1.01337975 1.21069185 -1.01337975 1.21069185 0 0 Z " fill="#4BBABE" transform="translate(218,223)"/>
<path d="M0 0 C1.32 0 2.64 0 4 0 C4 0.99 4 1.98 4 3 C5.32 3.66 6.64 4.32 8 5 C7.67 6.32 7.34 7.64 7 9 C6.34 7.68 5.68 6.36 5 5 C4.34 5 3.68 5 3 5 C1.375 2.5 1.375 2.5 0 0 Z " fill="#77CACB" transform="translate(331,130)"/>
<path d="M0 0 C1.32 0.66 2.64 1.32 4 2 C3.01 3.98 2.02 5.96 1 8 C0.896875 7.360625 0.79375 6.72125 0.6875 6.0625 C0.460625 5.381875 0.23375 4.70125 0 4 C-0.99 3.67 -1.98 3.34 -3 3 C-2.01 2.67 -1.02 2.34 0 2 C0 1.34 0 0.68 0 0 Z " fill="#4BBABF" transform="translate(352,272)"/>
<path d="M0 0 C2.53833449 1.26916725 2.89400901 2.41624809 4.125 4.9375 C4.47820312 5.64777344 4.83140625 6.35804688 5.1953125 7.08984375 C6 9 6 9 6 11 C4.68 11.33 3.36 11.66 2 12 C2.33 10.02 2.66 8.04 3 6 C2.34 6 1.68 6 1 6 C0.67 4.02 0.34 2.04 0 0 Z " fill="#61BCC4" transform="translate(148,257)"/>
<path d="M0 0 C3.63 0.33 7.26 0.66 11 1 C7.68620328 2.65689836 5.57608127 3.54152804 2 4 C1.01 3.67 0.02 3.34 -1 3 C-0.67 2.01 -0.34 1.02 0 0 Z " fill="#69C5C9" transform="translate(257,257)"/>
<path d="M0 0 C3 3.75 3 3.75 3 6 C-0.77545388 4.90931332 -3.47043472 4.0916909 -6 1 C-4.02 0.67 -2.04 0.34 0 0 Z " fill="#5BBEC2" transform="translate(217,252)"/>
<path d="M0 0 C0.66 0.33 1.32 0.66 2 1 C0.71937515 2.7074998 -0.61767557 4.37373596 -2 6 C-2.66 6 -3.32 6 -4 6 C-4 5.34 -4 4.68 -4 4 C-4.66 3.67 -5.32 3.34 -6 3 C-4.03533587 1.93224776 -2.03144641 0.93446535 0 0 Z " fill="#28AEB1" transform="translate(199,292)"/>
<path d="M0 0 C2.475 0.495 2.475 0.495 5 1 C4.67 2.65 4.34 4.3 4 6 C3.01 6 2.02 6 1 6 C0.67 4.02 0.34 2.04 0 0 Z " fill="#38B1B8" transform="translate(193,226)"/>
<path d="M0 0 C0.99 0.33 1.98 0.66 3 1 C3.33 1.99 3.66 2.98 4 4 C2.125 5.0625 2.125 5.0625 0 6 C-0.66 5.67 -1.32 5.34 -2 5 C-1.34 3.35 -0.68 1.7 0 0 Z " fill="#25B2BA" transform="translate(348,270)"/>
<path d="M0 0 C1.98 0 3.96 0 6 0 C6.66 1.32 7.32 2.64 8 4 C4 4 4 4 2 3 C2 2.34 2 1.68 2 1 C1.34 0.67 0.68 0.34 0 0 Z " fill="#59BBC3" transform="translate(203,247)"/>
<path d="M0 0 C0.99 0.66 1.98 1.32 3 2 C2.01 3.32 1.02 4.64 0 6 C-1.32 5.67 -2.64 5.34 -4 5 C-2.68 3.35 -1.36 1.7 0 0 Z " fill="#40B2B4" transform="translate(287,236)"/>
<path d="M0 0 C4.3177458 0.50797009 8.03302114 1.19682779 12 3 C8.70303895 4.09898702 7.59505097 3.87124444 4.3125 3.0625 C3.10013672 2.77052734 3.10013672 2.77052734 1.86328125 2.47265625 C0.94095703 2.23869141 0.94095703 2.23869141 0 2 C0 1.34 0 0.68 0 0 Z " fill="#69C3C2" transform="translate(214,216)"/>
<path d="M0 0 C2.8125 -0.3125 2.8125 -0.3125 6 0 C7.875 2.5 7.875 2.5 9 5 C8.01 5 7.02 5 6 5 C6 4.34 6 3.68 6 3 C3.69 2.67 1.38 2.34 -1 2 C-0.67 1.34 -0.34 0.68 0 0 Z " fill="#44B5B8" transform="translate(205,127)"/>
<path d="M0 0 C0.7425 0.185625 1.485 0.37125 2.25 0.5625 C4.94990963 0.99203108 6.44631077 0.85122974 9 0 C8.67 0.99 8.34 1.98 8 3 C4.71303767 3.79953138 3.28976808 4.09658936 0 3 C0 2.01 0 1.02 0 0 Z " fill="#66BDC1" transform="translate(179,298)"/>
<path d="M0 0 C2.64 0 5.28 0 8 0 C8 0.66 8 1.32 8 2 C4.535 3.485 4.535 3.485 1 5 C0.67 3.35 0.34 1.7 0 0 Z " fill="#58BABD" transform="translate(207,293)"/>
<path d="M0 0 C1.32 0 2.64 0 4 0 C6.09230769 4.43076923 6.09230769 4.43076923 5.625 7.3125 C5.41875 7.869375 5.2125 8.42625 5 9 C2 4.375 2 4.375 2 1 C1.34 0.67 0.68 0.34 0 0 Z " fill="#65C0C0" transform="translate(233,239)"/>
<path d="M0 0 C0.33 1.32 0.66 2.64 1 4 C-0.65 5.32 -2.3 6.64 -4 8 C-4.33 6.35 -4.66 4.7 -5 3 C-4.34 3.66 -3.68 4.32 -3 5 C-2.01 3.35 -1.02 1.7 0 0 Z " fill="#3DBAC0" transform="translate(135,172)"/>
<path d="M0 0 C3 1 3 1 4.6875 4.0625 C5.120625 5.031875 5.55375 6.00125 6 7 C4.68 6.34 3.36 5.68 2 5 C2 4.34 2 3.68 2 3 C0.68 2.67 -0.64 2.34 -2 2 C-1.34 1.34 -0.68 0.68 0 0 Z " fill="#59BBBF" transform="translate(346,131)"/>
<path d="M0 0 C1.32 0 2.64 0 4 0 C4.33 0.99 4.66 1.98 5 3 C3.02 3.99 3.02 3.99 1 5 C0.34 3.68 -0.32 2.36 -1 1 C-0.67 0.67 -0.34 0.34 0 0 Z " fill="#23B3BE" transform="translate(308,103)"/>
<path d="M0 0 C1.65 0.33 3.3 0.66 5 1 C3.35 2.98 1.7 4.96 0 7 C-0.93423645 3.98968256 -1.04449911 3.13349732 0 0 Z " fill="#5CBDC3" transform="translate(328,301)"/>
<path d="M0 0 C1.3125 1.75 1.3125 1.75 2.3125 4.75 C-1.06253669 3.5641763 -3.33472731 2.47426311 -5.6875 -0.25 C-2.1493016 -1.59207526 -2.1493016 -1.59207526 0 0 Z " fill="#5CBDC2" transform="translate(288.6875,292.25)"/>
<path d="M0 0 C0.99 0.495 0.99 0.495 2 1 C2.59355614 3.64860427 2.74209269 6.29197322 3 9 C2.01 8.34 1.02 7.68 0 7 C-0.1875 3.375 -0.1875 3.375 0 0 Z " fill="#33AAAD" transform="translate(140,239)"/>
<path d="M0 0 C0.99 0.33 1.98 0.66 3 1 C0.375 5.875 0.375 5.875 -3 7 C-3 6.34 -3 5.68 -3 5 C-2.34 5 -1.68 5 -1 5 C-1.33 4.01 -1.66 3.02 -2 2 C-1.34 1.34 -0.68 0.68 0 0 Z " fill="#5ABCBC" transform="translate(275,198)"/>
<path d="M0 0 C3.875 1.875 3.875 1.875 5 3 C5.07179964 4.51928038 5.08392007 6.04167482 5.0625 7.5625 C5.05347656 8.38878906 5.04445313 9.21507812 5.03515625 10.06640625 C5.01775391 11.02353516 5.01775391 11.02353516 5 12 C4.67 12 4.34 12 4 12 C3.71125 10.7625 3.4225 9.525 3.125 8.25 C2.38665206 5.27551258 1.55525067 2.666144 0 0 Z " fill="#6AC2C4" transform="translate(270,162)"/>
<path d="M0 0 C0.66 0 1.32 0 2 0 C1.34 1.65 0.68 3.3 0 5 C-2.31 4.67 -4.62 4.34 -7 4 C-7 3.67 -7 3.34 -7 3 C-5.5459375 2.814375 -5.5459375 2.814375 -4.0625 2.625 C-2.5465625 2.315625 -2.5465625 2.315625 -1 2 C-0.67 1.34 -0.34 0.68 0 0 Z " fill="#62B7B9" transform="translate(253,129)"/>
<path d="M0 0 C2.875 -0.125 2.875 -0.125 6 0 C8 2 8 2 8.125 5.125 C8.08375 6.07375 8.0425 7.0225 8 8 C5 4.375 5 4.375 5 1 C3.35 1 1.7 1 0 1 C0 0.67 0 0.34 0 0 Z " fill="#9DD7DC" transform="translate(293,125)"/>
<path d="M0 0 C0.33 0.66 0.66 1.32 1 2 C0.67 2.99 0.34 3.98 0 5 C-0.66 5 -1.32 5 -2 5 C-2 5.66 -2 6.32 -2 7 C-3.32 6.67 -4.64 6.34 -6 6 C-4.02 4.02 -2.04 2.04 0 0 Z " fill="#57BABF" transform="translate(165,118)"/>
<path d="M0 0 C1.32 0.33 2.64 0.66 4 1 C2.35 2.98 0.7 4.96 -1 7 C-1.625 5.125 -1.625 5.125 -2 3 C-1.34 2.34 -0.68 1.68 0 1 C0 0.67 0 0.34 0 0 Z " fill="#4FBABC" transform="translate(345,284)"/>
<path d="M0 0 C1.32 1.32 2.64 2.64 4 4 C3.67 4.99 3.34 5.98 3 7 C1.68 6.34 0.36 5.68 -1 5 C-0.67 3.35 -0.34 1.7 0 0 Z " fill="#58BDC2" transform="translate(154,268)"/>
<path d="M0 0 C0 0.99 0 1.98 0 3 C-0.66 3 -1.32 3 -2 3 C-2.33 3.66 -2.66 4.32 -3 5 C-4.32 3.68 -5.64 2.36 -7 1 C-4.50935112 0.31292445 -2.62113708 0 0 0 Z " fill="#42BAC1" transform="translate(234,232)"/>
<path d="M0 0 C1.65 0 3.3 0 5 0 C3.68 0.33 2.36 0.66 1 1 C1.66 3.31 2.32 5.62 3 8 C2.01 7.67 1.02 7.34 0 7 C0 4.69 0 2.38 0 0 Z " fill="#73C6C9" transform="translate(203,224)"/>
<path d="M0 0 C0.33 0.99 0.66 1.98 1 3 C0.34 3 -0.32 3 -1 3 C-1 4.32 -1 5.64 -1 7 C-2.98 7.33 -4.96 7.66 -7 8 C-5.38405168 5.95880212 -3.7143618 3.95927063 -2 2 C-1.34 2 -0.68 2 0 2 C0 1.34 0 0.68 0 0 Z " fill="#73C3C4" transform="translate(270,190)"/>
<path d="M0 0 C1 2 1 2 0.3125 4.5625 C-0.120625 5.366875 -0.55375 6.17125 -1 7 C-2.32 7.33 -3.64 7.66 -5 8 C-3.35 5.36 -1.7 2.72 0 0 Z " fill="#67BEC0" transform="translate(223,152)"/>
<path d="M0 0 C0.66 1.32 1.32 2.64 2 4 C1.34 4 0.68 4 0 4 C-0.33 4.66 -0.66 5.32 -1 6 C-1.99 5.01 -2.98 4.02 -4 3 C-2.68 2.01 -1.36 1.02 0 0 Z " fill="#24B4BB" transform="translate(348,140)"/>
<path d="M0 0 C0.99 0.33 1.98 0.66 3 1 C2.67 2.65 2.34 4.3 2 6 C0.68 6 -0.64 6 -2 6 C-1.67 5.34 -1.34 4.68 -1 4 C-0.34 4 0.32 4 1 4 C0.67 2.68 0.34 1.36 0 0 Z " fill="#40B2B0" transform="translate(297,129)"/>
<path d="M0 0 C2.89932357 2.39509338 3.50168276 4.31245243 4 8 C3.01 8.495 3.01 8.495 2 9 C0.50178941 5.62902617 0 3.79557881 0 0 Z " fill="#46B5B9" transform="translate(253,328)"/>
<path d="M0 0 C1.98 0.99 3.96 1.98 6 3 C4.68 3.99 3.36 4.98 2 6 C1.34 5.67 0.68 5.34 0 5 C0 3.35 0 1.7 0 0 Z " fill="#55BEBC" transform="translate(310,296)"/>
<path d="M0 0 C0.66 0.33 1.32 0.66 2 1 C1.67 3.31 1.34 5.62 1 8 C0.01 8 -0.98 8 -2 8 C-2 6.68 -2 5.36 -2 4 C-1.34 4 -0.68 4 0 4 C0 2.68 0 1.36 0 0 Z " fill="#1FB5B4" transform="translate(357,250)"/>
<path d="M0 0 C1.45606519 4.52092968 0.27032841 7.51648796 -1 12 C-1.33 12 -1.66 12 -2 12 C-2.05422947 10.5629191 -2.09289723 9.12524538 -2.125 7.6875 C-2.14820313 6.88699219 -2.17140625 6.08648437 -2.1953125 5.26171875 C-2 3 -2 3 0 0 Z " fill="#52B2B9" transform="translate(141,175)"/>
<path d="M0 0 C1.98 0.495 1.98 0.495 4 1 C2.68 3.31 1.36 5.62 0 8 C-0.98120464 4.94736336 -0.98120464 3.05263664 0 0 Z " fill="#59B9BD" transform="translate(154,144)"/>
<path d="M0 0 C0.66 0 1.32 0 2 0 C0.84826645 2.46800047 -0.04783565 4.04783565 -2 6 C-2.66 5.67 -3.32 5.34 -4 5 C-3.67 3.68 -3.34 2.36 -3 1 C-2.01 1.33 -1.02 1.66 0 2 C0 1.34 0 0.68 0 0 Z " fill="#5DC0C5" transform="translate(160,138)"/>
<path d="M0 0 C1.65 0.33 3.3 0.66 5 1 C5 1.66 5 2.32 5 3 C1.25 4.125 1.25 4.125 -1 3 C-0.67 2.01 -0.34 1.02 0 0 Z " fill="#23B2B4" transform="translate(207,136)"/>
<path d="M0 0 C0.66 0.33 1.32 0.66 2 1 C1.67 1.66 1.34 2.32 1 3 C1.99 3.33 2.98 3.66 4 4 C1.36 4.33 -1.28 4.66 -4 5 C-2.68 3.35 -1.36 1.7 0 0 Z " fill="#6DC1C8" transform="translate(170,113)"/>
<path d="M0 0 C2.97 0.495 2.97 0.495 6 1 C3.61426621 2.89213369 1.92824652 4.02391783 -1 5 C-0.67 3.35 -0.34 1.7 0 0 Z " fill="#67C4C3" transform="translate(189,109)"/>
</svg>
