<svg xmlns="http://www.w3.org/2000/svg" width="133.333" height="133.333" version="1.0" viewBox="0 0 100 100"><path d="M42.6 9.1C26 11.8 11.7 26.6 8.9 43.9 5.4 65.8 21.4 87.4 43.8 91c22.1 3.6 43.6-12.3 47.3-34.9C94.6 34.3 78.7 12.6 56.5 9c-6.7-1.1-7-1.1-13.9.1m11.6 15.6c3.8 3.4 1.1 10.3-4 10.3-5.4 0-8.1-6.2-4.5-10.2 2-2.2 6.1-2.3 8.5-.1M50 40c2 0 7.3-1.1 11.8-2.4 6.9-2 8.4-2.1 9.9-1 3 2.2.4 4.5-7.8 6.8l-7.4 2.2-.3 4c-.2 2.6.8 6.9 2.8 12.3 3.4 9.2 3.7 11.9 1.5 12.7-2.4 1-3.9-1-7-9.5-1.6-4.5-3.2-8.1-3.5-8.1s-1.9 3.6-3.5 8.1c-3.1 8.5-4.6 10.5-7 9.5-2.2-.8-1.9-3.5 1.5-12.7 2-5.4 3-9.7 2.8-12.3l-.3-4-7.4-2.2c-8.2-2.3-10.8-4.6-7.8-6.8 1.5-1.1 3-1 9.9 1C42.7 38.9 48 40 50 40"/></svg>