<svg xmlns="http://www.w3.org/2000/svg" viewBox="0 0 96 96">
    <path d="m33.125 55.336 3.575-.015c2.491-.003 4.983.006 7.474.027 3.813.027 7.623 0 11.435-.032 2.422.004 4.844.01 7.266.02l3.454-.03c7.883.116 7.883.116 11.89 3.054C81.355 63.007 80.769 67.617 80 73c-2.748 6.184-8.123 10.017-14.04 13.043-11.045 4.157-26.61 3.619-37.468-.703C23.177 82.483 18.195 78.787 16 73c-.371-2.84-.371-2.84-.438-5.938l-.12-3.09c1.775-9.447 9.907-8.705 17.683-8.636Zm24.64-46.23C62.455 12 66.543 15.528 68 21c.932 6.847 1.159 13.1-2.563 19.125-4.008 4.971-7.361 7.456-13.68 8.316-7.119.36-12.336-.144-17.98-4.695-5.095-5.006-6.046-8.583-6.402-15.621C27.587 21.245 29.176 16.91 34 12c6.473-5.529 15.916-6.032 23.766-2.895Z" fill="currentColor"/>
</svg>
