<?xml version="1.0" encoding="UTF-8"?>
<svg version="1.1" xmlns="http://www.w3.org/2000/svg" width="96" height="96">
<path d="M0 0 C1.76947998 -0.00717545 1.76947998 -0.00717545 3.57470703 -0.01449585 C6.06609431 -0.01789477 8.55752619 -0.00869315 11.04882812 0.01220703 C14.86168899 0.03896907 18.67160568 0.01245507 22.484375 -0.01953125 C24.9062565 -0.01622716 27.32813616 -0.00982094 29.75 0 C31.45953857 -0.01518173 31.45953857 -0.01518173 33.20361328 -0.03067017 C41.08673657 0.08603454 41.08673657 0.08603454 45.09350586 3.02416992 C48.22959134 7.67135264 47.6439988 12.28107087 46.875 17.6640625 C44.12651211 23.84816025 38.75168647 27.68115965 32.8359375 30.70703125 C21.79035998 34.86375919 6.22542366 34.3256688 -4.6328125 30.00390625 C-9.94750948 27.14663185 -14.92988455 23.45118505 -17.125 17.6640625 C-17.49609375 14.82421875 -17.49609375 14.82421875 -17.5625 11.7265625 C-17.60246094 10.70691406 -17.64242188 9.68726562 -17.68359375 8.63671875 C-15.90820201 -0.81134499 -7.77607318 -0.06905621 0 0 Z " fill="#000000" transform="translate(33.125,55.3359375)"/>
<path d="M0 0 C4.68796317 2.8950501 8.77605467 6.42344712 10.234375 11.89453125 C11.16656452 18.74158704 11.3930195 24.99387098 7.671875 31.01953125 C3.66347868 35.99068326 0.31000422 38.47580101 -6.0078125 39.3359375 C-13.1275177 39.69575056 -18.34453314 39.19135672 -23.98828125 34.640625 C-29.08369757 29.63479842 -30.03494232 26.05750776 -30.390625 19.01953125 C-30.17838344 12.13997715 -28.58962241 7.80486419 -23.765625 2.89453125 C-17.29271618 -2.6344117 -7.84970384 -3.13766411 0 0 Z " fill="#000000" transform="translate(57.765625,9.10546875)"/>
</svg>
