<?xml version="1.0" encoding="UTF-8"?>
<svg version="1.1" xmlns="http://www.w3.org/2000/svg" width="96" height="96">
<path d="M0 0 C2.475 0.99 2.475 0.99 5 2 C5 12.89 5 23.78 5 35 C15.89 35 26.78 35 38 35 C38.99 37.475 38.99 37.475 40 40 C39.34 40.99 38.68 41.98 38 43 C35.4482303 43.2668855 33.13532807 43.34868275 30.5859375 43.29296875 C29.61587769 43.28843689 29.61587769 43.28843689 28.6262207 43.28381348 C26.20898494 43.26810979 23.79197655 43.22622554 21.375 43.1875 C15.97125 43.125625 10.5675 43.06375 5 43 C5 53.89 5 64.78 5 76 C2.525 76.99 2.525 76.99 0 78 C-0.99 77.34 -1.98 76.68 -3 76 C-3.2668855 73.4482303 -3.34868275 71.13532807 -3.29296875 68.5859375 C-3.28994751 67.93923096 -3.28692627 67.29252441 -3.28381348 66.6262207 C-3.26810979 64.20898494 -3.22622554 61.79197655 -3.1875 59.375 C-3.125625 53.97125 -3.06375 48.5675 -3 43 C-13.89 43 -24.78 43 -36 43 C-36.66 41.35 -37.32 39.7 -38 38 C-37.34 37.01 -36.68 36.02 -36 35 C-33.44604513 34.73288596 -31.13725626 34.65150971 -28.5859375 34.70703125 C-27.49147812 34.71339851 -27.49147812 34.71339851 -26.37490845 34.71989441 C-24.04123241 34.73670647 -21.7084156 34.77436132 -19.375 34.8125 C-17.79428329 34.82754366 -16.21355307 34.84123262 -14.6328125 34.85351562 C-10.75487656 34.88661799 -6.87758402 34.93841596 -3 35 C-3.01571045 34.01080566 -3.0314209 33.02161133 -3.04760742 32.00244141 C-3.1018346 28.33862423 -3.13632336 24.67484263 -3.16479492 21.01074219 C-3.17989814 19.42376749 -3.20038223 17.83683463 -3.22631836 16.25 C-3.26263595 13.97124927 -3.27971023 11.69304942 -3.29296875 9.4140625 C-3.30845261 8.70255035 -3.32393646 7.99103821 -3.33988953 7.25796509 C-3.34057617 5.25634766 -3.34057617 5.25634766 -3 2 C-2.01 1.34 -1.02 0.68 0 0 Z " fill="#000000" transform="translate(47,9)"/>
</svg>
