<svg xmlns="http://www.w3.org/2000/svg" viewBox="0 0 96 96"><path d="m47 9 5 2v33h33l2 5-2 3c-2.5517697.2668855-4.864672.3486828-7.4140625.2929688-.9700598-.004532-.9700598-.004532-1.9597168-.0091553-2.4172358-.0157037-4.8342442-.057588-7.2512207-.0963135L52 52v33l-5 2-3-2c-.2668855-2.5517697-.3486828-4.864672-.2929688-7.4140625l.0091553-1.9597168c.0157037-2.4172358.057588-4.8342442.0963135-7.2512207L44 52H11l-2-5 2-3c2.5539549-.267114 4.8627437-.3484903 7.4140625-.2929688l2.211029.0128632c2.333676.016812 4.6664929.054467 6.9999085.0926056 1.5807167.0150437 3.161447.0287326 4.7421875.0410156C36.2451235 43.886618 40.122416 43.938416 44 44l-.0476074-2.9975586c-.0542272-3.6638172-.088716-7.3275988-.1171875-10.9916992-.0151032-1.5869747-.0355873-3.1739076-.0615235-4.7607422-.0363176-2.2787507-.0533918-4.5569506-.0666504-6.8359375l-.0469207-2.1560974C43.6594238 14.2563477 43.6594238 14.2563477 44 11l3-2Z"/></svg>