<svg xmlns="http://www.w3.org/2000/svg" viewBox="0 0 96 96"><path d="M36.3485565 3.6882935c2.914205 1.4416983 4.760574 3.0210464 7.0745392 5.2990112l2.5469513 2.4889526 2.7057342 2.6956177 2.8035126 2.7732544c1.9527766 1.9348555 3.8992947 3.8757699 5.8422394 5.8204956 2.4877808 2.4880862 4.9955921 4.9548631 7.5091677 7.416851 2.3993747 2.3579717 4.7770405 4.7374147 7.1575803 7.114399l2.7364045 2.6710815 2.4991912 2.5271607 2.2152863 2.2023315C81.4991971 47.736417 81.5740218 49.394887 81 53c-1.6055298 2.3472443-1.6055298 2.3472443-3.883789 4.6125488l-2.5696412 2.5976105-2.8121948 2.746872c-.9555818.952003-1.9100546 1.9051204-2.8634644 2.8592987-1.9984657 1.99378-4.0065824 3.9770988-6.022766 5.9529571-2.582288 2.5312836-5.144348 5.0819065-7.7001076 7.6399431-1.968851 1.9680348-3.9454277 3.9281502-5.9247017 5.8856974-1.4076994 1.3935316-2.8109418 2.7915608-4.214119 4.1896458l-2.6078491 2.5498504-2.2879028 2.2532501C37.9748136 96.020406 36.7266328 96.7580345 34 97c-2.1054688-1.3984375-2.1054688-1.3984375-4.1875-3.375l-2.1054688-1.9609375C26.8004834 90.7803339 25.895211 89.8952109 25 89c.01431-5.8537404 1.7584927-8.4412522 5.839737-12.519516l2.0391692-1.9453278c.6866625-.6781727 1.373325-1.3563455 2.0807953-2.055069 2.1872088-2.153737 4.3943787-4.2856266 6.6027985-6.4175872 1.4903005-1.4601934 2.9792493-2.9217678 4.4667969-4.3847656C49.6707319 58.1023015 53.3302096 54.5463137 57 51c-1.288696-2.8465303-2.6177125-4.8496761-4.873291-7.005127l-1.7491608-1.6900177-1.8814545-1.7931366c-1.3111282-1.2760956-2.6216568-2.5528076-3.9316406-3.830078-2.0631696-2.0012673-4.1305028-3.9975322-6.2087402-5.9831544-2.008553-1.9236812-3.9975457-3.8659394-5.9846192-5.8117676l-1.8875885-1.7747344c-3.0514642-3.014742-4.3622682-4.6442226-5.4669036-8.9061738C25 11 25 11 26.3632812 8.8203125L28.3125 7.125l1.9257812-1.7421875c3.2331025-2.5377345 3.2331025-2.5377345 6.1102753-1.694519Z"/></svg>