<?xml version="1.0" encoding="UTF-8"?>
<svg version="1.1" xmlns="http://www.w3.org/2000/svg" width="100" height="100">
<path d="M0 0 C2.91420489 1.44169833 4.76057403 3.02104648 7.07453918 5.29901123 C7.91503311 6.1203656 8.75552704 6.94171997 9.62149048 7.78796387 C10.51438278 8.6775177 11.40727509 9.56707153 12.32722473 10.48358154 C13.25238388 11.39875549 14.17754303 12.31392944 15.1307373 13.25683594 C17.08351389 15.19169143 19.03003199 17.1326058 20.97297668 19.07733154 C23.46075748 21.56541777 25.96856878 24.03219466 28.48214436 26.49418259 C30.88151905 28.85215421 33.25918484 31.23159721 35.63972473 33.60858154 C36.99424492 34.93076691 36.99424492 34.93076691 38.37612915 36.27966309 C39.61322884 37.5306076 39.61322884 37.5306076 40.87532043 38.80682373 C41.97188713 39.89697784 41.97188713 39.89697784 43.09060669 41.00915527 C45.15064054 44.04812359 45.22546528 45.70659354 44.65144348 49.31170654 C43.0459137 51.65895081 43.0459137 51.65895081 40.76765442 53.92425537 C39.91967285 54.78146683 39.07169128 55.63867828 38.19801331 56.52186584 C37.26998901 57.42833359 36.34196472 58.33480133 35.38581848 59.26873779 C34.43023668 60.22074083 33.47576388 61.17385822 32.52235413 62.1280365 C30.52388838 64.12181663 28.51577173 66.10513536 26.49958801 68.08099365 C23.91730001 70.61227727 21.35524001 73.16290012 18.79948044 75.72093678 C16.83062943 77.68897153 14.85405281 79.64908694 12.87477875 81.60663414 C11.46707937 83.00016572 10.06383698 84.39819493 8.66065979 85.79627991 C7.80006958 86.63773056 6.93947937 87.47918121 6.05281067 88.34613037 C5.29780273 89.08970291 4.5427948 89.83327545 3.76490784 90.59938049 C1.62625713 92.33211249 0.37807632 93.06974107 -2.34855652 93.31170654 C-4.45402527 91.91326904 -4.45402527 91.91326904 -6.53605652 89.93670654 C-7.23086121 89.28959717 -7.92566589 88.64248779 -8.64152527 87.97576904 C-9.54807313 87.09204046 -10.45334558 86.20691748 -11.34855652 85.31170654 C-11.33424645 79.45796615 -9.59006383 76.87045437 -5.50881958 72.79219055 C-4.83589371 72.15023239 -4.16296783 71.50827423 -3.46965027 70.84686279 C-2.78298782 70.16869003 -2.09632538 69.49051727 -1.38885498 68.79179382 C0.7983538 66.63805678 3.00552369 64.50616717 5.21394348 62.37420654 C6.70424399 60.91401312 8.19319281 59.45243878 9.68074036 57.98944092 C13.32217545 54.41400809 16.98165307 50.85802027 20.65144348 47.31170654 C19.36274756 44.46517625 18.03373094 42.46203044 15.77815247 40.30657959 C15.20092941 39.74887375 14.62370636 39.19116791 14.0289917 38.61656189 C13.40811172 38.02482681 12.78723175 37.43309174 12.14753723 36.82342529 C10.83640897 35.54732966 9.52588039 34.27061764 8.21589661 32.99334717 C6.15272694 30.99207996 4.08539378 28.99581503 2.00715637 27.01019287 C-0.00139663 25.08651166 -1.99038929 23.14425345 -3.97746277 21.19842529 C-4.60036697 20.61276291 -5.22327118 20.02710052 -5.86505127 19.4236908 C-8.91651556 16.40894889 -10.22731952 14.77946825 -11.33195496 10.51751709 C-11.34855652 7.31170654 -11.34855652 7.31170654 -9.98527527 5.13201904 C-9.02041199 4.29283936 -9.02041199 4.29283936 -8.03605652 3.43670654 C-7.40054871 2.86178467 -6.76504089 2.28686279 -6.11027527 1.69451904 C-2.87717281 -0.84321548 -2.87717281 -0.84321548 0 0 Z " fill="#000000" transform="translate(36.34855651855469,3.68829345703125)"/>
</svg>
