<svg xmlns="http://www.w3.org/2000/svg" version="1.0" viewBox="0 0 96 96"><path d="M22.2 9.2c-.9.9-1.2 7.3-1.2 22.4 0 20.3-.1 21.3-2 21.9-3.5 1.1-6 5.4-6 10.3 0 4 .5 5 4 8.3 3.9 3.7 4 4 4 10.7 0 7.7 1.6 10.6 4.5 8.2 1.1-.9 1.5-3.3 1.5-9.1 0-6.1.3-7.9 1.4-7.9.8 0 2.6-1.4 4-3.1 4.7-5.5 2.7-15.5-3.4-17.4-1.9-.6-2-1.6-2-21.9C27 11.4 26.6 8 24 8c-.3 0-1.1.5-1.8 1.2M48.2 9.2c-.7.7-1.2 3.4-1.2 6 0 4.4-.4 5.3-4 8.7-3.5 3.3-4 4.3-4 8.3 0 4.9 2.5 9.2 6 10.3 1.9.6 2 1.6 2 23.9 0 19.5.2 23.6 1.5 24.6 1.2 1 1.8 1 3 0 1.3-1 1.5-5.1 1.5-24.6 0-22.3.1-23.3 2-23.9 3.5-1.1 6-5.4 6-10.3 0-4-.5-5-4-8.3-3.6-3.4-4-4.3-4-8.7C53 11 51.8 8 50 8c-.3 0-1.1.5-1.8 1.2M74.2 9.2c-.9.9-1.2 7.7-1.2 24.4 0 22.3-.1 23.3-2 23.9-3.5 1.1-6 5.4-6 10.3 0 4 .5 5 4 8.3 3.6 3.4 4 4.3 4 8.7 0 3.2.5 5.4 1.5 6.2 2.6 2.1 4.5-.5 4.5-6.2 0-4.4.4-5.3 4-8.7 3.5-3.3 4-4.3 4-8.3 0-4.9-2.5-9.2-6-10.3-1.9-.6-2-1.6-2-23.9C79 11.4 78.6 8 76 8c-.3 0-1.1.5-1.8 1.2"/></svg>