<svg xmlns="http://www.w3.org/2000/svg" viewBox="0 0 96 96"><path d="M93 19c1 1 1 1 1.3730927 3.705368-.4828644 4.2639822-2.3902354 6.1455242-5.3425751 9.0087433l-1.6012573 1.6233826c-1.7471119 1.7632972-3.5149738 3.5039901-5.284729 5.2445374-1.2221578 1.2211202-2.4432793 2.4432784-3.6634064 3.6664276-2.5590138 2.5588345-5.1280395 5.1070262-7.7050019 7.6477813-3.3013737 3.255999-6.5801427 6.5336812-9.8521375 9.8191729-2.518852 2.5255377-5.0475807 5.0409888-7.579589 7.5533304-1.2126933 1.2049997-2.422707 2.4127025-3.6299705 3.6231423-1.689679 1.6904214-3.3917758 3.3672473-5.097971 5.0409755l-1.5039825 1.5189972C40.2159536 80.2609881 38.0878415 81.7910532 34 82c-1.8691406-1.079834-1.8691406-1.079834-3.65625-2.8085938l-2.078125-1.9682617L26 75l-2.515625-2.3598633C20.7916083 70.1032198 18.1436791 67.525462 15.5 64.9375l-2.78125-2.6425781-2.625-2.5800781-2.3847656-2.308838C5.5486062 54.3645022 5.427643 52.6538179 6 49c3-2 3-2 5.369873-1.9182129 3.4487187 1.2039944 5.1647487 2.9996965 7.7121582 5.6096192l1.391037 1.4081878C21.9292473 55.5780668 23.370859 57.0698616 24.8125 58.5625c.988001 1.008075 1.976924 2.0152473 2.9667969 3.0214844C30.1969639 64.0456245 32.6017659 66.5194067 35 69c6.108051-5.0485922 11.6627216-10.5499328 17.2382813-16.1757813.9713998-.9758137 1.9431-1.9513283 2.9150848-2.9265594 3.0558925-3.0672264 6.1077886-6.13841 9.1591339-9.2101593 3.5556104-3.5792375 7.112854-7.1568207 10.6743069-10.7302456 1.4212772-1.4277578 2.8395122-2.858491 4.2576542-4.289362l2.6005096-2.6105194 2.291214-2.307083C87.3403487 17.7412921 88.8469399 17.9351127 93 19Z"/></svg>