<?xml version="1.0" encoding="UTF-8"?>
<svg version="1.1" xmlns="http://www.w3.org/2000/svg" width="100" height="100">
<path d="M0 0 C1 1 1 1 1.37309265 3.70536804 C0.89022828 7.96935016 -1.01714267 9.85089217 -3.96948242 12.71411133 C-4.49789734 13.24982758 -5.02631226 13.78554382 -5.57073975 14.3374939 C-7.3178516 16.10079106 -9.08571347 17.84148404 -10.85546875 19.58203125 C-12.07762651 20.80315147 -13.29874798 22.02530967 -14.51887512 23.24845886 C-17.07788895 25.80729336 -19.64691462 28.35548515 -22.22387695 30.89624023 C-25.52525073 34.1522392 -28.80401971 37.42992137 -32.07601452 40.71541309 C-34.59486649 43.24095075 -37.12359522 45.75640187 -39.65560341 48.26874352 C-40.86829684 49.47374318 -42.07831051 50.68144596 -43.28557396 51.89188576 C-44.97525294 53.5823072 -46.67734977 55.25913315 -48.38354492 56.93286133 C-48.87985916 57.4341304 -49.3761734 57.93539948 -49.88752747 58.45185852 C-52.78404638 61.26098809 -54.91215844 62.79105321 -59 63 C-60.86914062 61.92016602 -60.86914062 61.92016602 -62.65625 60.19140625 C-63.34203125 59.54187988 -64.0278125 58.89235352 -64.734375 58.22314453 C-65.48203125 57.48950684 -66.2296875 56.75586914 -67 56 C-67.83015625 55.22124512 -68.6603125 54.44249023 -69.515625 53.64013672 C-72.20839174 51.10321983 -74.8563209 48.52546202 -77.5 45.9375 C-78.4178125 45.06544922 -79.335625 44.19339844 -80.28125 43.29492188 C-81.1475 42.44349609 -82.01375 41.59207031 -82.90625 40.71484375 C-83.69322266 39.95292725 -84.48019531 39.19101074 -85.29101562 38.40600586 C-87.45139376 35.36450207 -87.57235685 33.65381773 -87 30 C-84 28 -84 28 -81.63012695 28.08178711 C-78.18140826 29.28578145 -76.46537833 31.08148355 -73.91796875 33.69140625 C-73.45892654 34.15610825 -72.99988434 34.62081024 -72.52693176 35.09959412 C-71.07075265 36.57806683 -69.62914096 38.06986157 -68.1875 39.5625 C-67.19949902 40.57057507 -66.21057596 41.5777473 -65.22070312 42.58398438 C-62.80303607 45.04562454 -60.39823416 47.51940673 -58 50 C-51.89194899 44.95140777 -46.3372784 39.45006722 -40.76171875 33.82421875 C-39.79031894 32.84840504 -38.81861864 31.87289038 -37.84663391 30.8976593 C-34.79074136 27.83043287 -31.73884533 24.75924925 -28.6875 21.6875 C-25.13188963 18.10826247 -21.57464596 14.53067933 -18.01319313 10.95725441 C-16.59191594 9.52949664 -15.17368087 8.09876343 -13.75553894 6.66789246 C-12.46828667 5.37568535 -12.46828667 5.37568535 -11.1550293 4.05737305 C-10.39892868 3.29603561 -9.64282806 2.53469818 -8.86381531 1.75028992 C-5.65965127 -1.2587078 -4.15306013 -1.06488721 0 0 Z " fill="#000000" transform="translate(93,19)"/>
</svg>
