<svg xmlns="http://www.w3.org/2000/svg" viewBox="0 0 96 96"><path d="M17 13c4.7233252 1.4340698 7.599215 4.206461 10.9570313 7.6640625.5478263.5520712 1.0956527 1.1041425 1.66008 1.6729431 1.738997 1.7557186 3.4672403 3.521603 5.1953887 5.2879944 1.1809448 1.196 2.3625782 2.3913204 3.5449219 3.5859375C41.2463163 34.1328146 44.1256149 37.0638512 47 40c3.981874-1.5912235 6.5858847-4.3791051 9.5-7.4101563 1.0623832-1.0827969 2.1248868-2.1654756 3.1875-3.2480468 1.66142-1.7049733 3.3202903-3.4123398 4.9765625-5.1223145 1.6055412-1.653812 3.2201772-3.2983182 4.8359375-4.9421387l1.4902344-1.5561676C75.5520154 13.0941637 75.5520154 13.0941637 79 13c2.25 1.9375 2.25 1.9375 4 4-1.4340698 4.7233252-4.206461 7.599215-7.6640625 10.9570313l-1.6729431 1.66008c-1.7557186 1.738997-3.521603 3.4672403-5.2879944 5.1953887-1.196 1.1809448-2.3913204 2.3625782-3.5859375 3.5449219C61.8671854 41.2463163 58.9361488 44.1256149 56 47c1.5912235 3.981874 4.3791051 6.5858847 7.4101563 9.5 1.0827969 1.0623832 2.1654756 2.1248868 3.2480468 3.1875 1.7049733 1.66142 3.4123398 3.3202903 5.1223145 4.9765625 1.653812 1.6055412 3.2983182 3.2201772 4.9421387 4.8359375l1.5561676 1.4902344C82.9058363 75.5520154 82.9058363 75.5520154 83 79c-1.9375 2.25-1.9375 2.25-4 4-4.7233252-1.4340698-7.599215-4.206461-10.9570313-7.6640625-.5478263-.5520712-1.0956527-1.1041425-1.66008-1.6729431-1.738997-1.7557186-3.4672403-3.521603-5.1953887-5.2879944-1.1809448-1.196-2.3625782-2.3913204-3.5449219-3.5859375C54.7536837 61.8671854 51.8743851 58.9361488 49 56c-3.981874 1.5912235-6.5858847 4.3791051-9.5 7.4101563-1.0623832 1.0827969-2.1248868 2.1654756-3.1875 3.2480468-1.66142 1.7049733-3.3202903 3.4123398-4.9765625 5.1223145-1.6055412 1.653812-3.2201772 3.2983182-4.8359375 4.9421387l-1.4902344 1.5561675C20.4479846 82.9058364 20.4479846 82.9058364 17 83c-2.25-1.9375-2.25-1.9375-4-4 1.4340698-4.7233252 4.206461-7.599215 7.6640625-10.9570313l1.6729431-1.66008c1.7557186-1.738997 3.521603-3.4672403 5.2879944-5.1953887 1.196-1.1809448 2.3913204-2.3625782 3.5859375-3.5449219C34.1328146 54.7536837 37.0638512 51.8743851 40 49c-1.5912235-3.981874-4.3791051-6.5858847-7.4101563-9.5-1.0827969-1.0623832-2.1654756-2.1248868-3.2480468-3.1875-1.7049733-1.66142-3.4123398-3.3202903-5.1223145-4.9765625-1.653812-1.6055412-3.2983182-3.2201772-4.9421387-4.8359375l-1.5561675-1.4902344C13.0941637 20.4479846 13.0941637 20.4479846 13 17c1.9375-2.25 1.9375-2.25 4-4Z"/></svg>