<?xml version="1.0" encoding="UTF-8"?>
<svg version="1.1" xmlns="http://www.w3.org/2000/svg" width="100" height="100">
<path d="M0 0 C2.29932398 1.70017695 4.36811271 3.48064939 6.43359375 5.45703125 C7.38878906 6.3696875 7.38878906 6.3696875 8.36328125 7.30078125 C17.39688656 16.76086578 19.94232444 27.68069259 19.7109375 40.33984375 C19.1958182 51.51870142 13.1739575 61.13308998 5.24609375 68.70703125 C-5.14971761 77.51972413 -16.32624777 79.24012934 -29.56640625 78.45703125 C-39.84518181 76.75591552 -50.33846618 70.90194296 -56.56640625 62.45703125 C-63.53739893 50.23334668 -66.60220761 39.13885648 -63.91796875 25.0546875 C-60.5902526 14.00496335 -52.98016907 4.48194327 -42.7890625 -1.05078125 C-29.14749151 -7.45957299 -13.25851753 -7.97125483 0 0 Z M-42.56640625 25.45703125 C-46.49373723 29.80893855 -47.20052237 33.38160992 -46.953125 39.0546875 C-46.20153199 43.7236744 -43.81557162 46.35062764 -40.37890625 49.39453125 C-36.3762021 50.90666393 -32.66135579 50.66864553 -28.56640625 49.45703125 C-26.74439967 48.13622848 -26.74439967 48.13622848 -25.56640625 46.45703125 C-25.79398356 44.29403914 -25.79398356 44.29403914 -26.56640625 42.45703125 C-27.10265625 42.60140625 -27.63890625 42.74578125 -28.19140625 42.89453125 C-28.97515625 43.08015625 -29.75890625 43.26578125 -30.56640625 43.45703125 C-31.55640625 43.72515625 -32.54640625 43.99328125 -33.56640625 44.26953125 C-36.56640625 44.45703125 -36.56640625 44.45703125 -38.94140625 43.01953125 C-41.19383674 39.46762163 -41.38781307 36.55568367 -40.56640625 32.45703125 C-38.94140625 29.89453125 -38.94140625 29.89453125 -36.56640625 28.45703125 C-33.56640625 28.64453125 -33.56640625 28.64453125 -30.56640625 29.45703125 C-29.78265625 29.64265625 -28.99890625 29.82828125 -28.19140625 30.01953125 C-27.65515625 30.16390625 -27.11890625 30.30828125 -26.56640625 30.45703125 C-25.79398356 28.62002336 -25.79398356 28.62002336 -25.56640625 26.45703125 C-27.11798504 24.42340856 -28.1867581 23.5693616 -30.65234375 22.83984375 C-35.54659635 22.28861394 -38.67724641 22.01234682 -42.56640625 25.45703125 Z M-16.56640625 26.45703125 C-19.95211092 30.29416321 -20.07931797 34.09104587 -19.91796875 39.01953125 C-19.24008435 43.71952973 -16.82332363 46.34376157 -13.37890625 49.39453125 C-9.3762021 50.90666393 -5.66135579 50.66864553 -1.56640625 49.45703125 C0.25560033 48.13622848 0.25560033 48.13622848 1.43359375 46.45703125 C1.20601644 44.29403914 1.20601644 44.29403914 0.43359375 42.45703125 C-0.10265625 42.60140625 -0.63890625 42.74578125 -1.19140625 42.89453125 C-1.97515625 43.08015625 -2.75890625 43.26578125 -3.56640625 43.45703125 C-4.55640625 43.72515625 -5.54640625 43.99328125 -6.56640625 44.26953125 C-9.56640625 44.45703125 -9.56640625 44.45703125 -11.94140625 43.01953125 C-14.19383674 39.46762163 -14.38781307 36.55568367 -13.56640625 32.45703125 C-11.94140625 29.89453125 -11.94140625 29.89453125 -9.56640625 28.45703125 C-6.56640625 28.64453125 -6.56640625 28.64453125 -3.56640625 29.45703125 C-2.78265625 29.64265625 -1.99890625 29.82828125 -1.19140625 30.01953125 C-0.65515625 30.16390625 -0.11890625 30.30828125 0.43359375 30.45703125 C1.20601644 28.62002336 1.20601644 28.62002336 1.43359375 26.45703125 C-0.10441847 24.45265404 -1.19858803 23.57403247 -3.6171875 22.8046875 C-9.23199848 22.09677523 -12.17334864 22.48236008 -16.56640625 26.45703125 Z " fill="#000000" transform="translate(72.56640625,13.54296875)"/>
</svg>
