<svg xmlns="http://www.w3.org/2000/svg" viewBox="0 0 96 96"><path d="M72.5664063 13.5429688C74.8657302 15.2431457 76.934519 17.023618 79 19l1.9296875 1.84375c9.0336053 9.4600845 11.5790432 20.3799113 11.3476563 33.0390625C91.7622245 65.0616702 85.7403638 74.6760587 77.8125 82.25 67.4166886 91.0626929 56.2401585 92.783098 43 92c-10.2787756-1.7011157-20.77206-7.5550883-27-16C9.0290073 63.7763154 5.9641986 52.6818252 8.6484375 38.5976562c3.3277162-11.0497241 10.9377997-20.5727442 21.1289063-26.1054687 13.641571-6.4087917 29.530545-6.9204736 42.7890625 1.0507813ZM30 39c-3.927331 4.3519073-4.6341161 7.9245787-4.3867188 13.5976563.751593 4.6689869 3.1375534 7.29594 6.5742188 10.3398437C36.1902041 64.4496327 39.9050505 64.2116143 44 63c1.8220066-1.3208028 1.8220066-1.3208028 3-3-.2275773-2.1629921-.2275773-2.1629921-1-4l-1.625.4375L42 57l-3 .8125C36 58 36 58 33.625 56.5625 31.3725695 53.0105904 31.1785932 50.0986524 32 46c1.625-2.5625 1.625-2.5625 4-4 3 .1875 3 .1875 6 1l2.375.5625L46 44c.7724227-1.8370079.7724227-1.8370079 1-4-1.5515788-2.0336227-2.6203518-2.8876696-5.0859375-3.6171875C37.0198099 35.8315827 33.8891598 35.5553155 30 39Zm26 1c-3.3857047 3.837132-3.5129117 7.6340146-3.3515625 12.5625.6778844 4.6999985 3.0946451 7.3242303 6.5390625 10.375C63.1902041 64.4496327 66.9050505 64.2116143 71 63c1.8220066-1.3208028 1.8220066-1.3208028 3-3-.2275773-2.1629921-.2275773-2.1629921-1-4l-1.625.4375L69 57l-3 .8125C63 58 63 58 60.625 56.5625 58.3725695 53.0105904 58.1785932 50.0986524 59 46c1.625-2.5625 1.625-2.5625 4-4 3 .1875 3 .1875 6 1l2.375.5625L73 44c.7724227-1.8370079.7724227-1.8370079 1-4-1.5380122-2.0043772-2.6321818-2.8829988-5.0507813-3.6523438C63.3344077 35.639744 60.3930577 36.0253289 56 40Z"/></svg>