<svg xmlns="http://www.w3.org/2000/svg" viewBox="0 0 96 96"><path d="m22.5625 39.3359375 3.1640625-.0195313L29 39.375l3.2734375-.0585938 3.1640625.0195313 2.8710938.0170898C42.179692 40.2835798 43.6355399 41.828266 46 45c.5006112 2.7928435.7041848 4.9662705.6640625 7.75l.0144959 2.2294922c.0033904 1.5498265-.0057525 3.0997254-.026703 4.649414-.0267854 2.3649117-.0002312 4.7250788.0317383 7.0898438-.0033042 1.510427-.0097108 3.0208512-.0195312 4.53125l.0306702 2.1279297c-.0889049 3.7466135-.6294621 5.534515-2.8885804 8.5649414-3.1267652 2.2921632-4.5445886 2.6984291-8.3686523 2.7211914l-3.1640625.0195313L29 84.625l-3.2734375.0585938-3.1640625-.0195313-2.8710938-.0170898C15.820308 83.7164202 14.3644601 82.171734 12 79c-.5006112-2.7928435-.7041848-4.9662705-.6640625-7.75l-.0144958-2.2294922c-.0033905-1.5498265.0057524-3.0997254.0267028-4.649414.0267855-2.3649117.0002313-4.7250788-.0317383-7.0898438.0033043-1.510427.0097109-3.0208512.0195313-4.53125l-.0306702-2.1279297c.0889048-3.7466135.6294621-5.534515 2.8885804-8.5649414 3.1267652-2.2921632 4.5445886-2.6984291 8.3686523-2.7211914Zm38-28 3.1640625-.0195313L67 11.375l3.2734375-.0585938 3.1640625.0195313 2.8710938.0170898C80.179692 12.2835798 81.6355399 13.828266 84 17c.5006112 2.7928435.7041848 4.9662705.6640625 7.75l.0144959 2.2294922c.0033904 1.5498265-.0057525 3.0997254-.026703 4.649414-.0267854 2.3649117-.0002312 4.7250788.0317383 7.0898438-.0033042 1.510427-.0097108 3.0208512-.0195312 4.53125l.0306702 2.1279297c-.0889049 3.7466135-.6294621 5.534515-2.8885804 8.5649414-3.1267652 2.2921632-4.5445886 2.6984291-8.3686523 2.7211914l-3.1640625.0195313L67 56.625l-3.2734375.0585938-3.1640625-.0195313-2.8710938-.0170898C53.820308 55.7164202 52.3644601 54.171734 50 51c-.5006112-2.7928435-.7041848-4.9662705-.6640625-7.75l-.0144959-2.2294922c-.0033904-1.5498265.0057525-3.0997254.026703-4.649414.0267854-2.3649117.0002312-4.7250788-.0317383-7.0898438.0033042-1.510427.0097108-3.0208512.0195312-4.53125l-.0306702-2.1279297c.0889049-3.7466135.6294621-5.534515 2.8885804-8.5649414 3.1267652-2.2921632 4.5445886-2.6984291 8.3686523-2.7211914ZM67 59.375l3.2734375-.0585938c4.8449355.029907 7.8237003.0926694 11.9375 2.7851563C84.4007913 65.6493169 84.6697618 67.846102 84.625 72l.0390625 3.625C84 79 84 79 82.2109375 81.8984375 77.3064523 85.108429 72.7353355 84.7276611 67 84.625l-3.2734375.0585938c-4.8449355-.029907-7.8237003-.0926694-11.9375-2.7851563C49.5992087 78.3506831 49.3302382 76.153898 49.375 72l-.0390625-3.625C50 65 50 65 51.7890625 62.1015625 56.6935477 58.891571 61.2646645 59.2723389 67 59.375Zm-38-48 3.2734375-.0585938c4.8449355.029907 7.8237003.0926694 11.9375 2.7851563C46.4007913 17.6493169 46.6697618 19.846102 46.625 24l.0390625 3.625C46 31 46 31 44.2109375 33.8984375 39.3064523 37.108429 34.7353355 36.7276611 29 36.625l-3.2734375.0585938c-4.8449355-.029907-7.8237003-.0926694-11.9375-2.7851563C11.5992087 30.3506831 11.3302382 28.153898 11.375 24l-.0390625-3.625C12 17 12 17 13.7890625 14.1015625 18.6935477 10.891571 23.2646645 11.2723389 29 11.375Z" fill="currentColor"/></svg>