<svg xmlns="http://www.w3.org/2000/svg" viewBox="0 0 96 96"><path d="M17 36h62l-1.8125 18.4375-.5500488 5.7634277c-.1556766 1.5359718-.3121214 3.071866-.4694825 4.607666-.0710192.7744446-.1420385 1.5488892-.21521 2.3468018-.6538301 6.2304447-1.5693545 12.8665114-5.579956 17.8778076-3.732168 1.5206694-7.3433185 1.4345876-11.3376464 1.4355469l-2.6373444.0230713c-1.8382226.0107913-3.6765065.013658-5.5147553.0091553-2.8077653-.0009722-5.6127953.0406534-8.420166.0849609-1.7884058.0052074-3.576821.0078952-5.3652344.0078125l-2.535141.0496826c-4.1410043-.0489292-6.0517705-.2791293-9.5061187-2.743042-4.0445432-5.70452-4.469977-12.1279751-5.126709-18.8964843l-.2321777-2.2423096c-.2810655-2.7323317-.5511625-5.4657828-.8225098-8.1990967L17 36ZM38 8h20l1 4 2.6679688-.1757813c9.5443716-.370758 9.5443716-.370758 13.3945312 2.3007813 1.3691534 2.031647 2.7217759 4.0744808 4.0625 6.125C80.7706412 23.260039 80.7706412 23.260039 84 24c.75 1.9375.75 1.9375 1 4l-1 2H12c-1-4-1-4 0-6l3-1c1.5690498-2.0233068 1.5690498-2.0233068 3-4.4375 1.9100379-3.0988375 2.9066246-4.5002497 6-6.5625 3.1367188-.1953125 3.1367188-.1953125 6.6875-.125l3.5742188.0546875L37 12l1-4Z"/></svg>