<?xml version="1.0" encoding="UTF-8"?>
<svg version="1.1" xmlns="http://www.w3.org/2000/svg" width="96" height="96">
<path d="M0 0 C20.46 0 40.92 0 62 0 C61.401875 6.084375 60.80375 12.16875 60.1875 18.4375 C60.00598389 20.33943115 59.82446777 22.2413623 59.63745117 24.20092773 C59.48177462 25.73689949 59.32532978 27.27279365 59.16796875 28.80859375 C59.09694946 29.58303833 59.02593018 30.35748291 58.95275879 31.15539551 C58.29892859 37.38584022 57.38340423 44.02190692 53.37280273 49.03320312 C49.64063461 50.55387251 46.02948424 50.46779066 42.03515625 50.46875 C41.16483261 50.47636353 40.29450897 50.48397705 39.39781189 50.49182129 C37.55958928 50.50261262 35.72130541 50.50547932 33.88305664 50.50097656 C31.07529131 50.50000443 28.27026132 50.54163003 25.46289062 50.5859375 C23.67448485 50.59114494 21.8860696 50.59383269 20.09765625 50.59375 C18.84276146 50.6183429 18.84276146 50.6183429 17.56251526 50.64343262 C13.42151086 50.59450342 11.5107447 50.36430326 8.05639648 47.90039062 C4.01185332 42.19587053 3.58641949 35.7724155 2.9296875 29.00390625 C2.85306885 28.26394409 2.7764502 27.52398193 2.69750977 26.76159668 C2.41644431 24.02926498 2.14634732 21.29581391 1.875 18.5625 C1.25625 12.436875 0.6375 6.31125 0 0 Z " fill="#000000" transform="translate(17,36)"/>
<path d="M0 0 C6.6 0 13.2 0 20 0 C20.495 1.98 20.495 1.98 21 4 C21.88042969 3.94199219 22.76085938 3.88398438 23.66796875 3.82421875 C33.21234041 3.45346069 33.21234041 3.45346069 37.0625 6.125 C38.43165336 8.15664692 39.7842759 10.19948079 41.125 12.25 C42.77064122 15.26003892 42.77064122 15.26003892 46 16 C46.75 17.9375 46.75 17.9375 47 20 C46.67 20.66 46.34 21.32 46 22 C22.24 22 -1.52 22 -26 22 C-27 18 -27 18 -26 16 C-25.01 15.67 -24.02 15.34 -23 15 C-21.4309502 12.97669323 -21.4309502 12.97669323 -20 10.5625 C-18.08996212 7.46366251 -17.09337542 6.06225028 -14 4 C-10.86328125 3.8046875 -10.86328125 3.8046875 -7.3125 3.875 C-6.13300781 3.89304687 -4.95351563 3.91109375 -3.73828125 3.9296875 C-2.38283203 3.96449219 -2.38283203 3.96449219 -1 4 C-0.67 2.68 -0.34 1.36 0 0 Z " fill="#000000" transform="translate(38,8)"/>
</svg>
