<svg xmlns="http://www.w3.org/2000/svg" viewBox="0 0 96 96"><path d="M54 22c7.3856154 6.2555702 7.3856154 6.2555702 10.5273438 9.4296875l1.7089843 1.71875L67.9375 34.875l1.7832031 1.796875C71.1494767 38.1122647 72.5750813 39.5557967 74 41c-5.9610197 7.0347017-12.1858925 13.7639494-18.5986328 20.3881836-1.3389548 1.3954168-2.6651553 2.8031974-3.977539 4.2236328-9.998 10.800961-21.2682782 19.4631986-36.5662232 20.5388184C13.2376372 86.1569352 11.617594 86.087892 10 86c-.5756695-11.629883 3.4944196-23.2469302 11.0463867-32.0917969C25.7865332 48.7871716 30.8435515 44.014551 35.9375 39.25c1.7536647-1.6882815 3.5043407-3.3796731 5.2519531-5.0742188C45.4259304 30.0807768 49.6973665 26.0253796 54 22Zm24-12c4.1297496 2.0648748 6.2952706 3.7458555 8 8 .7007782 4.9380415.555584 8.888832-1.6875 13.375C82 34 82 34 77 38L58 19c6.7705188-7.8989386 10.1200696-10.2778459 20-9Z"/></svg>