<?xml version="1.0" encoding="UTF-8"?>
<svg version="1.1" xmlns="http://www.w3.org/2000/svg" width="96" height="96">
<path d="M0 0 C7.38561539 6.25557019 7.38561539 6.25557019 10.52734375 9.4296875 C11.09130859 9.996875 11.65527344 10.5640625 12.23632812 11.1484375 C12.79771484 11.71820313 13.35910156 12.28796875 13.9375 12.875 C14.82018555 13.76445313 14.82018555 13.76445313 15.72070312 14.671875 C17.14947674 16.11226466 18.57508132 17.5557967 20 19 C14.03898032 26.03470173 7.81410753 32.76394941 1.40136719 39.38818359 C0.06241238 40.78360035 -1.2637881 42.19138101 -2.57617188 43.61181641 C-12.57417167 54.41277741 -23.84445003 63.07501503 -39.14239502 64.15063477 C-40.76236277 64.15693518 -42.38240605 64.08789207 -44 64 C-44.5756695 52.37011695 -40.50558045 40.75306981 -32.95361328 31.90820312 C-28.21346681 26.78717162 -23.15644849 22.01455098 -18.0625 17.25 C-16.30883533 15.56171851 -14.55815932 13.87032689 -12.81054688 12.17578125 C-8.57406956 8.08077676 -4.3026335 4.02537964 0 0 Z " fill="#000000" transform="translate(54,22)"/>
<path d="M0 0 C4.12974965 2.06487482 6.29527061 3.7458555 8 8 C8.70077817 12.93804153 8.55558401 16.88883198 6.3125 21.375 C4 24 4 24 -1 28 C-7.27 21.73 -13.54 15.46 -20 9 C-13.22948124 1.10106144 -9.87993044 -1.27784589 0 0 Z " fill="#000000" transform="translate(78,10)"/>
</svg>
