<svg xmlns="http://www.w3.org/2000/svg" version="1.0" viewBox="0 0 100 100"><path d="M45.5 5.4c-4.1 1.8-9.2 7.2-12.1 12.8-2 4-2.9 4.8-5.2 4.8-5.3 0-13.5 3.1-16.8 6.4-3.7 3.7-5.8 10.3-4.9 14.9 1 4.5 4.9 11 8.5 14.1 3.1 2.5 3.1 2.7 2.5 9.3-1.2 12 2.4 19.6 11 22.9 3.8 1.4 5.2 1.5 9.2.5 2.7-.7 6.7-2.3 9-3.6l4.3-2.3 5.2 2.8c9.6 5 17.8 4.8 23-.7 3.6-3.9 4.8-8.4 4.8-17.8 0-8.1.1-8.3 3.6-12.1 5.6-6 8.8-13.5 7.9-19-1.2-8.1-7.9-13-20.3-15-3.6-.6-4.5-1.2-5.6-3.8-2.5-5.7-7.4-11.3-11.8-13.5-5.1-2.4-8-2.6-12.3-.7zm7.9 32.4c.4 1 .2 3.9-.3 6.5-.4 2.6-.7 4.7-.5 4.7.2 0 2.1-.9 4.1-2 4.5-2.4 7.9-2.6 8.7-.5.6 1.7-2.9 4.5-5.9 4.5-1.1 0-3 .3-4.2.6l-2.3.6 2.5 2c3.8 3 5.9 7.6 4.4 9.4-1 1.3-1.5 1.2-3.5-.7-1.3-1.3-2.9-3.7-3.6-5.6-.7-1.8-1.5-3.3-1.8-3.3-.3 0-1.1 1.5-1.8 3.3-.7 1.9-2.3 4.3-3.6 5.6-2 1.9-2.4 2-3.6.6-1.4-1.7.3-5 4.7-9.1l2.5-2.3-3.9-.6c-5.9-1-8.3-2.3-8.3-4.5 0-2.7 4.4-2.7 8.5 0 1.7 1.1 3.3 2 3.6 2 .3 0 .3-2.1-.1-4.7-.4-2.5-.5-5.4-.2-6.5.6-2.3 3.9-2.4 4.6 0z"/></svg>