<?xml version="1.0" encoding="UTF-8"?>
<svg version="1.1" xmlns="http://www.w3.org/2000/svg" width="100" height="100">
<path d="M0 0 C6.41225296 0.93961727 10.43232259 7.46861457 14.0625 12.3125 C24.47257791 26.38963187 36.39340851 43.98896921 34.0625 62.3125 C32.07706415 72.73603823 27.03008151 80.69129546 18.3984375 86.87109375 C9.84608594 92.14838092 0.28363134 92.52512569 -9.51953125 90.87890625 C-18.26643762 88.41261566 -25.04298036 82.34929741 -29.71875 74.69921875 C-34.81814472 64.71290409 -35.01422725 55.35178766 -32.09765625 44.67578125 C-27.83982244 32.33236405 -20.93781241 21.53983302 -12.9375 11.3125 C-12.16019531 10.2915625 -11.38289063 9.270625 -10.58203125 8.21875 C-4.46715225 0.72512892 -4.46715225 0.72512892 0 0 Z " fill="#000000" transform="translate(49.9375,2.6875)"/>
</svg>
