<svg xmlns="http://www.w3.org/2000/svg" version="1.0" viewBox="0 0 2000 2000"><path d="M1022.5 59c-31.5 5.5-43.8 9.1-59.5 17.1-24.3 12.5-46.5 34.1-95.8 93.2-31.6 38.1-43 52.3-70.3 88.2-15.1 19.8-36 47-46.4 60.5C573.6 547.2 450 763.2 376.9 971.5c-12.8 36.3-29.2 111.3-36.8 168-5.8 42.7-7.6 70.5-7.5 116 .1 62.3 5.5 111 18.5 167.5 16.6 71.9 50.1 158.1 79.4 204 82 128.3 183.8 222.4 304 281.1 45.5 22.2 90.9 38.4 121.7 43.4 96.1 15.5 193.1 19.6 272.3 11.5 104-10.7 192.7-38.3 276-86.1 18.8-10.7 25.8-15.5 50.3-34.6 48-37.4 92-79.7 129.2-124.3 79.7-95.7 133.6-210.4 162.4-346 4.1-19.6 7-49.6 8.6-89.2 4.4-107.5-16.1-228.5-59.2-349.7-63.6-179.1-174.2-368.4-363.3-621.6-7.8-10.5-24.2-32.7-36.5-49.4-39.7-54.3-63.2-83.1-91-111.5-43.8-44.7-82.1-70.5-126.9-85.5-10.7-3.6-34.7-9.2-38.2-9-.8 0-8.6 1.3-17.4 2.9zm95.3 1010.7-.3 380.8h-161l-.3-380.8L956 689h162l-.2 380.7z"/></svg>