<?xml version="1.0" encoding="UTF-8"?>
<svg version="1.1" xmlns="http://www.w3.org/2000/svg" width="100" height="100">
<path d="M0 0 C2.29932398 1.70017695 4.36811271 3.48064939 6.43359375 5.45703125 C7.38878906 6.3696875 7.38878906 6.3696875 8.36328125 7.30078125 C17.39688656 16.76086578 19.94232444 27.68069259 19.7109375 40.33984375 C19.1958182 51.51870142 13.1739575 61.13308998 5.24609375 68.70703125 C-5.14971761 77.51972413 -16.32624777 79.24012934 -29.56640625 78.45703125 C-39.84518181 76.75591552 -50.33846618 70.90194296 -56.56640625 62.45703125 C-63.53739893 50.23334668 -66.60220761 39.13885648 -63.91796875 25.0546875 C-60.5902526 14.00496335 -52.98016907 4.48194327 -42.7890625 -1.05078125 C-29.14749151 -7.45957299 -13.25851753 -7.97125483 0 0 Z M-24.56640625 16.45703125 C-25.22640625 17.77703125 -25.88640625 19.09703125 -26.56640625 20.45703125 C-25.57640625 21.94203125 -25.57640625 21.94203125 -24.56640625 23.45703125 C-22.91640625 23.12703125 -21.26640625 22.79703125 -19.56640625 22.45703125 C-19.23640625 21.46703125 -18.90640625 20.47703125 -18.56640625 19.45703125 C-19.22640625 18.46703125 -19.88640625 17.47703125 -20.56640625 16.45703125 C-21.88640625 16.45703125 -23.20640625 16.45703125 -24.56640625 16.45703125 Z M-23.56640625 30.45703125 C-25.78381785 33.78314864 -25.81389341 34.83774668 -25.796875 38.7109375 C-25.79494141 39.72994141 -25.79300781 40.74894531 -25.79101562 41.79882812 C-25.77876953 42.86166016 -25.76652344 43.92449219 -25.75390625 45.01953125 C-25.75326172 46.08623047 -25.75261719 47.15292969 -25.75195312 48.25195312 C-25.95767771 53.52219908 -25.95767771 53.52219908 -24.56640625 58.45703125 C-23.24640625 58.45703125 -21.92640625 58.45703125 -20.56640625 58.45703125 C-18.57206465 54.46834805 -19.38155589 49.40469043 -19.37890625 45.01953125 C-19.36666016 43.95669922 -19.35441406 42.89386719 -19.34179688 41.79882812 C-19.33986328 40.77982422 -19.33792969 39.76082031 -19.3359375 38.7109375 C-19.32977417 37.30823608 -19.32977417 37.30823608 -19.32348633 35.87719727 C-19.40155281 33.19641349 -19.40155281 33.19641349 -21.56640625 30.45703125 C-22.22640625 30.45703125 -22.88640625 30.45703125 -23.56640625 30.45703125 Z " fill="#000000" transform="translate(72.56640625,13.54296875)"/>
</svg>
