<svg xmlns="http://www.w3.org/2000/svg" viewBox="0 0 96 96"><path d="M72.5664063 13.5429688C74.8657302 15.2431457 76.934519 17.023618 79 19l1.9296875 1.84375c9.0336053 9.4600845 11.5790432 20.3799113 11.3476563 33.0390625C91.7622245 65.0616702 85.7403638 74.6760587 77.8125 82.25 67.4166886 91.0626929 56.2401585 92.783098 43 92c-10.2787756-1.7011157-20.77206-7.5550883-27-16C9.0290073 63.7763154 5.9641986 52.6818252 8.6484375 38.5976562c3.3277162-11.0497241 10.9377997-20.5727442 21.1289063-26.1054687 13.641571-6.4087917 29.530545-6.9204736 42.7890625 1.0507813ZM48 30l-2 4 2 3 5-1 1-3-2-3h-4Zm1 14c-2.2174116 3.3261174-2.2474872 4.3807154-2.2304688 8.2539063l.0058594 3.0878906L46.8125 58.5625l.0019531 3.2324219C46.6087285 67.0651679 46.6087285 67.0651679 48 72h4c1.9943416-3.9886832 1.1848504-9.0523408 1.1875-13.4375.012246-1.062832.0244922-2.125664.0371094-3.2207031l.0058594-3.0878906.0124511-2.8337403C53.1648534 46.7393822 53.1648534 46.7393822 51 44h-2Z"/></svg>