<svg xmlns="http://www.w3.org/2000/svg" version="1.0" viewBox="0 0 96 96"><path d="M41 12c-5.1 8.2-6 10.3-5 11.5 2.3 2.8 4.1 1.5 10-7.8 6.2-9.5 7.1-13 3.4-13.5-1.8-.3-3.3 1.6-8.4 9.8zm44.7.7c-6.5 10.3-7 11.3-5.8 13.1 1.8 2.9 4.7.4 10.4-8.7 4.6-7.2 5.7-9.8 5-11-2.2-3.5-4.1-2.2-9.6 6.6zM68.4 6.8c-.6.4-3.7 4.8-6.8 9.8-5.8 9.4-6.4 12.8-2.3 12.2 3.1-.4 14.4-18.4 13.1-20.6-1.3-1.9-2.5-2.4-4-1.4zM24.3 34.9C19 36.2 12.5 40.7 9.5 45 6.8 48.9 4 57.3 4 61.6c0 3.5 2.4 4.9 6 3.4 2.6-1.1 4.2-.9 10.8 1 9.4 2.6 14.3 1.8 19.9-3.4 3.5-3.1 3.5-3.3 2.4-6.9-.9-2.5-2-3.9-3.6-4.3-3-.7-8.5 1-11.3 3.6-2.4 2.3-5.2 2.6-5.2.7 0-1.9 3.9-5.4 8.2-7.2 5.7-2.3 9.3-1.9 13 1.4l3.3 2.9.3 22c.3 23 .6 24.2 4.7 22.6 1.2-.5 1.5-2.8 1.5-11.8 0-12.9 1.4-17 7-19.9 5.5-2.8 18-.2 18 3.8 0 2.3-1.8 2.7-4.5.9-3.5-2.3-10.9-2.4-13.1-.2-1.6 1.5-1.6 1.9-.1 4.1 3.4 5.3 11.8 7 19.8 4.1 2.9-1 6-1.3 9-1 5.5.7 6.3-.4 5.3-6.9-1.8-12.4-14.1-21.5-25.5-19-1.7.4-5 2.4-7.3 4.5-2.3 2-5.1 4.2-6.2 4.8-2.1 1.1-2.2.9-2.6-4.4-.5-6.1-2.9-10-7.4-12.4-1.5-.8-3.7-2.5-4.7-3.8-3.7-4.5-11.3-6.8-17.4-5.3z"/></svg>