<?xml version="1.0" encoding="UTF-8"?>
<svg version="1.1" xmlns="http://www.w3.org/2000/svg" width="100" height="100">
<path d="M0 0 C0.65710968 -0.00335861 1.31421936 -0.00671722 1.99124146 -0.01017761 C4.16882201 -0.01969529 6.34632571 -0.02163121 8.52392578 -0.02270508 C10.03606193 -0.02591741 11.54819776 -0.02928146 13.06033325 -0.03279114 C16.23293783 -0.03878467 19.40551516 -0.04063084 22.578125 -0.04003906 C26.64250211 -0.0399375 30.7067043 -0.05358263 34.77103996 -0.07081127 C37.89544476 -0.08193367 41.01980732 -0.08395819 44.14422989 -0.08342934 C45.64253466 -0.08460936 47.14084052 -0.08903243 48.63912582 -0.0967617 C50.73610396 -0.10656528 52.83270318 -0.10368216 54.9296875 -0.09765625 C56.12278534 -0.09908127 57.31588318 -0.10050629 58.5451355 -0.10197449 C61.52435839 0.13959742 63.15140661 0.46903773 65.59423828 2.14526367 C68.28505512 6.18148893 67.99782827 9.28039827 68.03173828 14.02026367 C68.06460938 14.82334961 68.09748047 15.62643555 68.13134766 16.45385742 C68.1384375 17.23631836 68.14552734 18.0187793 68.15283203 18.82495117 C68.17301392 19.88818604 68.17301392 19.88818604 68.19360352 20.97290039 C67.24723102 24.40297065 65.29677096 25.90021198 62.59423828 28.14526367 C59.36914062 28.78018188 59.36914062 28.78018188 55.68017578 28.79223633 C54.66700287 28.80537872 54.66700287 28.80537872 53.63336182 28.81878662 C51.41132447 28.84070736 49.19129412 28.82625715 46.96923828 28.80932617 C45.41894145 28.81269649 43.86864719 28.81755092 42.31835938 28.82382202 C39.07347388 28.83118331 35.82927783 28.82051293 32.58447266 28.79711914 C28.43123498 28.76863049 24.27961277 28.78503865 20.12643433 28.81498146 C16.92639051 28.83307535 13.72672785 28.82728712 10.52667236 28.8143425 C8.99570523 28.8110142 7.46470316 28.81507536 5.93377686 28.82674026 C3.79102339 28.83948514 1.65086179 28.82002861 -0.49169922 28.79223633 C-1.70905762 28.78825836 -2.92641602 28.7842804 -4.18066406 28.78018188 C-8.30078584 27.96906215 -9.79470058 26.35977762 -12.40576172 23.14526367 C-13.03686523 20.98876953 -13.03686523 20.98876953 -13.03466797 18.86010742 C-13.03660156 18.0821582 -13.03853516 17.30420898 -13.04052734 16.50268555 C-13.01667969 15.70411133 -12.99283203 14.90553711 -12.96826172 14.08276367 C-12.97921875 13.28032227 -12.99017578 12.47788086 -13.00146484 11.65112305 C-12.95334177 7.78523639 -12.89516678 5.78479298 -10.49560547 2.64916992 C-6.81002224 -0.00307222 -4.53506708 0.01450832 0 0 Z " fill="#000000" transform="translate(22.40576171875,61.854736328125)"/>
<path d="M0 0 C4.36045847 2.22136563 7.13277421 4.43567029 9 9 C9.53900048 13.85100433 9.4992191 16.00156179 7.3125 20.375 C5 23 5 23 0 25 C0 32.26 0 39.52 0 47 C-2.64 47 -5.28 47 -8 47 C-8 39.74 -8 32.48 -8 25 C-10.475 24.01 -10.475 24.01 -13 23 C-16.41745729 19.12072416 -17.66763628 16.02323359 -17.38671875 10.95703125 C-16.5275607 6.6091708 -14.06270724 3.88558937 -10.75 1.125 C-7.10164042 -0.36751074 -3.84747819 -0.67896674 0 0 Z " fill="#000000" transform="translate(54,10)"/>
<path d="M0 0 C3.96 0 7.92 0 12 0 C12.33 1.65 12.66 3.3 13 5 C11 7 11 7 8.6171875 7.1953125 C7.71226563 7.17210937 6.80734375 7.14890625 5.875 7.125 C4.50988281 7.09792969 4.50988281 7.09792969 3.1171875 7.0703125 C2.41851563 7.04710937 1.71984375 7.02390625 1 7 C-0.0625 4.625 -0.0625 4.625 -1 2 C-0.67 1.34 -0.34 0.68 0 0 Z " fill="#000000" transform="translate(23,52)"/>
</svg>
