<svg xmlns="http://www.w3.org/2000/svg" viewBox="0 0 96 96"><path d="m22.4057617 61.8547363 1.9912415-.0101776c2.1775805-.0095177 4.3550842-.0114536 6.5326843-.0125275 1.5121361-.0032123 3.024272-.0065763 4.5364075-.010086 3.1726045-.0059935 6.3451819-.0078397 9.5177917-.007248 4.0643771.0001016 8.1285793-.0135435 12.192915-.0307721 3.1244048-.0111224 6.2487673-.013147 9.37319-.0126181 1.4983047-.00118 2.9966105-.0056031 4.4948958-.0133324 2.0969782-.0098036 4.1935774-.0069204 6.2905617-.0008945l3.615448-.0043183C83.9301202 61.9943338 85.5571683 62.3237741 88 64c2.6908168 4.0362253 2.40359 7.1351346 2.4375 11.875l.0996094 2.4335937.0214843 2.3710938c.020182 1.0632349.020182 1.0632349.0407715 2.1479492C89.6529927 86.257707 87.7025327 87.7549483 85 90c-3.2250977.6349182-3.2250977.6349182-6.9140625.6469727l-2.046814.0265502c-2.2220373.0219208-4.4420677.0074706-6.6641235-.0094604-1.5502968.0033703-3.100591.0082247-4.6508789.0144958-3.2448855.0073613-6.4890816-.003309-9.7338867-.0267028-4.1532377-.0284887-8.30486-.0120805-12.4580384.0178623-3.2000438.0180939-6.3997064.0123056-9.599762-.000639-1.530967-.0033283-3.0619691.0007329-4.5928954.0123978-2.1427535.0127449-4.282915-.0067117-6.4254761-.034504l-3.6889648-.0120544C14.1049759 89.8237985 12.611061 88.214514 10 85c-.6311035-2.1564941-.6311035-2.1564941-.6289063-4.2851563l-.0058593-2.3574218L9.4375 75.9375l-.0332031-2.4316406c.048123-3.8658867.106298-5.86633 2.5058593-9.0019532 3.6855833-2.652242 5.9605384-2.6346616 10.4956055-2.6491699ZM54 10c4.3604585 2.2213656 7.1327742 4.4356703 9 9 .5390005 4.8510043.4992191 7.0015618-1.6875 11.375C59 33 59 33 54 35v22h-8V35l-5-2c-3.4174573-3.8792758-4.6676363-6.9767664-4.3867188-12.0429688C37.4724394 16.6091708 39.9372928 13.8855895 43.25 11.125 46.8983596 9.6324893 50.1525218 9.3210333 54 10ZM23 52h12l1 5c-2 2-2 2-4.3828125 2.1953125L28.875 59.125l-2.7578125-.0546875L24 59c-1.0625-2.375-1.0625-2.375-2-5l1-2Z"/></svg>