<?xml version="1.0" encoding="UTF-8"?>
<svg version="1.1" xmlns="http://www.w3.org/2000/svg" width="100" height="100">
<path d="M0 0 C1.14919922 -0.02900391 2.29839844 -0.05800781 3.48242188 -0.08789062 C5.13274414 -0.10045898 5.13274414 -0.10045898 6.81640625 -0.11328125 C8.32569702 -0.13515503 8.32569702 -0.13515503 9.86547852 -0.1574707 C12.4375 0.3125 12.4375 0.3125 14.41381836 2.02661133 C15.4375 4.3125 15.4375 4.3125 14.625 7.0625 C14.233125 7.805 13.84125 8.5475 13.4375 9.3125 C12.7669458 9.33755615 12.0963916 9.3626123 11.40551758 9.38842773 C8.3535041 9.50480801 5.30176742 9.62734348 2.25 9.75 C1.19490234 9.78931641 0.13980469 9.82863281 -0.94726562 9.86914062 C-1.96884766 9.91103516 -2.99042969 9.95292969 -4.04296875 9.99609375 C-5.44905396 10.05108032 -5.44905396 10.05108032 -6.88354492 10.10717773 C-9.51364982 10.30875599 -11.99016414 10.73928321 -14.5625 11.3125 C-15.38205497 14.18915757 -15.69279363 16.75466543 -15.70776367 19.7421875 C-15.71414352 20.6098877 -15.72052338 21.47758789 -15.72709656 22.37158203 C-15.72820938 23.30083496 -15.7293222 24.23008789 -15.73046875 25.1875 C-15.73379715 26.14897949 -15.73712555 27.11045898 -15.74055481 28.10107422 C-15.74561234 30.13183108 -15.7479635 32.16259623 -15.74780273 34.19335938 C-15.74999184 37.30091999 -15.76816722 40.40812704 -15.78710938 43.515625 C-15.790043 45.48958212 -15.792028 47.46354092 -15.79296875 49.4375 C-15.80015427 50.36675293 -15.80733978 51.29600586 -15.81474304 52.25341797 C-15.81166641 53.12111816 -15.80858978 53.98881836 -15.80541992 54.8828125 C-15.80755745 56.02387451 -15.80755745 56.02387451 -15.80973816 57.18798828 C-15.52207402 59.65987953 -14.92749017 61.23338132 -13.5625 63.3125 C-10.78177375 64.23940875 -9.11641136 64.43890158 -6.24633789 64.44189453 C-4.9446743 64.44662277 -4.9446743 64.44662277 -3.61671448 64.45144653 C-2.21509315 64.44841019 -2.21509315 64.44841019 -0.78515625 64.4453125 C0.17773819 64.44626923 1.14063263 64.44722595 2.13270569 64.44821167 C4.16944443 64.44889226 6.20618535 64.44704638 8.24291992 64.44287109 C11.35926192 64.43752699 14.47545941 64.44281717 17.59179688 64.44921875 C19.57031282 64.44855783 21.54882867 64.44727639 23.52734375 64.4453125 C24.45973373 64.44733673 25.39212372 64.44936096 26.35276794 64.45144653 C27.22369583 64.44829437 28.09462372 64.44514221 28.99194336 64.44189453 C29.75566757 64.44109894 30.51939178 64.44030334 31.30625916 64.43948364 C33.46387392 64.31092859 35.36326007 63.90498245 37.4375 63.3125 C38.22523917 59.77748542 38.61245802 56.41000212 38.75390625 52.79296875 C38.79580078 51.77138672 38.83769531 50.74980469 38.88085938 49.69726562 C38.92017578 48.64216797 38.95949219 47.58707031 39 46.5 C39.06477539 44.88834961 39.06477539 44.88834961 39.13085938 43.24414062 C39.23660983 40.60037918 39.33870233 37.9565289 39.4375 35.3125 C41.6875 34.125 41.6875 34.125 44.4375 33.3125 C46.71899414 34.34277344 46.71899414 34.34277344 48.4375 36.3125 C48.93920898 38.83691406 48.93920898 38.83691406 48.93359375 41.828125 C48.93423828 42.91480469 48.93488281 44.00148437 48.93554688 45.12109375 C48.91556641 46.25675781 48.89558594 47.39242187 48.875 48.5625 C48.88208984 49.68269531 48.88917969 50.80289063 48.89648438 51.95703125 C48.84336524 58.87886329 48.63098362 64.60340184 43.9375 70.0546875 C39.70232426 73.25312751 36.8526875 74.43211539 31.60229492 74.47363281 C30.62085007 74.48324036 29.63940521 74.4928479 28.6282196 74.50274658 C27.03914543 74.5091214 27.03914543 74.5091214 25.41796875 74.515625 C24.32664139 74.52132507 23.23531403 74.52702515 22.11091614 74.53289795 C19.80010956 74.54234864 17.48928949 74.5488822 15.1784668 74.55273438 C11.64933652 74.56243312 8.12079028 74.59345372 4.59179688 74.625 C2.34635762 74.63153085 0.10091421 74.636781 -2.14453125 74.640625 C-3.19784134 74.6529718 -4.25115143 74.6653186 -5.33638 74.67803955 C-11.61264838 74.6590309 -16.35890714 74.23454194 -21.20703125 69.8125 C-24.49886674 65.58485844 -25.68174814 62.77413009 -25.72363281 57.47729492 C-25.73804413 56.00512764 -25.73804413 56.00512764 -25.75274658 54.5032196 C-25.75699646 53.44383682 -25.76124634 52.38445404 -25.765625 51.29296875 C-25.77132507 50.20164139 -25.77702515 49.11031403 -25.78289795 47.98591614 C-25.79234864 45.67510956 -25.7988822 43.36428949 -25.80273438 41.0534668 C-25.81243312 37.52433652 -25.84345372 33.99579028 -25.875 30.46679688 C-25.88153085 28.22135762 -25.886781 25.97591421 -25.890625 23.73046875 C-25.9029718 22.67715866 -25.9153186 21.62384857 -25.92803955 20.53862 C-25.90900928 14.25521464 -25.45732207 9.56242025 -21.09765625 4.66796875 C-14.44483095 -0.60840994 -8.21973342 0.06938436 0 0 Z " fill="#000000" transform="translate(35.5625,15.6875)"/>
<path d="M0 0 C0.7027002 -0.00191345 1.40540039 -0.0038269 2.12939453 -0.00579834 C3.61556354 -0.00715975 5.10174445 -0.00346632 6.58789062 0.00488281 C8.86615646 0.01558346 11.14363377 0.00498661 13.421875 -0.0078125 C14.86458508 -0.0064909 16.30729466 -0.00392849 17.75 0 C19.06742188 0.00225586 20.38484375 0.00451172 21.7421875 0.00683594 C24.875 0.265625 24.875 0.265625 26.875 2.265625 C27.13378906 5.3984375 27.13378906 5.3984375 27.140625 9.390625 C27.14349518 10.44467529 27.14349518 10.44467529 27.14642334 11.52001953 C27.14778475 13.00618854 27.14409132 14.49236945 27.13574219 15.97851562 C27.12504154 18.25678146 27.13563839 20.53425877 27.1484375 22.8125 C27.1471159 24.25521008 27.14455349 25.69791966 27.140625 27.140625 C27.13836914 28.45804688 27.13611328 29.77546875 27.13378906 31.1328125 C26.875 34.265625 26.875 34.265625 24.875 36.265625 C21.75 36.390625 21.75 36.390625 18.875 36.265625 C17.2251993 32.96602359 17.49241639 29.27434616 17.3125 25.640625 C17.26931641 24.83882812 17.22613281 24.03703125 17.18164062 23.2109375 C17.07548543 21.2293739 16.97473145 19.24752229 16.875 17.265625 C16.05298096 18.11906494 15.23096191 18.97250488 14.3840332 19.85180664 C11.33356657 23.01078021 8.2633601 26.14993 5.18676758 29.28344727 C3.85739221 30.64301727 2.53344877 32.00792054 1.21508789 33.37817383 C-0.67984308 35.34579489 -2.59341656 37.29347288 -4.51171875 39.23828125 C-5.09837814 39.85590836 -5.68503754 40.47353546 -6.28947449 41.10987854 C-10.44144319 45.26520604 -10.44144319 45.26520604 -13.91333008 45.26733398 C-16.125 44.265625 -16.125 44.265625 -18.125 42.265625 C-18.12541437 38.48865798 -17.00067824 37.11952322 -14.53295898 34.21948242 C-13.40588537 33.09303882 -12.26789179 31.9774501 -11.12109375 30.87109375 C-10.52321548 30.27887527 -9.92533722 29.6866568 -9.30934143 29.07649231 C-7.40292983 27.19242031 -5.48306809 25.32275346 -3.5625 23.453125 C-2.26536347 22.17605646 -0.96912838 20.89807161 0.32617188 19.61914062 C3.49876337 16.49058448 6.68348828 13.37487311 9.875 10.265625 C8.67101562 10.20503906 7.46703125 10.14445312 6.2265625 10.08203125 C4.65102923 9.99762768 3.07550904 9.91297959 1.5 9.828125 C0.7059375 9.78880859 -0.088125 9.74949219 -0.90625 9.70898438 C-6.8984375 9.37890625 -6.8984375 9.37890625 -9.125 8.265625 C-9.25 5.390625 -9.25 5.390625 -9.125 2.265625 C-6.22058341 -0.63879159 -4.05742155 0.00694764 0 0 Z " fill="#000000" transform="translate(63.125,9.734375)"/>
</svg>
