<svg xmlns="http://www.w3.org/2000/svg" viewBox="0 0 96 96"><path d="M35.5625 15.6875c1.1491992-.029004 2.2983984-.0580078 3.4824219-.0878906l3.3339844-.0253907 3.0490722-.0441894C48 16 48 16 49.9763184 17.7141113 51 20 51 20 50.1875 22.75L49 25l-2.0319824.0759277c-3.0520135.1163803-6.1037502.2389158-9.1555176.3615723l-3.1972656.1191406-3.0957031.1269531-2.8405762.111084C26.04885 25.996256 23.5723359 26.4267832 21 27c-.819555 2.8766576-1.1302936 5.4421654-1.1452637 8.4296875l-.0193329 2.6293945-.0033722 2.815918-.010086 2.9135742c-.0050575 2.0307569-.0074087 4.061522-.007248 6.0922852-.002189 3.1075606-.0203644 6.2147676-.0393066 9.3222656-.0029336 1.9739571-.0049186 3.947916-.0058594 5.921875l-.0217742 2.815918.009323 2.6293945c-.0021374 1.141062-.0021374 1.141062-.0043182 2.3051758C20.040426 75.3473795 20.6350098 76.9208813 22 79c2.7807263.9269087 4.4460886 1.1264016 7.3161621 1.1293945l2.6296234.009552 2.8315583-.006134 2.9178619.0028992c2.0367387.0006806 4.0734796-.0011653 6.1102142-.0053406 3.116342-.0053441 6.2325395-.000054 9.348877.0063476 1.978516-.0006609 3.9570318-.0019423 5.9355469-.0039062l2.8254241.006134 2.6391755-.009552 2.3143158-.0024109C69.0263739 79.9984286 70.92576 79.5924825 73 79c.7877392-3.5350146 1.174958-6.9024979 1.3164063-10.5195313l.126953-3.095703L74.5625 62.1875l.1308594-3.2558594C74.7991098 56.2878792 74.9012024 53.644029 75 51c2.25-1.1875 2.25-1.1875 5-2 2.2814941 1.0302734 2.2814941 1.0302734 4 3 .501709 2.524414.501709 2.524414.4960938 5.515625l.001953 3.2929688L84.4375 64.25l.0214844 3.3945313c-.0531192 6.921832-.2655008 12.6463705-4.9589844 18.0976562-4.2351757 3.19844-7.0848125 4.3774279-12.335205 4.4189453l-2.9740754.0291138-3.2102508.0128784-3.3070527.017273c-2.3108065.0094506-4.6216266.0159842-6.9324493.0198364-3.5291303.0096987-7.0576765.0407193-10.58667.0722656-2.2454392.0065309-4.4908826.011781-6.736328.015625l-3.1918488.0374145C23.9498516 90.346531 19.2035929 89.922042 14.3554687 85.5c-3.2918354-4.2276416-4.4747168-7.03837-4.5166015-12.335205l-.0291138-2.9740754-.0128784-3.2102508-.017273-3.3070527c-.0094506-2.3108065-.0159842-4.6216266-.0198364-6.9324493-.0096987-3.5291303-.0407193-7.0576765-.0722656-10.58667-.0065309-2.2454392-.011781-4.4908826-.015625-6.736328L9.6344604 36.22612c.0190303-6.2834054.4707175-10.9761997 4.8303833-15.8706513C21.1176692 15.0790901 27.3427667 15.7568845 35.5625 15.6875Z"/><path d="m63.125 9.734375 2.1293945-.0057983c1.486169-.0013614 2.97235.002332 4.4584961.0106811 2.2782659.0107007 4.5557432.0001038 6.8339844-.0126953 1.44271.0013216 2.8854197.003884 4.328125.0078125l3.9921875.006836C88 10 88 10 90 12c.258789 3.1328125.258789 3.1328125.265625 7.125l.0057983 2.1293945c.0013615 1.486169-.002332 2.97235-.0106811 4.4584961-.0107007 2.2782659-.0001038 4.5557432.0126953 6.8339844-.0013216 1.44271-.003884 2.8854197-.0078125 4.328125l-.006836 3.9921875C90 44 90 44 88 46c-3.125.125-3.125.125-6 0-1.6498007-3.2996014-1.3825836-6.9912788-1.5625-10.625l-.1308594-2.4296875C80.2004854 30.9637489 80.0997315 28.9818973 80 27l-2.4909668 2.5861816c-3.0504666 3.1589736-6.1206731 6.2981234-9.1972656 9.4316407-1.3293754 1.35957-2.6533188 2.7244732-3.9716797 4.0947265-1.894931 1.967621-3.8085045 3.915299-5.7268067 5.8601075l-1.7777557 1.8715972c-4.1519687 4.1553275-4.1519687 4.1553275-7.6238556 4.1574555C47 54 47 54 45 52c-.0004144-3.776967 1.1243218-5.1461018 3.592041-8.0461426 1.1270736-1.1264436 2.2650672-2.2420323 3.4118652-3.3483886l1.8117524-1.7946015c1.9064116-1.884072 3.8262733-3.7537388 5.7468414-5.6233673 1.2971365-1.2770685 2.5933716-2.5550534 3.8886719-3.8339844C66.6237634 26.2249595 69.8084883 23.1092481 73 20l-3.6484375-.1835938c-1.5755333-.0844035-3.1510535-.1690516-4.7265625-.2539062l-2.40625-.1191406C56.2265625 19.1132813 56.2265625 19.1132813 54 18c-.125-2.875-.125-2.875 0-6 2.9044166-2.9044166 5.0675784-2.2586774 9.125-2.265625Z"/></svg>