<?xml version="1.0" encoding="UTF-8"?>
<svg version="1.1" xmlns="http://www.w3.org/2000/svg" width="100" height="100">
<path d="M0 0 C1.25683594 0.00322266 2.51367188 0.00644531 3.80859375 0.00976562 C5.12730469 0.01814453 6.44601563 0.02652344 7.8046875 0.03515625 C9.14452961 0.04017136 10.4843735 0.04473424 11.82421875 0.04882812 C15.10941956 0.06064539 18.39453147 0.07712008 21.6796875 0.09765625 C21.7094165 1.14107178 21.7094165 1.14107178 21.73974609 2.20556641 C21.83540874 5.37828946 21.94492054 8.55039112 22.0546875 11.72265625 C22.085625 12.81707031 22.1165625 13.91148438 22.1484375 15.0390625 C22.33310152 22.789359 22.33310152 22.789359 24.6796875 30.09765625 C28.21533213 32.45475267 29.89994005 32.3977536 34.09765625 32.51171875 C35.35126953 32.55039062 36.60488281 32.5890625 37.89648438 32.62890625 C39.20681641 32.65984375 40.51714844 32.69078125 41.8671875 32.72265625 C43.2024991 32.76084963 44.53778642 32.79990216 45.87304688 32.83984375 C49.14178638 32.93424778 52.41051814 33.01982642 55.6796875 33.09765625 C55.77877472 39.25402155 55.85126003 45.40991975 55.89941406 51.56689453 C55.91949409 53.66007578 55.9467639 55.75320117 55.98144531 57.84619141 C56.03012184 60.85984094 56.05269262 63.87274698 56.0703125 66.88671875 C56.09095764 67.81819733 56.11160278 68.7496759 56.13287354 69.7093811 C56.13485553 75.48536932 55.50241771 78.6857884 51.6796875 83.09765625 C49.11950714 84.37774643 47.2580347 84.25272748 44.39135742 84.29052734 C43.28648483 84.30659027 42.18161224 84.3226532 41.04325867 84.33920288 C35.98807326 84.3835766 30.93302005 84.42471426 25.87768555 84.44775391 C23.20877189 84.46108912 20.54166563 84.49161427 17.87280273 84.52978516 C14.03085237 84.58446976 10.18994306 84.60641612 6.34765625 84.62109375 C5.15480515 84.64376312 3.96195404 84.6664325 2.73295593 84.68978882 C-6.48124871 84.66622233 -6.48124871 84.66622233 -9.54956055 81.68994141 C-12.32000144 77.63416567 -12.4576104 75.46464156 -12.49731445 70.54003906 C-12.50388565 69.86663483 -12.51045685 69.19323059 -12.51722717 68.49942017 C-12.5369678 66.26653941 -12.54862568 64.03372601 -12.55859375 61.80078125 C-12.56266928 61.03782494 -12.5667448 60.27486862 -12.57094383 59.48879242 C-12.59180994 55.44891124 -12.60610809 51.40906405 -12.61547852 47.36914062 C-12.6265315 43.20165891 -12.66091641 39.03471283 -12.70065022 34.8674202 C-12.72683416 31.65886462 -12.735172 28.45043616 -12.73875999 25.24178314 C-12.74362306 23.70602561 -12.75522919 22.17027364 -12.77379799 20.63462067 C-12.79822419 18.48027036 -12.79721884 16.3272988 -12.7902832 14.17285156 C-12.79908257 12.33657196 -12.79908257 12.33657196 -12.80805969 10.4631958 C-12.22356128 6.43005619 -10.84686902 4.25677633 -8.3203125 1.09765625 C-5.50207058 -0.31146471 -3.14779968 -0.01417928 0 0 Z M6.6796875 45.09765625 C6.3496875 46.41765625 6.0196875 47.73765625 5.6796875 49.09765625 C8.477414 50.4965195 10.80357642 50.22740222 13.9296875 50.23046875 C15.80140625 50.23240234 15.80140625 50.23240234 17.7109375 50.234375 C19.67546875 50.22857422 19.67546875 50.22857422 21.6796875 50.22265625 C22.989375 50.22652344 24.2990625 50.23039062 25.6484375 50.234375 C26.89625 50.23308594 28.1440625 50.23179688 29.4296875 50.23046875 C30.57953125 50.22934082 31.729375 50.22821289 32.9140625 50.22705078 C35.63923225 50.28660193 35.63923225 50.28660193 37.6796875 49.09765625 C37.3496875 47.77765625 37.0196875 46.45765625 36.6796875 45.09765625 C26.7796875 45.09765625 16.8796875 45.09765625 6.6796875 45.09765625 Z M6.6796875 59.09765625 C6.08898736 61.04368899 6.08898736 61.04368899 5.6796875 63.09765625 C6.69605727 64.33686836 6.69605727 64.33686836 8.81274414 64.21118164 C10.18740845 64.20332642 10.18740845 64.20332642 11.58984375 64.1953125 C12.57919922 64.19208984 13.56855469 64.18886719 14.58789062 64.18554688 C16.14926758 64.17297852 16.14926758 64.17297852 17.7421875 64.16015625 C18.78697266 64.15564453 19.83175781 64.15113281 20.90820312 64.14648438 C23.4987541 64.13465538 26.08919309 64.11817314 28.6796875 64.09765625 C28.6796875 62.77765625 28.6796875 61.45765625 28.6796875 60.09765625 C27.67408956 58.86980816 27.67408956 58.86980816 25.63842773 58.98413086 C24.32660522 58.99198608 24.32660522 58.99198608 22.98828125 59 C22.04404297 59.00322266 21.09980469 59.00644531 20.12695312 59.00976562 C18.63711914 59.02233398 18.63711914 59.02233398 17.1171875 59.03515625 C16.12009766 59.03966797 15.12300781 59.04417969 14.09570312 59.04882812 C11.62363901 59.06065618 9.15169232 59.07713776 6.6796875 59.09765625 Z " fill="#000000" transform="translate(28.3203125,7.90234375)"/>
<path d="M0 0 C3.83605489 1.58363082 6.28445649 4.02614122 9.203125 6.9375 C9.6857782 7.41823975 10.1684314 7.89897949 10.66571045 8.39428711 C11.67999064 9.40721093 12.69176804 10.42264638 13.70117188 11.44042969 C15.25171972 13.00173165 16.81270503 14.55202497 18.375 16.1015625 C19.36001734 17.08790061 20.34441453 18.0748585 21.328125 19.0625 C22.67245605 20.41021484 22.67245605 20.41021484 24.04394531 21.78515625 C26 24 26 24 26 26 C21.85418113 26.02886751 17.70838784 26.04675327 13.5625 26.0625 C11.78649414 26.07506836 11.78649414 26.07506836 9.97460938 26.08789062 C8.84990234 26.09111328 7.72519531 26.09433594 6.56640625 26.09765625 C5.00321655 26.10551147 5.00321655 26.10551147 3.40844727 26.11352539 C1 26 1 26 0 25 C-0.08737645 23.14630389 -0.10698153 21.28932459 -0.09765625 19.43359375 C-0.09443359 18.30888672 -0.09121094 17.18417969 -0.08789062 16.02539062 C-0.07951172 14.84138672 -0.07113281 13.65738281 -0.0625 12.4375 C-0.05798828 11.24962891 -0.05347656 10.06175781 -0.04882812 8.83789062 C-0.03699675 5.89187774 -0.02051287 2.94596319 0 0 Z " fill="#000000" transform="translate(56,10)"/>
</svg>
