<svg xmlns="http://www.w3.org/2000/svg" viewBox="0 0 96 96"><path d="m28.3203125 7.9023438 3.8085938.0097656L36.125 7.9375c1.3398421.0050151 2.679686.009578 4.0195313.0136719C43.429732 7.962989 46.714844 7.9794639 50 8l.0600586 2.1079102c.0956626 3.172723.2051744 6.3448247.3149414 9.5170898l.09375 3.3164063C50.653414 30.6917028 50.653414 30.6917028 53 38c3.5356446 2.3570964 5.2202525 2.3000974 9.4179688 2.4140625l3.798828.1171875L70.1875 40.625c1.3353116.0381934 2.670599.077246 4.0058594.1171875C77.4620989 40.8365915 80.7308306 40.9221702 84 41c.0990872 6.1563653.1715725 12.3122635.2197266 18.4692383.02008 2.0931812.0473498 4.1863066.0820312 6.2792969.0486765 3.0136495.0712473 6.0265555.0888672 9.0405273l.062561 2.8226624C84.455168 83.387713 83.8227302 86.5881322 80 91c-2.5601804 1.2800902-4.4216528 1.1550712-7.28833 1.192871-1.1048727.016063-2.2097453.032126-3.3480988.0486756-5.0551854.0443737-10.1102386.0855114-15.1655732.108551-2.6689136.0133353-5.3360199.0438604-8.0048828.0820313-3.8419503.0546846-7.6828596.076631-11.5251465.0913086l-3.6147003.068695c-9.2142046-.0235664-9.2142046-.0235664-12.2825165-2.9998473-2.7704408-4.0557758-2.9080498-6.2252999-2.9477538-11.1499024l-.0199128-2.0406189c-.0197406-2.2328807-.0313985-4.4656941-.0413665-6.6986389l-.0123501-2.3119888c-.0208661-4.0398812-.0351643-8.0797284-.0445347-12.1196518-.011053-4.1674817-.045438-8.3344278-.0851717-12.5017205-.026184-3.2085555-.0345218-6.416984-.0381098-9.625637-.004863-1.5357575-.0164692-3.0715095-.035038-4.6071625-.0244262-2.1543503-.0234208-4.3073218-.0164852-6.461769l-.0177765-3.7096558C16.0967512 14.3323999 17.4734435 12.15912 20 9c2.818242-1.409121 5.1725128-1.1118355 8.3203125-1.0976563ZM35 53l-1 4c2.7977265 1.3988632 5.123889 1.129746 8.25 1.1328125l3.78125.0039063L50 58.125l3.96875.0117188 3.78125-.0039063 3.484375-.003418C63.9595447 58.1889457 63.9595447 58.1889457 66 57l-1-4H35Zm0 14c-.5907001 1.9460327-.5907001 1.9460327-1 4 1.0163698 1.2392121 1.0163698 1.2392121 3.1330566 1.1135254l2.7770996-.0158692 2.998047-.0097656L46.0625 72.0625l3.1660156-.0136719C51.8190666 72.0369991 54.4095056 72.020517 57 72v-4c-1.005598-1.227848-1.005598-1.227848-3.0412598-1.1135254l-2.6501465.0158692-2.861328.0097656L45.4375 66.9375l-3.0214844.0136719C39.9439516 66.9629999 37.4720048 66.9794815 35 67Z"/><path d="M56 10c3.8360549 1.5836308 6.2844565 4.0261412 9.203125 6.9375l1.4625855 1.4567871c1.0142801 1.0129238 2.0260575 2.0283593 3.0354614 3.0461426 1.5505478 1.561302 3.1115331 3.1115953 4.6738281 4.6611328.9850173.9863381 1.9694145 1.973296 2.953125 2.9609375l2.7158203 2.7226563C82 34 82 34 82 36c-4.1458189.0288675-8.2916122.0467533-12.4375.0625l-3.5878906.0253906-3.4082032.0097656-3.157959.0158692C57 36 57 36 56 35c-.0873765-1.8536961-.1069815-3.7106754-.0976563-5.5664063l.0097657-3.408203L55.9375 22.4375l.0136719-3.5996094C55.9630033 15.8918777 55.979487 12.9459632 56 10Z"/></svg>