<svg xmlns="http://www.w3.org/2000/svg" viewBox="0 0 96 96"><path d="m23.1867676 11.8388672 2.6200714-.0291138 2.8376922-.0128784 2.9149628-.017273c2.038507-.0094571 4.0770295-.0159868 6.1155548-.0198364 3.1144492-.009694 6.2282354-.040706 9.3425293-.0722656 1.9798138-.0065312 3.9596323-.0117812 5.9394531-.015625l2.8192902-.0374146C60.6515691 11.6511994 64.092568 11.7387917 68 15c2.4376922 3.6565383 2.2394444 5.690001 2 10-1 1-1 1-3.75 1.375C63 26 63 26 60.7856445 23.5136719c-3.5047003-3.1625236-6.1096868-3.2114706-10.605957-3.1074219l-2.243866-.000122c-1.5582838.0053415-3.1165682.0228663-4.674591.0518798-2.3860887.0419897-4.7693646.0410555-7.1557618.0341797-1.5169467.0104889-3.0338788.0234254-4.5507812.0390625l-2.1592102.0006103c-3.7813416.0555156-3.7813416.0555156-7.082611 1.7006836-1.6986584 2.2868317-1.6929689 3.6327932-1.7010499 6.4666748l-.028656 2.8820801.0184021 3.1062012-.0086975 3.1940918c-.0020421 2.2292535.003498 4.4585249.0160217 6.6877441.016051 3.4173988.0001557 6.8336148-.019043 10.2509766.0019825 2.1640651.005826 4.3281295.0117188 6.4921875l-.0184021 3.1062012.028656 2.88208.0072327 2.536377C21.0917266 72.5207762 21.816027 73.4044877 24 75c2.598617.3226232 4.95361.4680147 7.5546875.46875l2.2380676.0230713c1.561723.0107985 3.1235183.013655 4.6852722.0091553 2.3822582-.0009706 4.761275.0406072 7.1430664.0849609 1.5195246.0052087 3.0390603.0078952 4.5585938.0078125l2.1469421.0496826c3.9690967-.0550725 5.4663981-.4566678 8.459015-3.1571045L63 70c3.25-.375 3.25-.375 6 0 1 1 1 1 1.375 4.25C70 78 70 78 67.625 80.875c-3.243446 2.6256468-4.733914 3.2490559-8.7958984 3.3178711l-2.6102906.0486755c-3.9463013.0444989-7.8924345.0855267-11.8389282.108551-2.079541.0165455-4.1590255.0438169-6.2382812.0820313-3.0006252.0548604-5.999917.0766581-9.0009766.0913086l-2.8036499.068695c-4.412411-.0143883-7.399463-.1631908-10.9082642-2.9998473-3.373499-3.600705-3.5600534-5.2265596-3.621582-10.0483399l-.0486755-3.4596558c-.0443923-5.2285993-.0859624-10.4571109-.108551-15.685852-.0133237-2.758802-.0411448-5.5168616-.0820313-8.2753906-.0588883-3.9732865-.076641-7.946214-.0913086-11.9199219l-.068695-3.7316284c.0235673-9.5450312.0235673-9.5450312 2.9998473-13.234192 3.2234729-2.7820591 4.6468883-3.361417 8.7790528-3.3984374Z"/><path d="M67 31c4.8827516 1.485661 7.7844573 4.2348177 11.3125 7.75l1.6660156 1.5546875c2.4591555 2.4316618 3.918196 4.2848628 4.7675782 7.6601563C83.6461802 52.439361 81.0450805 54.718511 77.75 57.8125l-1.7773438 1.7714844C70.809225 64.5907722 70.809225 64.5907722 67 65c-2.25-1.9375-2.25-1.9375-4-4 1.2808625-3.6455317 2.1667101-5.1667101 5-8l-37-1-2-5 2-3c2.8302476-.3377152 5.4524397-.4890333 8.2890625-.5117188l2.480072-.0543975c2.6185691-.0542588 5.2369544-.0880477 7.8558655-.1213837 1.7734632-.0331594 3.546902-.0676478 5.3203125-.1035156C59.2967426 43.1238898 63.6481168 43.0571536 68 43l-1.9375-1.875C63 37.969697 63 37.969697 63 35c1.9375-2.25 1.9375-2.25 4-4Z"/></svg>