<svg xmlns="http://www.w3.org/2000/svg" viewBox="0 0 96 96"><path d="M61.5 28.5625C67.0634058 31.9291962 71.0334918 36.814438 73 43c.8059426 7.8438829 1.0967189 15.5918447-4 22-4.4513233 4.7044791-8.6906452 7.6599707-15.2695313 8.3359375-8.2741887.0912259-14.3147489-.1578349-20.4726562-5.984375-5.9317852-6.4994201-6.720777-12.2121812-6.5664063-20.9023438C27.27661 39.9082711 29.6445274 35.9993724 34.4375 31.625c7.2174266-5.9949854 18.540499-6.9031697 27.0625-3.0625ZM71 69c3.5497012.1972056 5.0393924 1.0308289 7.875 3.25C81 75 81 75 80.8125 77.8125L80 80c-2.125.875-2.125.875-5 1-2.5189532-1.6176764-4.3759746-3.4859394-6-6 .0583714-2.6267119.1110633-4.1110633 2-6Zm-43.125.125L30 70c.875 2.125.875 2.125 1 5-1.6169494 2.5178212-3.4821787 4.3830506-6 6-2.875-.125-2.875-.125-5-1-.875-2.125-.875-2.125-1-5 2.3004464-3.5821236 4.4968902-6.0653526 8.875-5.875Zm50-50L80 20c.875 2.125.875 2.125 1 5-1.6169494 2.5178213-3.4821788 4.3830506-6 6-2.875-.125-2.875-.125-5-1-.875-2.125-.875-2.125-1-5 2.3004464-3.5821236 4.4968902-6.0653526 8.875-5.875ZM21 19c3.5497012.1972056 5.0393924 1.0308288 7.875 3.25C31 25 31 25 30.8125 27.8125L30 30c-2.125.875-2.125.875-5 1-2.5189532-1.6176764-4.3759746-3.4859394-6-6 .0583714-2.6267119.1110633-4.1110633 2-6Zm26 60h6c1.176732 2.353464 1.1662387 3.8806033 1.1875 6.5l.0429688 2.40625C54 90 54 90 52 92c-4.5555556-.5555556-4.5555556-.5555556-6-2-.09824-1.4764888-.1297352-2.9577542-.125-4.4375l-.0078125-2.4335938C46 81 46 81 47 79Zm38.5-33.1875 2.40625-.0429688C90 46 90 46 92 48c-.5555556 4.5555556-.5555556 4.5555556-2 6-1.4764888.09824-2.9577542.1297352-4.4375.125l-2.4335938.0078125C81 54 81 54 79 53v-6c2.353464-1.176732 3.8806033-1.1662387 6.5-1.1875Zm-73.5039062.0546875L14.4375 45.875l2.4335938-.0078125C19 46 19 46 21 47v6c-2.353464 1.176732-3.8806033 1.1662387-6.5 1.1875l-2.40625.0429688C10 54 10 54 8 52c.721332-5.9149223.721332-5.9149223 3.9960938-6.1328125ZM48 8c4.5555556.5555556 4.5555556.5555556 6 2 .09824 1.4764888.1297352 2.9577542.125 4.4375l.0078125 2.4335938C54 19 54 19 53 21h-6c-1.176732-2.353464-1.1662387-3.8806033-1.1875-6.5l-.0429688-2.40625C46 10 46 10 48 8Z"/></svg>