<?xml version="1.0" encoding="UTF-8"?>
<svg version="1.1" xmlns="http://www.w3.org/2000/svg" width="100" height="100">
<path d="M0 0 C5.56340585 3.36669624 9.53349183 8.25193794 11.5 14.4375 C12.30594257 22.2813829 12.59671889 30.02934467 7.5 36.4375 C3.04867668 41.14197914 -1.19064516 44.09747071 -7.76953125 44.7734375 C-16.04371997 44.8646634 -22.08428015 44.61560264 -28.2421875 38.7890625 C-34.17397269 32.28964236 -34.96296445 26.57688134 -34.80859375 17.88671875 C-34.22339005 11.3457711 -31.85547257 7.43687235 -27.0625 3.0625 C-19.84507341 -2.93248543 -8.52200107 -3.84066973 0 0 Z " fill="#000000" transform="translate(61.5,28.5625)"/>
<path d="M0 0 C3.54970117 0.19720562 5.03939242 1.03082885 7.875 3.25 C10 6 10 6 9.8125 8.8125 C9.544375 9.534375 9.27625 10.25625 9 11 C6.875 11.875 6.875 11.875 4 12 C1.48104675 10.3823236 -0.37597462 8.51406064 -2 6 C-1.94162863 3.37328813 -1.88893674 1.88893674 0 0 Z " fill="#000000" transform="translate(71,69)"/>
<path d="M0 0 C0.70125 0.28875 1.4025 0.5775 2.125 0.875 C3 3 3 3 3.125 5.875 C1.50805057 8.39282125 -0.35717875 10.25805057 -2.875 11.875 C-5.75 11.75 -5.75 11.75 -7.875 10.875 C-8.75 8.75 -8.75 8.75 -8.875 5.875 C-6.57455364 2.29287638 -4.37810976 -0.1903526 0 0 Z " fill="#000000" transform="translate(27.875,69.125)"/>
<path d="M0 0 C0.70125 0.28875 1.4025 0.5775 2.125 0.875 C3 3 3 3 3.125 5.875 C1.50805057 8.39282125 -0.35717875 10.25805057 -2.875 11.875 C-5.75 11.75 -5.75 11.75 -7.875 10.875 C-8.75 8.75 -8.75 8.75 -8.875 5.875 C-6.57455364 2.29287638 -4.37810976 -0.1903526 0 0 Z " fill="#000000" transform="translate(77.875,19.125)"/>
<path d="M0 0 C3.54970117 0.19720562 5.03939242 1.03082885 7.875 3.25 C10 6 10 6 9.8125 8.8125 C9.544375 9.534375 9.27625 10.25625 9 11 C6.875 11.875 6.875 11.875 4 12 C1.48104675 10.3823236 -0.37597462 8.51406064 -2 6 C-1.94162863 3.37328813 -1.88893674 1.88893674 0 0 Z " fill="#000000" transform="translate(21,19)"/>
<path d="M0 0 C1.98 0 3.96 0 6 0 C7.17673198 2.35346396 7.16623866 3.8806033 7.1875 6.5 C7.20167969 7.2940625 7.21585938 8.088125 7.23046875 8.90625 C7 11 7 11 5 13 C0.44444444 12.44444444 0.44444444 12.44444444 -1 11 C-1.09823996 9.52351124 -1.12973519 8.04224583 -1.125 6.5625 C-1.12757812 5.75941406 -1.13015625 4.95632812 -1.1328125 4.12890625 C-1 2 -1 2 0 0 Z " fill="#000000" transform="translate(47,79)"/>
<path d="M0 0 C0.7940625 -0.01417969 1.588125 -0.02835938 2.40625 -0.04296875 C4.5 0.1875 4.5 0.1875 6.5 2.1875 C5.94444444 6.74305556 5.94444444 6.74305556 4.5 8.1875 C3.02351124 8.28573996 1.54224583 8.31723519 0.0625 8.3125 C-0.74058594 8.31507812 -1.54367188 8.31765625 -2.37109375 8.3203125 C-4.5 8.1875 -4.5 8.1875 -6.5 7.1875 C-6.5 5.2075 -6.5 3.2275 -6.5 1.1875 C-4.14653604 0.01076802 -2.6193967 0.02126134 0 0 Z " fill="#000000" transform="translate(85.5,45.8125)"/>
<path d="M0 0 C0.80566406 0.00257812 1.61132812 0.00515625 2.44140625 0.0078125 C3.64603516 0.00394531 3.64603516 0.00394531 4.875 0 C7.00390625 0.1328125 7.00390625 0.1328125 9.00390625 1.1328125 C9.00390625 3.1128125 9.00390625 5.0928125 9.00390625 7.1328125 C6.65044229 8.30954448 5.12330295 8.29905116 2.50390625 8.3203125 C1.70984375 8.33449219 0.91578125 8.34867188 0.09765625 8.36328125 C-1.99609375 8.1328125 -1.99609375 8.1328125 -3.99609375 6.1328125 C-3.27476176 0.21789022 -3.27476176 0.21789022 0 0 Z " fill="#000000" transform="translate(11.99609375,45.8671875)"/>
<path d="M0 0 C4.55555556 0.55555556 4.55555556 0.55555556 6 2 C6.09823996 3.47648876 6.12973519 4.95775417 6.125 6.4375 C6.12757812 7.24058594 6.13015625 8.04367188 6.1328125 8.87109375 C6 11 6 11 5 13 C3.02 13 1.04 13 -1 13 C-2.17673198 10.64653604 -2.16623866 9.1193967 -2.1875 6.5 C-2.20167969 5.7059375 -2.21585938 4.911875 -2.23046875 4.09375 C-2 2 -2 2 0 0 Z " fill="#000000" transform="translate(48,8)"/>
</svg>
