<?xml version="1.0" encoding="UTF-8"?>
<svg version="1.1" xmlns="http://www.w3.org/2000/svg" width="100" height="100">
<path d="M0 0 C5.52594164 2.15543422 8.68913671 8.53293612 11.18359375 13.609375 C15.57109482 24.77755954 15.60759416 36.98348963 11.31640625 48.16796875 C8.6554424 53.66130823 5.29290383 58.53116735 0.04296875 61.796875 C-2.70703125 60.984375 -2.70703125 60.984375 -4.95703125 59.796875 C-5.64728726 55.31021093 -4.67850542 53.05070902 -2.14453125 49.484375 C3.02779546 42.17219681 5.24997689 34.76896883 4.04296875 25.796875 C2.24815916 18.80097739 -0.64268028 13.51047494 -4.95703125 7.796875 C-5.70703125 5.75 -5.70703125 5.75 -5.95703125 3.796875 C-2.9619959 -0.30743271 -2.9619959 -0.30743271 0 0 Z " fill="#000000" transform="translate(79.95703125,19.203125)"/>
<path d="M0 0 C2.4375 0.9375 2.4375 0.9375 4 2.5625 C4.58199633 5.72190866 3.39637379 7.24142496 1.7265625 9.87109375 C0.25642451 12.22776949 -1.00061586 14.64449758 -2.25 17.125 C-2.66636719 17.94355469 -3.08273438 18.76210938 -3.51171875 19.60546875 C-6.74728534 26.78626151 -6.3905362 34.26097064 -3.875 41.625 C-2.53156121 45.04378689 -1.05632499 47.84773064 1.1875 50.75 C3.64571957 54.23247772 3.9443907 55.78099627 3.4375 59.9375 C1.7875 60.5975 0.1375 61.2575 -1.5625 61.9375 C-9.67098746 55.89588189 -13.19856945 48.70563592 -15.5625 38.9375 C-16.70056722 26.19379381 -15.31830263 14.78484277 -7.02734375 4.55859375 C-6.54394531 4.02363281 -6.06054688 3.48867188 -5.5625 2.9375 C-5.05976563 2.3703125 -4.55703125 1.803125 -4.0390625 1.21875 C-2.5625 -0.0625 -2.5625 -0.0625 0 0 Z " fill="#000000" transform="translate(21.5625,19.0625)"/>
<path d="M0 0 C3.3125 0.625 3.3125 0.625 5.0078125 2.52734375 C10.3398593 10.47389659 11.24785152 17.07831442 10.3125 26.625 C8.74739559 31.22103423 6.75774476 35.17975524 3.3125 38.625 C0.3125 38.875 0.3125 38.875 -2.6875 38.625 C-3.3475 37.965 -4.0075 37.305 -4.6875 36.625 C-4.4060122 32.30885369 -3.41244095 29.91763698 -0.6875 26.625 C1.01900749 21.50547753 0.97802977 17.22832171 -1.0625 12.3125 C-2.22574492 10.38867186 -3.4404415 8.49558776 -4.6875 6.625 C-4.00982346 0.93251708 -4.00982346 0.93251708 0 0 Z " fill="#000000" transform="translate(64.6875,30.375)"/>
<path d="M0 0 C3 0.25 3 0.25 5 2.25 C4.7185122 6.56614631 3.72494095 8.95736302 1 12.25 C-0.70650749 17.36952247 -0.66552977 21.64667829 1.375 26.5625 C2.53824492 28.48632814 3.7529415 30.37941224 5 32.25 C4.45945946 36.79054054 4.45945946 36.79054054 3 38.25 C0.3125 38.875 0.3125 38.875 -3 38.25 C-9.15708015 31.34101835 -10.3968818 24.96648411 -10.359375 15.91796875 C-9.76415794 9.84287286 -6.98576032 0.58214669 0 0 Z " fill="#000000" transform="translate(35,30.75)"/>
<path d="M0 0 C1.9375 1.6875 1.9375 1.6875 3 4 C2.92897215 7.4803645 2.61415498 9.29485909 0.3125 11.9375 C-2.89943934 13.41325591 -4.66474802 13.06444212 -8 12 C-9.9375 10.3125 -9.9375 10.3125 -11 8 C-10.92897215 4.5196355 -10.61415498 2.70514091 -8.3125 0.0625 C-5.10056066 -1.41325591 -3.33525198 -1.06444212 0 0 Z " fill="#000000" transform="translate(54,44)"/>
</svg>
