<svg xmlns="http://www.w3.org/2000/svg" viewBox="0 0 96 96"><path d="M79.9570313 19.203125c5.5259416 2.1554342 8.6891367 8.5329361 11.1835937 13.609375 4.387501 11.1681845 4.4240004 23.3741146.1328125 34.5585938C88.6124736 72.8644331 85.2499351 77.7342924 80 81c-2.75-.8125-2.75-.8125-5-2-.690256-4.486664.2785258-6.746166 2.8125-10.3125C82.9848267 61.3753218 85.2070081 53.9720938 84 45c-1.7948096-6.9958976-4.685649-12.2864-9-18-.75-2.046875-.75-2.046875-1-4 2.9950353-4.1043077 2.9950353-4.1043077 5.9570313-3.796875ZM21.5625 19.0625C24 20 24 20 25.5625 21.625c.5819963 3.1594087-.6036262 4.678925-2.2734375 7.3085938-1.470138 2.3566757-2.7271784 4.7734038-3.9765625 7.2539062l-1.2617188 2.4804688C14.8152147 45.8487614 15.1719639 53.3234705 17.6875 60.6875c1.3434388 3.4187869 2.818675 6.2227306 5.0625 9.125C25.2082196 73.2949777 25.5068907 74.8434963 25 79l-5 2C11.8915125 74.9583819 8.3639305 67.768136 6 58c-1.1380672-12.7437062.2441974-24.1526572 8.5351563-34.3789063L16 22l1.5234375-1.71875C19 19 19 19 21.5625 19.0625Z"/><path d="M64.6875 30.375C68 31 68 31 69.6953125 32.9023438 75.0273593 40.8488965 75.9353515 47.4533143 75 57c-1.5651044 4.5960342-3.5547552 8.5547552-7 12-3 .25-3 .25-6 0l-2-2c.2814878-4.3161463 1.275059-6.707363 4-10 1.7065075-5.1195225 1.6655298-9.3966783-.375-14.3125C62.461755 40.7636719 61.2470585 38.8705878 60 37c.6776765-5.692483.6776765-5.692483 4.6875-6.625ZM35 30.75C38 31 38 31 40 33c-.2814878 4.3161463-1.275059 6.707363-4 10-1.7065075 5.1195225-1.6655298 9.3966783.375 14.3125C37.538245 59.2363281 38.7529415 61.1294122 40 63c-.5405405 4.5405405-.5405405 4.5405405-2 6-2.6875.625-2.6875.625-6 0-6.1570801-6.9089817-7.3968818-13.2835159-7.359375-22.3320313C25.235842 40.592873 28.0142397 31.3321467 35 30.75ZM54 44c1.9375 1.6875 1.9375 1.6875 3 4-.0710279 3.4803645-.385845 5.294859-2.6875 7.9375C51.1005607 57.413256 49.335252 57.0644421 46 56c-1.9375-1.6875-1.9375-1.6875-3-4 .0710279-3.4803645.385845-5.294859 2.6875-7.9375C48.8994393 42.586744 50.664748 42.9355579 54 44Z"/></svg>