<?xml version="1.0" encoding="UTF-8"?>
<svg version="1.1" xmlns="http://www.w3.org/2000/svg" width="96" height="96">
<path d="M0 0 C2.0546875 1.1328125 2.0546875 1.1328125 3.9375 2.375 C4.55882812 2.76429687 5.18015625 3.15359375 5.8203125 3.5546875 C11.57591837 7.76549872 14.9252043 13.61894192 16.9375 20.375 C17.43243038 24.83472402 17.47899189 29.30087585 17.53442383 33.78417969 C17.66911254 39.92332436 18.57311138 44.0709671 21.84765625 49.3671875 C23.73632461 52.84666971 23.4809804 55.50270218 22.9375 59.375 C21.80322266 61.07339478 21.80322266 61.07339478 19.9375 62.375 C17.09130859 62.75595093 17.09130859 62.75595093 13.5859375 62.76318359 C11.61874756 62.77736832 11.61874756 62.77736832 9.61181641 62.7918396 C8.17870787 62.78646992 6.74560208 62.78031698 5.3125 62.7734375 C3.84423681 62.77545831 2.3759746 62.77836981 0.90771484 62.78213501 C-2.16904255 62.78655806 -5.24553861 62.7801282 -8.32226562 62.76611328 C-12.26690471 62.74902107 -16.21093148 62.7588624 -20.1555481 62.77683067 C-23.18730283 62.78766922 -26.21891229 62.78422192 -29.25067139 62.7764473 C-30.7051399 62.77444547 -32.15962158 62.77690398 -33.61407471 62.78388596 C-35.64635976 62.79150067 -37.67869102 62.77783742 -39.7109375 62.76318359 C-40.86770996 62.76079681 -42.02448242 62.75841003 -43.21630859 62.75595093 C-46.0625 62.375 -46.0625 62.375 -47.92822266 61.07339478 C-49.96391869 58.02527296 -49.72490366 54.83024071 -49.0625 51.375 C-48.2938271 49.9340827 -47.47609461 48.5188216 -46.625 47.125 C-43.72290381 41.90446943 -43.62604567 37.20674852 -43.5 31.375 C-43.31942151 24.02316462 -43.01495287 17.80892814 -39.0625 11.375 C-38.67449219 10.73691406 -38.28648438 10.09882813 -37.88671875 9.44140625 C-29.49054594 -2.07546796 -12.86696544 -5.18191782 0 0 Z " fill="#000000" transform="translate(61.0625,9.625)"/>
<path d="M0 0 C7.92 0 15.84 0 24 0 C23.0570981 4.71450951 22.66535232 6.21635908 18.94140625 9.04296875 C15.06001175 10.95633224 11.17514051 10.84585505 7 10 C4.2155166 8.62736734 3.10748414 7.43171247 1 5 C0.67 3.35 0.34 1.7 0 0 Z " fill="#000000" transform="translate(36,76)"/>
</svg>
