<svg xmlns="http://www.w3.org/2000/svg" viewBox="0 0 96 96"><path d="M61.0625 9.625C63.1171875 10.7578125 63.1171875 10.7578125 65 12l1.8828125 1.1796875C72.6384184 17.3904987 75.9877043 23.2439419 78 30c.4949304 4.459724.5414919 8.9258758.5969238 13.4091797.1346887 6.1391447 1.0386876 10.2867874 4.3132325 15.5830078C84.7988246 62.4716697 84.5434803 65.1277022 84 69c-1.1342773 1.6983948-1.1342773 1.6983948-3 3-2.8461914.380951-2.8461914.380951-6.3515625.3881836l-3.974121.028656c-1.4331086-.0053697-2.8662144-.0115226-4.2993165-.0184021-1.4682632.0020208-2.9365254.0049323-4.4047852.0086975-3.0767574.004423-6.1532534-.0020068-9.2299804-.0160217-3.9446391-.0170922-7.8886659-.0072509-11.8332825.0107174-3.0317547.0108385-6.0633642.0073912-9.0951233-.0003834-1.4544685-.0020018-2.9089502.0004567-4.3634033.0074387-2.032285.0076147-4.0646163-.0060486-6.0968628-.0207024l-3.505371-.0072327C15 72 15 72 13.1342772 70.6983948 11.0985813 67.650273 11.3375963 64.4552408 12 61c.7686729-1.4409173 1.5864054-2.8561784 2.4375-4.25 2.9020962-5.2205306 2.9989543-9.9182515 3.125-15.75.1805785-7.3518354.4850471-13.5660719 4.4375-20l1.1757813-1.9335938C31.571954 7.549532 48.1955346 4.4430822 61.0625 9.625ZM36 76h24c-.9429019 4.7145095-1.3346477 6.216359-5.0585938 9.0429688C51.0600118 86.9563321 47.1751406 86.845855 43 86c-2.7844834-1.3726327-3.8925159-2.5682875-6-5l-1-5Z"/></svg>