<svg xmlns="http://www.w3.org/2000/svg" viewBox="0 0 96 96"><path d="m28.3203125 7.9023438 3.8085938.0097656L36.125 7.9375c1.3398421.0050151 2.679686.009578 4.0195313.0136719C43.429732 7.962989 46.714844 7.9794639 50 8l.0441895 2.092041c.0749167 3.1573556.1714327 6.313704.2683105 9.470459l.0683594 3.2910156C50.5838677 28.9253098 50.973698 33.672214 54 39c2.791201 1.3956005 5.202057 1.2180829 8.3203125 1.3164063l3.8085938.126953L70.125 40.5625c1.3398575.0431951 2.6797016.0868097 4.0195313.1308594C77.4295781 40.7997098 80.7147028 40.901738 84 41v7l-1.75-.9375C80.0534444 46.0252376 78.408652 45.2960354 76 45c-1.9787683 1.121507-1.9787683 1.121507-3.8125 2.8125-7.1165763 6.1774817-15.6635272 5.5778297-24.625 5.8125l-3.6621094.1171875C40.9337418 53.8359945 37.9670916 53.9216925 35 54l-1 3 21 1v9l-20 1v3l20 1 1.8554688 8.59375c1.001299 2.9799753 2.0424228 5.0091548 3.7160644 7.6191406l1.3749542 2.1568604L63 92c-5.7473976.123776-11.4940163.2144225-17.2424316.2746582-1.9545646.0251146-3.9090356.0592131-5.8632813.102539-2.8126538.0607871-5.6240641.0890426-8.4372558.111084l-2.6394501.0782013c-4.4695732.0020573-6.2314394-.1009238-9.8461456-2.972-3.0494157-4.0131443-3.1079046-6.1246906-3.1484375-11.1520997l-.0199128-2.0406189c-.0197406-2.2328807-.0313985-4.4656941-.0413665-6.6986389l-.0123501-2.3119888c-.0208661-4.0398812-.0351643-8.0797284-.0445347-12.1196518-.011053-4.1674817-.045438-8.3344278-.0851717-12.5017205-.026184-3.2085555-.0345218-6.416984-.0381098-9.625637-.004863-1.5357575-.0164692-3.0715095-.035038-4.6071625-.0244262-2.1543503-.0234208-4.3073218-.0164852-6.461769l-.0177765-3.7096558C16.0967512 14.3323999 17.4734435 12.15912 20 9c2.818242-1.409121 5.1725128-1.1118355 8.3203125-1.0976563Z"/><path d="M75 48c4.36899.2647873 7.1925862 2.2804187 10.6445313 4.7460938C88.9807488 54.52209 92.3148375 55.17209 96 56c.1176672 3.4788747.1877331 6.9572277.25 10.4375l.1015625 2.9511719C96.4557863 77.1793988 95.1489923 83.315925 90 89.3398437L88 90.9375l-2 1.6523438C81.933736 95.4568774 79.0399424 96.6784538 74 96c-6.813935-3.119149-11.4611345-7.6744228-14.625-14.5117188C57.5156756 76.3555566 57.6673255 71.3975126 57.8125 66l.0410156-2.9257813C57.8885454 60.7155457 57.9376592 58.3580824 58 56l2.0622559-.581543 2.7150879-.7856445 2.6872558-.769043C69.1514983 52.6077033 72.2224166 50.7775834 75 48ZM56 10c4.1280546 3.5383325 8.025868 6.8987209 11.8398438 10.7070313l2.5292968 2.5253906L72.9375 25.8125l2.6503906 2.6386719 2.5019532 2.5058594 2.2770996 2.2805175C82 35 82 35 82 36c-3.958318.0289286-7.9166092.0467743-11.875.0625l-3.4179688.0253906-3.2617187.0097656-3.0151367.0158692C58 36 58 36 56 35V10Z"/></svg>