<?xml version="1.0" encoding="UTF-8"?>
<svg version="1.1" xmlns="http://www.w3.org/2000/svg" width="100" height="100">
<path d="M0 0 C1.25683594 0.00322266 2.51367188 0.00644531 3.80859375 0.00976562 C5.12730469 0.01814453 6.44601563 0.02652344 7.8046875 0.03515625 C9.14452961 0.04017136 10.4843735 0.04473424 11.82421875 0.04882812 C15.10941956 0.06064539 18.39453147 0.07712008 21.6796875 0.09765625 C21.69427002 0.78802979 21.70885254 1.47840332 21.72387695 2.18969727 C21.79879367 5.34705285 21.89530967 8.50340126 21.9921875 11.66015625 C22.02602539 13.28920898 22.02602539 13.28920898 22.06054688 14.95117188 C22.26355519 21.02296602 22.65338546 25.76987019 25.6796875 31.09765625 C28.47088841 32.4932567 30.88174442 32.31573913 34 32.4140625 C35.88525391 32.4769043 35.88525391 32.4769043 37.80859375 32.54101562 C39.12730469 32.58033203 40.44601563 32.61964844 41.8046875 32.66015625 C43.14454501 32.70335137 44.48438906 32.74696598 45.82421875 32.79101562 C49.10926565 32.89736606 52.39439031 32.99939433 55.6796875 33.09765625 C55.6796875 35.40765625 55.6796875 37.71765625 55.6796875 40.09765625 C55.1021875 39.78828125 54.5246875 39.47890625 53.9296875 39.16015625 C51.73313186 38.12289386 50.08833958 37.3936917 47.6796875 37.09765625 C45.70091916 38.21916325 45.70091916 38.21916325 43.8671875 39.91015625 C36.75061119 46.08763795 28.20366032 45.48798593 19.2421875 45.72265625 C17.42944336 45.78066406 17.42944336 45.78066406 15.58007812 45.83984375 C12.61342933 45.93365083 9.64677914 46.01934871 6.6796875 46.09765625 C6.3496875 47.08765625 6.0196875 48.07765625 5.6796875 49.09765625 C12.6096875 49.42765625 19.5396875 49.75765625 26.6796875 50.09765625 C26.6796875 53.06765625 26.6796875 56.03765625 26.6796875 59.09765625 C16.7796875 59.59265625 16.7796875 59.59265625 6.6796875 60.09765625 C6.6796875 61.08765625 6.6796875 62.07765625 6.6796875 63.09765625 C13.2796875 63.42765625 19.8796875 63.75765625 26.6796875 64.09765625 C27.29817708 66.96223958 27.91666667 69.82682292 28.53515625 72.69140625 C29.5364553 75.67138157 30.5775791 77.70056109 32.2512207 80.31054688 C32.7049556 81.02231079 33.15869049 81.73407471 33.62617493 82.46740723 C34.14766365 83.27438049 34.14766365 83.27438049 34.6796875 84.09765625 C28.93228992 84.22143229 23.18567123 84.31207873 17.43725586 84.37231445 C15.48269127 84.39742906 13.52822033 84.43152756 11.57397461 84.47485352 C8.76132082 84.53564059 5.94991048 84.56389608 3.13671875 84.5859375 C2.26570023 84.61174393 1.3946817 84.63755035 0.49726868 84.66413879 C-3.97230449 84.66619609 -5.73417066 84.56321494 -9.34887695 81.69213867 C-12.39829258 77.67899442 -12.45678153 75.56744818 -12.49731445 70.54003906 C-12.50388565 69.86663483 -12.51045685 69.19323059 -12.51722717 68.49942017 C-12.5369678 66.26653941 -12.54862568 64.03372601 -12.55859375 61.80078125 C-12.56266928 61.03782494 -12.5667448 60.27486862 -12.57094383 59.48879242 C-12.59180994 55.44891124 -12.60610809 51.40906405 -12.61547852 47.36914062 C-12.6265315 43.20165891 -12.66091641 39.03471283 -12.70065022 34.8674202 C-12.72683416 31.65886462 -12.735172 28.45043616 -12.73875999 25.24178314 C-12.74362306 23.70602561 -12.75522919 22.17027364 -12.77379799 20.63462067 C-12.79822419 18.48027036 -12.79721884 16.3272988 -12.7902832 14.17285156 C-12.79908257 12.33657196 -12.79908257 12.33657196 -12.80805969 10.4631958 C-12.22356128 6.43005619 -10.84686902 4.25677633 -8.3203125 1.09765625 C-5.50207058 -0.31146471 -3.14779968 -0.01417928 0 0 Z " fill="#000000" transform="translate(28.3203125,7.90234375)"/>
<path d="M0 0 C4.36899007 0.26478728 7.19258621 2.28041872 10.64453125 4.74609375 C13.98074878 6.52209015 17.31483763 7.17208996 21 8 C21.11766716 11.47887472 21.18773315 14.9572277 21.25 18.4375 C21.30027344 19.89833008 21.30027344 19.89833008 21.3515625 21.38867188 C21.45578627 29.17939878 20.1489923 35.31592502 15 41.33984375 C14.34 41.86707031 13.68 42.39429688 13 42.9375 C12.34 43.48277344 11.68 44.02804688 11 44.58984375 C6.933736 47.45687754 4.03994242 48.67845379 -1 48 C-7.81393499 44.88085097 -12.46113447 40.3255772 -15.625 33.48828125 C-17.48432435 28.35555661 -17.33267448 23.39751255 -17.1875 18 C-17.17396484 17.03449219 -17.16042969 16.06898437 -17.14648438 15.07421875 C-17.11145458 12.71554575 -17.06234084 10.35808229 -17 8 C-16.31945557 7.80809082 -15.63891113 7.61618164 -14.93774414 7.41845703 C-14.04176514 7.15919434 -13.14578613 6.89993164 -12.22265625 6.6328125 C-11.33586182 6.37902832 -10.44906738 6.12524414 -9.53540039 5.86376953 C-5.84850166 4.60770331 -2.77758337 2.77758337 0 0 Z " fill="#000000" transform="translate(75,48)"/>
<path d="M0 0 C4.12805463 3.53833254 8.02586805 6.89872087 11.83984375 10.70703125 C12.67451172 11.54041016 13.50917969 12.37378906 14.36914062 13.23242188 C15.21669922 14.08384766 16.06425781 14.93527344 16.9375 15.8125 C17.81212891 16.68326172 18.68675781 17.55402344 19.58789062 18.45117188 C20.41353516 19.27810547 21.23917969 20.10503906 22.08984375 20.95703125 C22.84128662 21.70960205 23.59272949 22.46217285 24.36694336 23.23754883 C26 25 26 25 26 26 C22.04168191 26.02892857 18.08339083 26.04677427 14.125 26.0625 C12.43310547 26.07506836 12.43310547 26.07506836 10.70703125 26.08789062 C9.63066406 26.09111328 8.55429688 26.09433594 7.4453125 26.09765625 C6.45031738 26.10289307 5.45532227 26.10812988 4.43017578 26.11352539 C2 26 2 26 0 25 C0 16.75 0 8.5 0 0 Z " fill="#000000" transform="translate(56,10)"/>
</svg>
