<svg xmlns="http://www.w3.org/2000/svg" viewBox="0 0 96 96"><path d="M83 11c1.8316459 1.5927356 3.3951902 3.1738372 5 5 2.2729294-1.0188994 3.8302456-1.8090263 5.5-3.6875C95 11 95 11 97.125 11.125L99 12c1.0125503 3.037651 1.1290059 5.1116222 1.1328125 8.2890625l.0039063 3.1015625L100.125 26.625l.0117188 3.2578125-.0039063 3.09375-.003418 2.8461914C100 38 100 38 99 39c-2.8847165.1011138-5.7404313.1386279-8.625.125l-2.4101563.0117188C83.2053557 39.1289035 78.6934737 38.7927314 74 38c-.875-2.0625-.875-2.0625-1-5 1.7391913-2.5900573 3.8039793-4.7912488 6-7-9.091436-8.607849-18.4673408-13.6422965-31.2265625-13.3085938C36.8232571 13.9098067 28.2271465 18.0173677 21 26.2890626 14.5949394 34.6957045 11.6403963 44.4476214 13 55c2.293125 11.1789847 6.6608097 18.9499026 15.75 25.875 8.9820765 5.8655681 18.9927384 7.613669 29.4492188 5.46875C65.7462218 84.310179 71.4090401 81.4775529 77 76l1.7070313-1.6679688c4.3055158-4.9377181 5.9211057-10.6745975 7.6455078-16.8728027C87.8230175 52.1769825 87.8230175 52.1769825 90 50c6.0045872-.5458716 6.0045872-.5458716 8.9375 1.0625 2.1625285 3.9434343 1.4085381 7.4936148.40625 11.6757813-4.4631053 14.83213-12.829249 25.3591781-26.3320313 32.75C61.180317 101.4270004 46.1732557 102.2998468 33.4375 98.4375 18.0061882 92.2475388 9.0019898 82.4493569 1.8945312 67.7070312c-4.1176114-10.9223025-3.5215208-26.3182684.7773438-37.0351562C9.7860315 16.359866 19.3423677 6.7767932 34.5 1.0625 51.8605353-3.432137 68.803898.4704409 83 11Z"/></svg>