<?xml version="1.0" encoding="UTF-8"?>
<svg version="1.1" xmlns="http://www.w3.org/2000/svg" width="100" height="100">
<path d="M0 0 C1.83164588 1.59273555 3.39519024 3.17383717 5 5 C7.27292941 3.98110061 8.83024561 3.19097369 10.5 1.3125 C12 0 12 0 14.125 0.125 C14.74375 0.41375 15.3625 0.7025 16 1 C17.01255033 4.03765099 17.12900588 6.11162221 17.1328125 9.2890625 C17.13410156 10.31257813 17.13539062 11.33609375 17.13671875 12.390625 C17.13285156 13.45796875 17.12898438 14.5253125 17.125 15.625 C17.12886719 16.70007813 17.13273437 17.77515625 17.13671875 18.8828125 C17.13542969 19.90375 17.13414063 20.9246875 17.1328125 21.9765625 C17.13168457 22.91580566 17.13055664 23.85504883 17.12939453 24.82275391 C17 27 17 27 16 28 C13.11528347 28.10111378 10.25956869 28.13862788 7.375 28.125 C6.18197266 28.13080078 6.18197266 28.13080078 4.96484375 28.13671875 C0.20535565 28.1289035 -4.30652624 27.79273149 -9 27 C-9.875 24.9375 -9.875 24.9375 -10 22 C-8.26080867 19.40994275 -6.19602066 17.20875121 -4 15 C-13.09143597 6.39215105 -22.46734084 1.35770353 -35.2265625 1.69140625 C-46.17674289 2.9098066 -54.77285356 7.01736755 -62 15.2890625 C-68.40506061 23.69570455 -71.35960369 33.44762137 -70 44 C-67.70687494 55.17898468 -63.33919028 62.94990265 -54.25 69.875 C-45.26792351 75.74056813 -35.25726161 77.48866905 -24.80078125 75.34375 C-17.25377824 73.31017892 -11.5909598 70.4775529 -6 65 C-5.43667969 64.44957031 -4.87335938 63.89914063 -4.29296875 63.33203125 C0.0125471 58.39431307 1.62813703 52.65743372 3.35253906 46.45922852 C4.82301747 41.17698253 4.82301747 41.17698253 7 39 C13.00458716 38.45412844 13.00458716 38.45412844 15.9375 40.0625 C18.10002851 44.00593434 17.3460381 47.55611483 16.34375 51.73828125 C11.8806447 66.57041137 3.51450108 77.09745943 -9.98828125 84.48828125 C-21.81968297 90.4270004 -36.82674439 91.2998468 -49.5625 87.4375 C-64.99381181 81.24753876 -73.99801021 71.4493569 -81.10546875 56.70703125 C-85.22308016 45.78472868 -84.6269896 30.38876281 -80.328125 19.671875 C-73.21396853 5.35986609 -63.65763227 -4.22320677 -48.5 -9.9375 C-31.13946469 -14.43213697 -14.19610201 -10.5295591 0 0 Z " fill="#000000" transform="translate(83,11)"/>
</svg>
