<svg xmlns="http://www.w3.org/2000/svg" viewBox="0 0 96 96"><path d="m28 12 .0441895 1.880127c.0744764 2.8114193.1711361 5.6216505.2683105 8.432373l.0683594 2.9589844.1074219 2.8417969.0793457 2.6184082c.2942368 2.2852479.2942368 2.2852479 1.5424804 4.048828 2.8553755 1.8424753 5.2686993 1.6085852 8.6398926 1.61792l1.9833984.0086975c1.3818448.0020387 2.7637185-.0034775 4.1455079-.0160217 2.1139382-.016059 4.2259648-.0001473 6.3398437.019043 1.3437542-.0019825 2.6875072-.0058263 4.03125-.0117188l3.703125-.010254c2.9885914-.158004 2.9885914-.158004 4.9367676-1.607666 1.4444557-2.3167837 1.5392971-3.9437782 1.6218261-6.6672363l.107422-2.8417968L65.6875 22.3125l.1035156-2.9941406c.0824898-2.43934.151635-4.87832.2089844-7.3183594 3.9149492 1.8202366 6.7668754 4.3648705 9.875 7.3125 1.0169305.9558107 2.0351583 1.910243 3.0546875 2.8632813l1.3510742 1.2785644c1.8533925 1.7547508 1.8533925 1.7547508 4.8657227 3.5212402 2.0821062 1.7419925 2.7747124 2.6908548 3.405304 5.3600312.210468 2.9758803.227149 5.8962747.1747741 8.8792266l.0030212 3.2984772c-.004675 2.2989381-.0240946 4.597887-.0572204 6.8965912-.0471551 3.5120844-.0411242 7.021127-.027832 10.5334473-.0111557 2.2363461-.0253768 4.4726796-.0429688 6.7089844l.0055237 3.1728363C88.4905842 77.8412182 88.0162995 81.4184819 84 86c-3.0378477 2.155892-5.3545973 2.060056-9 2l-.0600586-2.6745605c-.07832-3.289659-.16502-6.5788791-.2573242-9.8681641-.0381687-1.4208127-.0730423-2.841718-.1044922-4.2626953-.0459156-2.0482686-.103863-4.0959062-.1640625-6.1437988l-.0952148-3.7292481C74.0068347 58.0711996 73.5930416 55.8426292 72 53c-3.4844526-2.7836747-7.8309769-2.305949-12.0898438-2.3007813-.7815394-.004285-1.5630789-.0085702-2.3683013-.0129852-1.6499282-.0057326-3.2998815-.0062514-4.9498139-.0019073-2.5174493.0031586-5.0337213-.0203066-7.5510254-.0456543-1.6061183-.0022733-3.2122398-.0029764-4.8183594-.0019531l-2.2700042-.0279084C33.4899059 50.6481024 30.4588494 51.0836182 27 54c-1.5232989 3.368428-1.2082141 7.3055053-1.3164063 10.953125l-.062973 2.0006714C25.5554985 69.05243 25.496415 71.1511837 25.4375 73.25c-.0432208 1.4270955-.0868362 2.854179-.1308594 4.28125C25.199856 81.0207072 25.0984843 84.5102975 25 88c-5.8114266-.6084905-8.2095247-1.4291327-12-6-1.3241875-2.648375-1.1490185-4.6737772-1.177002-7.6396484l-.0388946-3.5809937-.0223846-3.8887329-.0244599-3.9839477c-.0150292-2.787576-.0248653-5.5751266-.032425-8.362732-.0110468-3.5621816-.0454252-7.1237355-.0851716-10.6856956-.0325157-3.4058494-.0369498-6.8116321-.0454435-10.2176247l-.0530549-3.8641968C11.5481151 18.7738651 11.5481151 18.7738651 16 14c3.5740877-2.8082118 7.6534251-2.0439937 12-2Z"/><path d="M31 56h38v32H31V56Zm2-44h28l.0625 9.4375.0275879 2.9782715.0075683 2.3303222.0158692 2.3962403C61 31 61 31 60 32c-1.9996498.08758-4.0023611.1069658-6.0039063.0976563l-3.6816406-.0097657L46.4375 32.0625l-3.8886719-.0136719C39.3658658 32.0369955 36.1829273 32.0190594 33 32V12Z"/></svg>