<?xml version="1.0" encoding="UTF-8"?>
<svg version="1.1" xmlns="http://www.w3.org/2000/svg" width="100" height="100">
<path d="M0 0 C0.01458252 0.62044189 0.02916504 1.24088379 0.04418945 1.88012695 C0.11866588 4.69154633 0.21532564 7.50177749 0.3125 10.3125 C0.33505859 11.28896484 0.35761719 12.26542969 0.38085938 13.27148438 C0.4340332 14.67817383 0.4340332 14.67817383 0.48828125 16.11328125 C0.51446533 16.97735596 0.54064941 17.84143066 0.56762695 18.73168945 C0.86186376 21.01693736 0.86186376 21.01693736 2.11010742 22.78051758 C4.96548291 24.62299278 7.37880669 24.38910271 10.75 24.3984375 C11.40452148 24.40130768 12.05904297 24.40417786 12.73339844 24.40713501 C14.11524319 24.40917368 15.49711693 24.40365746 16.87890625 24.39111328 C18.9928445 24.37505436 21.10487113 24.39096601 23.21875 24.41015625 C24.56250422 24.40817378 25.90625724 24.40433002 27.25 24.3984375 C29.08304688 24.39336182 29.08304688 24.39336182 30.953125 24.38818359 C33.94171636 24.23017956 33.94171636 24.23017956 35.88989258 22.78051758 C37.33434834 20.46373379 37.42918972 18.83673929 37.51171875 16.11328125 C37.54716797 15.17548828 37.58261719 14.23769531 37.61914062 13.27148438 C37.64169922 12.29501953 37.66425781 11.31855469 37.6875 10.3125 C37.72166016 9.32443359 37.75582031 8.33636719 37.79101562 7.31835938 C37.87350538 4.87901947 37.94265068 2.44003937 38 0 C41.91494916 1.8202366 44.76687539 4.36487049 47.875 7.3125 C48.89193052 8.26831066 49.91015826 9.22274305 50.9296875 10.17578125 C51.37554199 10.59770752 51.82139648 11.01963379 52.28076172 11.4543457 C54.13415417 13.20909649 54.13415417 13.20909649 57.14648438 14.97558594 C59.22859059 16.71757841 59.92119678 17.66644066 60.55178833 20.33561707 C60.76225643 23.31149738 60.77893744 26.2318918 60.7265625 29.21484375 C60.72805801 30.84758995 60.72805801 30.84758995 60.72958374 32.51332092 C60.72490874 34.81225902 60.70548906 37.11120793 60.67236328 39.40991211 C60.62520816 42.92199648 60.63123913 46.43103918 60.64453125 49.94335938 C60.63337561 52.17970554 60.61915451 54.41603895 60.6015625 56.65234375 C60.60429672 58.22289772 60.60429672 58.22289772 60.60708618 59.82518005 C60.49058419 65.84121833 60.01629952 69.41848185 56 74 C52.96215227 76.15589193 50.64540266 76.06005606 47 76 C46.970271 74.67609253 46.970271 74.67609253 46.93994141 73.32543945 C46.86162134 70.03578043 46.77492145 66.74656036 46.68261719 63.45727539 C46.64444851 62.0364627 46.60957487 60.61555737 46.578125 59.19458008 C46.53220935 57.14631145 46.47426195 55.09867392 46.4140625 53.05078125 C46.3826416 51.82012939 46.3512207 50.58947754 46.31884766 49.3215332 C46.00683475 46.07119963 45.59304158 43.84262924 44 41 C40.51554744 38.21632532 36.1690231 38.69405109 31.91015625 38.69921875 C31.12861679 38.69493362 30.34707733 38.6906485 29.54185486 38.68623352 C27.89192675 38.68050085 26.24197337 38.67998213 24.59204102 38.68432617 C22.07459169 38.68748483 19.55831966 38.66401964 17.04101562 38.63867188 C15.43489731 38.63639855 13.82877585 38.63569554 12.22265625 38.63671875 C11.47355484 38.627509 10.72445343 38.61829926 9.95265198 38.60881042 C5.48990589 38.64810249 2.45884943 39.08361819 -1 42 C-2.52329886 45.36842804 -2.20821414 49.30550532 -2.31640625 52.953125 C-2.33718735 53.61334656 -2.35796844 54.27356812 -2.37937927 54.95379639 C-2.44450147 57.05243015 -2.50358502 59.15118372 -2.5625 61.25 C-2.60572079 62.67709547 -2.6493362 64.10417905 -2.69335938 65.53125 C-2.80014411 69.02070722 -2.90151566 72.51029753 -3 76 C-8.8114266 75.39150945 -11.20952466 74.57086732 -15 70 C-16.32418747 67.35162506 -16.14901853 65.32622278 -16.17700195 62.36035156 C-16.18983719 61.17862366 -16.20267242 59.99689575 -16.21589661 58.77935791 C-16.22328354 57.49607605 -16.23067047 56.21279419 -16.23828125 54.890625 C-16.246353 53.57592224 -16.25442474 52.26121948 -16.26274109 50.90667725 C-16.27777034 48.11910124 -16.28760645 45.33155073 -16.29516602 42.54394531 C-16.30621295 38.98176372 -16.34059129 35.42020984 -16.38033772 31.85824966 C-16.41285342 28.45240031 -16.41728747 25.04661756 -16.42578125 21.640625 C-16.44328934 20.36544006 -16.46079742 19.09025513 -16.47883606 17.77642822 C-16.45188491 6.7738651 -16.45188491 6.7738651 -12 2 C-8.42591228 -0.80821178 -4.34657486 -0.04399367 0 0 Z " fill="#000000" transform="translate(28,12)"/>
<path d="M0 0 C12.54 0 25.08 0 38 0 C38 10.56 38 21.12 38 32 C25.46 32 12.92 32 0 32 C0 21.44 0 10.88 0 0 Z " fill="#000000" transform="translate(31,56)"/>
<path d="M0 0 C9.24 0 18.48 0 28 0 C28.020625 3.114375 28.04125 6.22875 28.0625 9.4375 C28.071604 10.42032959 28.08070801 11.40315918 28.09008789 12.41577148 C28.09258545 13.18477783 28.09508301 13.95378418 28.09765625 14.74609375 C28.10551147 15.93223267 28.10551147 15.93223267 28.11352539 17.14233398 C28 19 28 19 27 20 C25.00035018 20.08758003 22.9976389 20.10696576 20.99609375 20.09765625 C19.78115234 20.09443359 18.56621094 20.09121094 17.31445312 20.08789062 C16.03505859 20.07951172 14.75566406 20.07113281 13.4375 20.0625 C12.15423828 20.05798828 10.87097656 20.05347656 9.54882812 20.04882812 C6.3658658 20.03699555 3.18292726 20.01905944 0 20 C0 13.4 0 6.8 0 0 Z " fill="#000000" transform="translate(33,12)"/>
</svg>
