<?xml version="1.0" encoding="UTF-8"?>
<svg version="1.1" xmlns="http://www.w3.org/2000/svg" width="96" height="96">
<path d="M0 0 C1.19496094 -0.00386719 1.19496094 -0.00386719 2.4140625 -0.0078125 C3.24679688 -0.00007812 4.07953125 0.00765625 4.9375 0.015625 C5.77023438 0.00789062 6.60296875 0.00015625 7.4609375 -0.0078125 C8.25757813 -0.00523437 9.05421875 -0.00265625 9.875 0 C10.60589844 0.00225586 11.33679687 0.00451172 12.08984375 0.00683594 C13.9375 0.265625 13.9375 0.265625 15.9375 2.265625 C16.39412153 4.45853582 16.757912 6.67148389 17.0625 8.890625 C17.31386719 10.67339844 17.31386719 10.67339844 17.5703125 12.4921875 C17.69148438 13.40742188 17.81265625 14.32265625 17.9375 15.265625 C21.81780202 15.40206319 23.86897714 15.29567889 27.5 13.703125 C31.21266446 12.15055623 32.23662903 12.00290645 35.9375 13.265625 C40.23438078 17.7855944 42.65442836 23.23518829 43.9375 29.265625 C39.27945933 34.05305568 39.27945933 34.05305568 36.625 35.703125 C34.68029228 37.22486929 34.68029228 37.22486929 34.1875 40.078125 C35.21069433 44.42670092 37.43570713 45.53167295 41.08984375 47.87109375 C42.9375 49.265625 42.9375 49.265625 43.9375 52.265625 C42.14397636 58.27509381 38.71197065 63.33784388 34.9375 68.265625 C28.41854956 67.51343841 28.41854956 67.51343841 25.875 66.203125 C23.20479636 64.91109098 20.86776316 65.20598599 17.9375 65.265625 C17.75574219 66.63847656 17.75574219 66.63847656 17.5703125 68.0390625 C17.31894531 69.82183594 17.31894531 69.82183594 17.0625 71.640625 C16.90007813 72.82398437 16.73765625 74.00734375 16.5703125 75.2265625 C15.9375 78.265625 15.9375 78.265625 13.9375 80.265625 C12.08984375 80.52441406 12.08984375 80.52441406 9.875 80.53125 C8.68003906 80.53511719 8.68003906 80.53511719 7.4609375 80.5390625 C6.62820312 80.53132813 5.79546875 80.52359375 4.9375 80.515625 C3.68839844 80.52722656 3.68839844 80.52722656 2.4140625 80.5390625 C1.61742187 80.53648438 0.82078125 80.53390625 0 80.53125 C-0.73089844 80.52899414 -1.46179687 80.52673828 -2.21484375 80.52441406 C-4.0625 80.265625 -4.0625 80.265625 -6.0625 78.265625 C-6.51912153 76.07271418 -6.882912 73.85976611 -7.1875 71.640625 C-7.35507812 70.45210938 -7.52265625 69.26359375 -7.6953125 68.0390625 C-7.81648438 67.12382813 -7.93765625 66.20859375 -8.0625 65.265625 C-11.94280202 65.12918681 -13.99397714 65.23557111 -17.625 66.828125 C-21.33766446 68.38069377 -22.36162903 68.52834355 -26.0625 67.265625 C-30.35938078 62.7456556 -32.77942836 57.29606171 -34.0625 51.265625 C-29.40445933 46.47819432 -29.40445933 46.47819432 -26.75 44.828125 C-24.80529228 43.30638071 -24.80529228 43.30638071 -24.3125 40.453125 C-25.33569433 36.10454908 -27.56070713 34.99957705 -31.21484375 32.66015625 C-33.0625 31.265625 -33.0625 31.265625 -34.0625 28.265625 C-32.26897636 22.25615619 -28.83697065 17.19340612 -25.0625 12.265625 C-18.54354956 13.01781159 -18.54354956 13.01781159 -16 14.328125 C-13.32979636 15.62015902 -10.99276316 15.32526401 -8.0625 15.265625 C-7.94132812 14.35039062 -7.82015625 13.43515625 -7.6953125 12.4921875 C-7.52773438 11.30367187 -7.36015625 10.11515625 -7.1875 8.890625 C-7.02507813 7.70726562 -6.86265625 6.52390625 -6.6953125 5.3046875 C-5.75417005 0.78487994 -4.35195566 0.01343196 0 0 Z M-7.0625 33.265625 C-8.94105086 37.02272672 -8.72629578 41.18541238 -8.0625 45.265625 C-6.06238833 48.69966288 -3.63898506 51.47738247 -0.0625 53.265625 C4.23962445 53.88695559 8.27145487 54.23599179 12.1171875 51.99609375 C15.19674341 49.37016537 17.64672689 47.27895273 18.24609375 43.12890625 C18.49678861 38.16818666 18.36669359 35.07811603 15.0625 31.203125 C11.91873549 27.97583051 9.75380798 27.05572939 5.25 26.828125 C-0.45352947 26.85292295 -3.44583025 28.99640627 -7.0625 33.265625 Z " fill="#000000" transform="translate(43.0625,7.734375)"/>
</svg>
