<svg xmlns="http://www.w3.org/2000/svg" viewBox="0 0 96 96"><path d="m43.0625 7.734375 2.4140625-.0078125L48 7.75l2.5234375-.0234375L52.9375 7.734375l2.2148438.006836C57 8 57 8 59 10c.4566215 2.1929108.820412 4.4058589 1.125 6.625l.5078125 3.6015625L61 23c3.880302.1364382 5.9314771.0300539 9.5625-1.5625C74.2751645 19.8849312 75.299129 19.7372814 79 21c4.2968808 4.5199694 6.7169284 9.9695633 8 16-4.6580407 4.7874307-4.6580407 4.7874307-7.3125 6.4375-1.9447077 1.5217443-1.9447077 1.5217443-2.4375 4.375 1.0231943 4.348576 3.2482071 5.453548 6.9023438 7.7929688C86 57 86 57 87 60c-1.7935236 6.0094688-5.2255294 11.0722189-9 16-6.5189504-.7521866-6.5189504-.7521866-9.0625-2.0625C66.2672964 72.645466 63.9302632 72.940361 61 73l-.3671875 2.7734375L60.125 79.375l-.4921875 3.5859375C59 86 59 86 57 88c-1.8476563.258789-1.8476563.258789-4.0625.265625l-2.4140625.0078125L48 88.25l-2.5234375.0234375L43.0625 88.265625l-2.2148438-.006836C39 88 39 88 37 86c-.4566215-2.1929108-.820412-4.4058589-1.125-6.625l-.5078125-3.6015625L35 73c-3.880302-.1364382-5.9314771-.0300539-9.5625 1.5625C21.7248355 76.1150688 20.700871 76.2627186 17 75c-4.2968808-4.5199694-6.7169284-9.9695633-8-16 4.6580407-4.7874307 4.6580407-4.7874307 7.3125-6.4375 1.9447077-1.5217443 1.9447077-1.5217443 2.4375-4.375-1.0231943-4.348576-3.2482071-5.453548-6.9023438-7.7929688C10 39 10 39 9 36c1.7935236-6.0094688 5.2255293-11.0722189 9-16 6.5189504.7521866 6.5189504.7521866 9.0625 2.0625 2.6702036 1.292034 5.0072368.997139 7.9375.9375l.3671875-2.7734375L35.875 16.625l.4921875-3.5859375C37.30833 8.5192549 38.7105443 7.747807 43.0625 7.734375ZM36 41c-1.8785509 3.7571017-1.6637958 7.9197874-1 12 2.0001117 3.4340379 4.423515 6.2117575 8 8 4.3021245.6213306 8.3339549.9703668 12.1796875-1.2695313 3.079556-2.6259283 5.5295394-4.717141 6.1289063-8.8671875.2506948-4.9607195.1205998-8.0507902-3.1835938-11.9257812-3.1437645-3.2272945-5.308692-4.1473956-9.8125-4.375C42.6089705 34.587298 39.6166697 36.7307813 36 41Z"/></svg>