<?xml version="1.0" encoding="UTF-8"?>
<svg version="1.1" xmlns="http://www.w3.org/2000/svg" width="100" height="100">
<path d="M0 0 C2.69990662 1.79993774 4.5418865 3.083773 6 6 C6.09175034 8.12417 6.11750694 10.25129455 6.11352539 12.37744141 C6.11367142 13.03122269 6.11381744 13.68500397 6.1139679 14.3585968 C6.11327036 16.52295227 6.1054854 18.68722204 6.09765625 20.8515625 C6.09579151 22.35086012 6.09436787 23.85015834 6.09336853 25.34945679 C6.08954779 29.29831622 6.07972128 33.24713896 6.06866455 37.19598389 C6.05844091 41.22440087 6.05386887 45.25282378 6.04882812 49.28125 C6.03809862 57.18751685 6.0210275 65.09375386 6 73 C8.97 73 11.94 73 15 73 C14.98428955 72.08710205 14.9685791 71.1742041 14.95239258 70.23364258 C14.9011303 66.8323799 14.86358561 63.43153037 14.83520508 60.0300293 C14.82015934 58.56056218 14.79971762 57.09113966 14.77368164 55.62182617 C14.73711045 53.5042823 14.72023199 51.38733435 14.70703125 49.26953125 C14.6913208 47.99698486 14.67561035 46.72443848 14.65942383 45.41333008 C15.02434726 41.75598631 15.82134477 39.91880295 18 37 C20.65499724 34.91393074 22.06750504 35.00120545 25.5 35.0625 C29.79193231 36.21212472 30.68340515 37.26732547 33 41 C33.45410156 44.50512695 33.45410156 44.50512695 33.390625 48.48828125 C33.38496521 49.19147995 33.37930542 49.89467865 33.37347412 50.6191864 C33.35119769 52.85100248 33.30102373 55.08117461 33.25 57.3125 C33.22992343 58.83135691 33.21167468 60.35023916 33.1953125 61.86914062 C33.15136357 65.57995545 33.08239921 69.2898171 33 73 C33.804375 72.979375 34.60875 72.95875 35.4375 72.9375 C38 73 38 73 39 74 C39.125 76.5 39.125 76.5 39 79 C37.25966645 80.74033355 35.00226453 80.12604835 32.68286133 80.13552856 C31.54046997 80.13249222 31.54046997 80.13249222 30.375 80.12939453 C29.57666748 80.13114685 28.77833496 80.13289917 27.95581055 80.13470459 C25.3038519 80.13912367 22.65195938 80.13618492 20 80.1328125 C18.16536445 80.13348552 16.33072899 80.13445553 14.49609375 80.13571167 C10.64582472 80.13718872 6.79557884 80.13503386 2.9453125 80.13037109 C-2.00156497 80.1246738 -6.94838819 80.12795277 -11.89526367 80.13394356 C-15.68522555 80.13754898 -19.47517446 80.13641067 -23.26513672 80.13381577 C-25.08968105 80.13314644 -26.91422655 80.1339751 -28.73876953 80.13629532 C-31.28421161 80.13882154 -33.82956459 80.1349817 -36.375 80.12939453 C-37.13659424 80.13141876 -37.89818848 80.13344299 -38.68286133 80.13552856 C-43.88573742 80.11426258 -43.88573742 80.11426258 -45 79 C-45.125 76.5 -45.125 76.5 -45 74 C-44 73 -44 73 -41.4375 72.9375 C-40.633125 72.958125 -39.82875 72.97875 -39 73 C-39.00666183 72.4097554 -39.01332367 71.8195108 -39.02018738 71.21138 C-39.08660302 65.06325736 -39.1318265 58.91523679 -39.16479492 52.7668457 C-39.17987308 50.47285828 -39.2003387 48.17889963 -39.22631836 45.88500977 C-39.26274358 42.58602795 -39.27973631 39.2874276 -39.29296875 35.98828125 C-39.30845261 34.96414627 -39.32393646 33.94001129 -39.33988953 32.88484192 C-39.34200851 23.9016337 -39.34200851 23.9016337 -36 20 C-32.80766515 18.40383257 -29.46538503 18.48533886 -26 19 C-23.56880377 20.87015094 -22.35930827 22.28138345 -21 25 C-20.91008908 26.54227856 -20.88243039 28.08840895 -20.88647461 29.63330078 C-20.88655014 30.59414581 -20.88662567 31.55499084 -20.88670349 32.54495239 C-20.89186478 33.58457123 -20.89702606 34.62419006 -20.90234375 35.6953125 C-20.9037587 36.75789276 -20.90517365 37.82047302 -20.90663147 38.91525269 C-20.91224166 42.31853009 -20.92479591 45.72174238 -20.9375 49.125 C-20.94251369 51.42838447 -20.94707682 53.73176997 -20.95117188 56.03515625 C-20.96221441 61.69012936 -20.97948591 67.34505363 -21 73 C-18.03 73 -15.06 73 -12 73 C-12.01332367 71.75758293 -12.01332367 71.75758293 -12.0269165 70.49006653 C-12.10712495 62.67740898 -12.16799606 54.86489008 -12.20724869 47.05191517 C-12.22810753 43.03532635 -12.25639332 39.01907827 -12.30175781 35.00268555 C-12.34527746 31.12528328 -12.36914992 27.24820836 -12.37950897 23.37058067 C-12.38688947 21.89259374 -12.40130214 20.41462437 -12.42292023 18.93677711 C-12.45203761 16.86346609 -12.45595283 14.79150077 -12.45410156 12.71801758 C-12.46298401 11.53887283 -12.47186646 10.35972809 -12.48101807 9.14485168 C-11.90106412 5.35316636 -10.6557547 3.71402884 -8 1 C-5.14675563 -0.42662219 -3.16545451 -0.31033868 0 0 Z " fill="#000000" transform="translate(53,10)"/>
</svg>
