<svg xmlns="http://www.w3.org/2000/svg" viewBox="0 0 96 96"><path d="M53 10c2.6999066 1.7999377 4.5418865 3.083773 6 6 .0917503 2.12417.117507 4.2512946.1135254 6.3774414l.0004425 1.9811554c-.0006975 2.1643555-.0084825 4.3286252-.0163116 6.4929657-.0018648 1.4992976-.0032884 2.9985958-.0042878 4.4978943-.0038207 3.9488594-.0136472 7.8976822-.024704 11.846527-.0102236 4.028417-.0147956 8.05684-.0198364 12.0852662C59.0380986 67.1875169 59.0210275 75.0937539 59 83h9l-.0476074-2.7663574c-.0512623-3.4012627-.088807-6.8021122-.1171875-10.2036133-.0150458-1.4694671-.0354875-2.9388896-.0615235-4.4082031-.0365712-2.1175439-.0534496-4.2344918-.0666504-6.352295l-.0476074-3.8562011C68.0243473 51.7559863 68.8213448 49.9188029 71 47c2.6549972-2.0860693 4.067505-1.9987945 7.5-1.9375C82.7919323 46.2121247 83.6834051 47.2673255 86 51c.4541016 3.505127.4541016 3.505127.390625 7.4882813l-.0171509 2.1309051c-.0222764 2.231816-.0724504 4.4619882-.1234741 6.6933136-.0200766 1.518857-.0383253 3.0377392-.0546875 4.5566406C86.1513635 75.5799555 86.0823992 79.2898171 86 83l2.4375-.0625C91 83 91 83 92 84c.125 2.5.125 2.5 0 5-1.7403336 1.7403336-3.9977355 1.1260484-6.3171387 1.1355286L83.375 90.1293946l-2.4191895.00531c-2.6519586.004419-5.3038511.0014803-7.9558105-.0018921-1.8346356.000673-3.669271.001643-5.5039063.0028992-3.850269.001477-7.7005149-.0006778-11.5507812-.0053406-4.9468775-.0056973-9.8937007-.0024183-14.8405762.0035725-3.7899618.0036054-7.5799108.002467-11.369873-.0001278-1.8245444-.0006694-3.6490898.0001593-5.4736328.0024795-2.5454421.0025262-5.090795-.0013136-7.6362305-.0069008l-2.3078613.006134C9.1142626 90.1142626 9.1142626 90.1142626 8 89c-.125-2.5-.125-2.5 0-5 1-1 1-1 3.5625-1.0625L14 83l-.0201874-1.78862c-.0664156-6.1481226-.1116391-12.2961432-.1446075-18.4445343-.0150782-2.2939874-.0355438-4.587946-.0615235-6.881836-.0364252-3.2989817-.053418-6.5975821-.0666503-9.8967284-.015484-1.024135-.0309678-2.04827-.0469208-3.1034394C13.6579915 33.9016337 13.6579915 33.9016337 17 30c3.1923349-1.5961674 6.534615-1.5146611 10-1 2.4311962 1.870151 3.6406917 3.2813834 5 6 .089911 1.5422786.1175696 3.088409.1135254 4.6333008l-.0002289 2.9116516-.0156402 3.1503601-.0042878 3.2199402C32.0877583 52.31853 32.0752041 55.7217424 32.0625 59.125c-.0050137 2.3033845-.0095768 4.60677-.0136719 6.9101563C32.0377856 71.6901292 32.0205141 77.3450536 32 83h9l-.0269165-2.5099335c-.0802085-7.8126575-.1410796-15.6251764-.1803322-23.4381513-.0208588-4.0165889-.0491446-8.032837-.0945091-12.0492297-.0435197-3.8774022-.0673921-7.7544771-.0777512-11.6321048-.0073805-1.477987-.0217931-2.9559563-.0434112-4.4338036-.0291174-2.073311-.0330326-4.1452763-.0311814-6.2187595l-.0269165-3.573166C41.098936 15.3531665 42.3442453 13.7140289 45 11c2.8532444-1.4266222 4.8345455-1.3103387 8-1Z"/></svg>