<?xml version="1.0" encoding="UTF-8"?>
<svg version="1.1" xmlns="http://www.w3.org/2000/svg" width="100" height="100">
<path d="M0 0 C4.94277006 2.33658221 7.15265384 4.8684829 9 10 C9.1875 13.375 9.1875 13.375 9 16 C11.31 16.33 13.62 16.66 16 17 C16 18.98 16 20.96 16 23 C13.69 23.33 11.38 23.66 9 24 C9 24.99 9 25.98 9 27 C10.4540625 26.9690625 10.4540625 26.9690625 11.9375 26.9375 C15 27 15 27 16 28 C16.125 30.5 16.125 30.5 16 33 C15 34 15 34 11.9375 34.0625 C10.968125 34.041875 9.99875 34.02125 9 34 C9 34.99 9 35.98 9 37 C11.31 37.33 13.62 37.66 16 38 C16.042721 39.66611905 16.04063832 41.33382885 16 43 C15 44 15 44 11.9375 44.0625 C10.968125 44.041875 9.99875 44.02125 9 44 C9.32727759 49.34553395 10.48898849 52.24792754 13.84375 56.421875 C17.26458781 61.09085634 16.48009963 67.524081 16 73 C14.25331073 79.70862184 9.82268102 83.54465131 4 87 C-2.07543566 89.02514522 -9.45235531 89.10046489 -15.375 86.5 C-20.51838337 83.5041671 -24.13538445 78.59384665 -26 73 C-26.70530641 65.19537988 -26.19662124 59.66522197 -22 53 C-21.34 52.34 -20.68 51.68 -20 51 C-19.80249939 47.99953899 -19.72310095 45.08366309 -19.7265625 42.08203125 C-19.70626146 40.25194714 -19.68541046 38.42186907 -19.6640625 36.59179688 C-19.64152106 33.70624723 -19.62501718 30.82093618 -19.61914062 27.93530273 C-19.6095764 25.15043905 -19.57573789 22.36665195 -19.5390625 19.58203125 C-19.54663071 18.30039848 -19.54663071 18.30039848 -19.55435181 16.99287415 C-19.45961237 11.17941909 -18.32907793 7.79305138 -15 3 C-10.71648676 -0.90555619 -5.50129666 -0.78464007 0 0 Z M-6 28 C-8.29261997 29.86089721 -8.29261997 29.86089721 -8.22705078 32.79736328 C-8.21657715 33.95993652 -8.20610352 35.12250977 -8.1953125 36.3203125 C-8.18886719 37.57714844 -8.18242188 38.83398438 -8.17578125 40.12890625 C-8.15902344 41.44761719 -8.14226563 42.76632813 -8.125 44.125 C-8.11496983 45.46483721 -8.10584404 46.80468152 -8.09765625 48.14453125 C-8.07402075 51.42986573 -8.04107234 54.71484465 -8 58 C-8.62261719 58.29648438 -9.24523437 58.59296875 -9.88671875 58.8984375 C-12.59028333 60.30768928 -13.62737203 61.25474406 -15 64 C-15.21540944 68.02649947 -14.61717801 71.07423299 -12.375 74.4375 C-9.16601302 76.54867565 -6.82898112 76.93282489 -3 77 C0.16553069 75.70501017 1.69376849 74.36747781 3.875 71.75 C5.39424009 68.03630199 5.04821378 65.84345052 4 62 C2.207809 59.53827847 2.207809 59.53827847 0 58 C-0.66 58 -1.32 58 -2 58 C-2 48.76 -2 39.52 -2 30 C-3.32 29.34 -4.64 28.68 -6 28 Z " fill="#000000" transform="translate(55,6)"/>
</svg>
