<svg xmlns="http://www.w3.org/2000/svg" viewBox="0 0 96 96"><path d="M55 6c4.94277 2.3365822 7.1526538 4.8684829 9 10 .1875 3.375.1875 3.375 0 6l7 1v6l-7 1v3l2.9375-.0625C70 33 70 33 71 34c.125 2.5.125 2.5 0 5-1 1-1 1-4.0625 1.0625L64 40v3l7 1c.042721 1.666119.0406383 3.3338289 0 5-1 1-1 1-4.0625 1.0625L64 50c.3272776 5.345534 1.4889885 8.2479275 4.84375 12.421875C72.2645878 67.0908563 71.4800996 73.524081 71 79c-1.7466893 6.7086218-6.177319 10.5446513-12 14-6.0754357 2.0251452-13.4523553 2.1004649-19.375-.5C34.4816166 89.5041671 30.8646155 84.5938467 29 79c-.7053064-7.8046201-.1966212-13.334778 4-20l2-2c.1975006-3.000461.276899-5.916337.2734375-8.9179688.020301-1.830084.041152-3.6601621.0625-5.4902343.0225414-2.8855497.0390453-5.7708607.0449219-8.6564942.0095642-2.7848637.0434027-5.5686507.0800781-8.3532715l-.0152893-2.589157C35.5403876 17.179419 36.670922 13.7930513 40 9c4.2835132-3.9055562 9.4987033-3.78464 15-3Zm-6 28c-2.29262 1.8608972-2.29262 1.8608972-2.2270508 4.7973633l.0317383 3.5229492.0195313 3.8085938L46.875 50.125c.0100302 1.3398372.019156 2.6796815.0273438 4.0195313C46.9259792 57.4298656 46.9589276 60.7148447 47 64l-1.8867188.8984375C42.4097168 66.3076893 41.372628 67.2547441 40 70c-.2154094 4.0264995.382822 7.074233 2.625 10.4375C45.833987 82.5486757 48.1710189 82.9328249 52 83c3.1655307-1.2949898 4.6937685-2.6325222 6.875-5.25 1.51924-3.713698 1.1732138-5.9065495.125-9.75-1.792191-2.4617215-1.792191-2.4617215-4-4h-2V36l-4-2Z"/></svg>