<?xml version="1.0" encoding="UTF-8"?>
<svg version="1.1" xmlns="http://www.w3.org/2000/svg" width="100" height="100">
<path d="M0 0 C4.01062276 2.75788274 6.09090786 5.40614187 8.3125 9.70703125 C8.90691895 10.84035889 9.50133789 11.97368652 10.11376953 13.14135742 C10.42139221 13.74015717 10.72901489 14.33895691 11.04595947 14.9559021 C12.67211101 18.1204527 14.33491424 21.26573359 15.9921875 24.4140625 C16.32652802 25.05174057 16.66086853 25.68941864 17.00534058 26.34642029 C20.25560841 32.52996811 23.66633993 38.6182167 27.125 44.6875 C27.64449219 45.59927002 28.16398437 46.51104004 28.69921875 47.45043945 C29.19292969 48.31628662 29.68664062 49.18213379 30.1953125 50.07421875 C30.66300049 50.89744629 31.13068848 51.72067383 31.61254883 52.56884766 C32.55153578 54.21418147 33.49957367 55.85437737 34.45581055 57.48974609 C34.90996338 58.27816895 35.36411621 59.0665918 35.83203125 59.87890625 C36.23655518 60.57185791 36.6410791 61.26480957 37.05786133 61.97875977 C38.73699536 65.58113102 38.5894044 68.07063735 38 72 C36.20636089 74.8100346 34.98119065 76.50940468 32 78 C29.74968452 78.11263664 27.49598376 78.15939278 25.24291992 78.17700195 C24.54840225 78.18357315 23.85388458 78.19014435 23.13832092 78.19691467 C20.83570247 78.21665458 18.53314926 78.22831196 16.23046875 78.23828125 C15.44419916 78.24235678 14.65792957 78.2464323 13.84783363 78.25063133 C9.68591194 78.27149541 5.52402324 78.28579542 1.36206055 78.29516602 C-2.93554819 78.30622899 -7.23263893 78.34062611 -11.53006458 78.38033772 C-14.83551492 78.40649152 -18.14084163 78.41485674 -21.44638634 78.41844749 C-23.03041773 78.42331699 -24.61444347 78.43494143 -26.19837379 78.45348549 C-28.41757786 78.47785119 -30.63543927 78.47691743 -32.85473633 78.4699707 C-34.11667313 78.47583694 -35.37860992 78.48170319 -36.67878723 78.48774719 C-40.58754522 77.91371419 -42.22153569 76.75181555 -45 74 C-46.68851945 70.6229611 -46.66769196 67.62671755 -46 64 C-44.02755051 59.40354345 -41.51521175 55.12763784 -39 50.8125 C-38.27788742 49.54590945 -37.5575381 48.27831216 -36.83886719 47.00976562 C-35.3358155 44.35908508 -33.825152 41.71294063 -32.31054688 39.06884766 C-29.99685959 35.0135507 -27.74866805 30.92435311 -25.515625 26.82421875 C-25.15537231 26.16396194 -24.79511963 25.50370514 -24.4239502 24.82344055 C-23.02320779 22.25555182 -21.62295879 19.68741446 -20.22802734 17.11636353 C-19.26599619 15.34590011 -18.29718783 13.57912443 -17.328125 11.8125 C-16.7805957 10.80832031 -16.23306641 9.80414063 -15.66894531 8.76953125 C-11.63827272 2.08083173 -8.2530805 -1.62087527 0 0 Z M-5 24 C-7.21870993 25.79709564 -7.21870993 25.79709564 -7.22705078 28.24658203 C-7.21657715 29.15778809 -7.20610352 30.06899414 -7.1953125 31.0078125 C-7.18886719 31.99394531 -7.18242188 32.98007812 -7.17578125 33.99609375 C-7.15902344 35.02863281 -7.14226563 36.06117187 -7.125 37.125 C-7.11597656 38.16527344 -7.10695312 39.20554687 -7.09765625 40.27734375 C-7.07403747 42.85179092 -7.04110149 45.42578212 -7 48 C-5.02 48.99 -5.02 48.99 -3 50 C-0.78129007 48.20290436 -0.78129007 48.20290436 -0.77294922 45.75341797 C-0.78342285 44.84221191 -0.79389648 43.93100586 -0.8046875 42.9921875 C-0.81113281 42.00605469 -0.81757812 41.01992188 -0.82421875 40.00390625 C-0.84097656 38.97136719 -0.85773437 37.93882813 -0.875 36.875 C-0.88402344 35.83472656 -0.89304687 34.79445313 -0.90234375 33.72265625 C-0.92596253 31.14820908 -0.95889851 28.57421788 -1 26 C-2.32 25.34 -3.64 24.68 -5 24 Z M-6.625 58.5 C-7.07875 58.995 -7.5325 59.49 -8 60 C-7.34 61.32 -6.68 62.64 -6 64 C-4.35 63.67 -2.7 63.34 -1 63 C-0.67 62.01 -0.34 61.02 0 60 C-1.37485532 58.45833358 -1.37485532 58.45833358 -3 57 C-5.12364481 56.77390663 -5.12364481 56.77390663 -6.625 58.5 Z " fill="#000000" transform="translate(54,10)"/>
</svg>
