<svg xmlns="http://www.w3.org/2000/svg" viewBox="0 0 96 96"><path d="M54 10c4.0106228 2.7578827 6.0909079 5.4061419 8.3125 9.7070313l1.8012695 3.4343261.93219 1.8145447c1.6261515 3.1645506 3.2889547 6.3098315 4.946228 9.4581604l1.013153 1.9323578C74.2556086 42.529968 77.66634 48.6182167 81.125 54.6875l1.5742188 2.7629394 1.4960937 2.6237793 1.4172363 2.494629c.938987 1.6453338 1.8870249 3.2855297 2.8432617 4.9208984l1.3762208 2.3891601 1.22583 2.0998536C92.7369953 75.581131 92.5894044 78.0706373 92 82c-1.7936391 2.8100346-3.0188093 4.5094047-6 6-2.2503155.1126366-4.5040162.1593928-6.75708.177002l-2.104599.0199127c-2.3026185.0197399-4.6051717.0313973-6.9078523.0413666l-2.382635.01235c-4.1619218.0208641-8.3238105.0351641-12.4857731.0445347-4.2976088.011063-8.5946995.0454601-12.8921252.0851717-3.3054503.0261538-6.610777.034519-9.9163217.0381098-1.5840314.0048695-3.1680572.016494-4.7519875.035038-2.219204.0243657-4.4370655.023432-6.6563625.0164852l-3.824051.0177765C13.4124548 87.9137142 11.7784644 86.7518156 9 84c-1.6885195-3.3770389-1.667692-6.3732825-1-10 1.9724495-4.5964565 4.4847883-8.8723622 7-13.1875.7221126-1.2665905 1.4424619-2.5341878 2.1611328-3.8027344 1.5030517-2.6506805 3.0137152-5.296825 4.5283203-7.940918 2.3136873-4.0552969 4.5618788-8.1444945 6.7949219-12.2446288l1.0916748-2.0007782c1.4007424-2.5678888 2.8009914-5.1360261 4.1959229-7.707077.9620311-1.7704635 1.9308395-3.5372392 2.8999023-5.3038636l1.6591797-3.0429688C42.3617273 12.0808317 45.7469195 8.3791248 54 10Zm-5 24c-2.21871 1.7970956-2.21871 1.7970956-2.2270508 4.246582l.0317383 2.7612305.0195313 2.9882813L46.875 47.125l.0273438 3.1523438C46.9259625 52.8517909 46.9588984 55.425782 47 58l4 2c2.21871-1.7970956 2.21871-1.7970956 2.2270508-4.246582l-.0317383-2.7612305-.0195313-2.9882813L53.125 46.875l-.0273438-3.1523438C53.0740375 41.1482091 53.0411016 38.574218 53 36l-4-2Zm-1.625 34.5L46 70l2 4 5-1 1-3c-1.3748553-1.5416664-1.3748553-1.5416664-3-3-2.1236448-.2260934-2.1236448-.2260934-3.625 1.5Z"/></svg>