<svg xmlns="http://www.w3.org/2000/svg" viewBox="0 0 500 500"><path d="M312 100v2l1.7814941.3659668c2.269294.648548 3.76688 1.46491 5.7145997 2.7785645l1.9433593 1.3027343L323.4375 107.8125l1.9863281 1.3300781C329.0741124 111.6066115 332.7027772 114.071253 336 117v2h2v2h2v2h2c1.8755532 2.339976 3.638632 4.684946 5.375 7.125l1.4609375 2.015625C350.238236 134.0840278 351.6212878 136.0398177 353 138l1.243164 1.725586C357 143.6531662 357 143.6531662 357 147h2c4.8453389 9.8200435 9.186491 19.3711881 12 30l.6445313 2.2265625C380.156181 209.9664774 372.6492424 243.1690979 359 271h-2l-.3476563 1.734375c-.7141673 2.4803416-1.7254224 4.329312-3.0898437 6.515625l-1.3085938 2.140625L351 283h-2l-.5703125 2.0234375c-2.0365891 4.2401118-5.0695018 7.2280084-8.3046875 10.6015625l-1.8945313 2.0234375c-4.7073532 4.9760605-4.7073532 4.9760605-7.4418945 6.9389648L329 306v2l2.4606934 1.3300781c4.188801 4.4042619 3.2320812 9.5423775 3.1682128 15.3886719l.007309 3.7879639c-.0009798 2.6436563-.0118103 5.285053-.0392914 7.9283447-.034085 3.3831592-.0280635 6.7648013-.0093374 10.1480331.0131269 3.2328075-.0051496 6.4653836-.0211802 9.6981583.00496 1.213612.0099198 2.4272241.01503 3.6776123l-.047989 3.4180908-.0187835 3.005005C333.8382662 369.8227232 332.7429856 370.843208 330 373c-2.9797974.5033646-2.9797974.5033646-6.5283203.5079346l-1.9817085.018909c-2.189733.0159458-4.3783552.0033208-6.5680962-.0092655-1.5704412.0054205-3.1408773.0125427-4.7113037.0212403-4.2644852.0182454-8.5285836.0111609-12.7930756-.0015164-4.461116-.0101214-8.9221987-.0007367-13.383316.0055447-7.4919225.007279-14.9836874-.0023177-22.475586-.0213623-8.6638362-.0217693-17.327296-.014718-25.9911232.0073056-7.4362078.018147-14.8723022.0207157-22.308525.0102453-4.4423757-.0062388-8.8845744-.00706-13.3269387.006146-4.1763523.0115478-8.3522188.0035526-12.5285186-.019577-1.5334696-.005293-3.06698-.0037635-4.6004334.0050506-2.0921316.0109173-4.1827026-.0027587-6.2747345-.0227203l-3.548523-.00457C169.3730934 372.8940993 168.1932494 371.8751235 166 369c-.5146637-2.573349-.5146637-2.573349-.5334473-5.5153809l-.0479889-3.347641c.00496-1.1886012.0099198-2.3772024.01503-3.6018219l-.0187836-3.7135162c-.0071038-2.5914989-.0039146-5.1830433.0087738-7.7745209.0138525-3.9664307-.0201867-7.9304975-.0583496-11.8967285-.0009513-2.5175787.0009081-5.0351603.0058594-7.5527343l-.0401764-3.595688c.1035486-9.1532623.1035486-9.1532623 3.2083892-12.2893218L171 308c-1.0367572-2.6390184-1.9491436-3.959315-4.1875-5.75-3.7703972-3.0163178-6.7174831-6.560916-9.8125-10.25l-2.4375-2.875C153 287 153 287 153 285h-2c-1.5078125-1.8632813-1.5078125-1.8632813-3.125-4.3125l-1.6328125-2.4257813C145 276 145 276 145 273h-2c-17.1694405-36.4148121-23.0623696-68.7009184-9.7265625-107.7265625 2.5428474-6.9494913 5.708801-13.3544006 9.4765625-19.7109375l1.1784668-1.9921875C144.8908428 142.0073181 145.9381562 140.4971997 147 139h2l.6875-2.0625c1.6247615-3.6363709 3.6405326-6.9657926 6.3125-9.9375h2l.7070313-1.6914063C162.679116 118.2164423 170.1684945 112.269691 177 108h2v-2c40.2468682-29.6837367 90.0890469-26.0151784 133-6Zm-110 6-2.78125 1.4101563C192.8707297 110.7535658 186.5059266 114.3659445 181 119v2l-1.8125.875c-2.380778 1.1724203-2.380778 1.1724203-5.1875 3.125v2h-2v2h-2v2h-2v2h-2c-20.3107305 23.8520887-31.2989428 53.6358516-29 85 2.2650635 24.2865146 12.417194 44.8042655 27 64l2.171875 2.8984375L168 287h2v2h2v2h2v2c2.0160817 1.8124075 2.0160817 1.8124075 4.5 3.625l2.53125 1.9140625L183 300c5.6991023-2.7470954 11.0461773-5.7832521 16.375-9.1875 1.4031885-.8900443 2.8068136-1.7794008 4.2109375-2.6679688l1.8452148-1.1765136C207 286 207 286 209 285v-2l2.4375-.625c3.9691539-1.5319541 7.0530729-3.5920022 10.5117188-6.0351563C224 275 224 275 227 274v-2l2.6328125-.7773438c3.4430118-1.2501887 6.1754382-2.794678 9.2421875-4.7851562l2.9296875-1.8789063L244 263v-1l-3.1484375-.3320313C228.7557895 260.3269 219.4830448 258.446464 209.25 251.4257813c-2.0876104-1.6042017-2.0876104-1.6042017-4.25-1.4257812v-2h-2l-.8164063-1.65625c-.8375031-1.6584221-1.702322-3.3031808-2.5859374-4.9375-8.5598906-16.2049836-8.5598906-16.2049836-7.1640626-23.75L193 216c13.2740472-2.004652 27.7983215-.5879722 39.0078125 7.4375C233.3665958 224.592794 234.6881297 225.7916984 236 227h2v2h2l.7734375 1.578125c1.5634434 3.087054 3.2073795 6.1270916 4.8515625 9.171875l.984375 1.8242188C247.4057059 243.049773 248.2027784 244.5249267 249 246c1.1552388-2.2938953 2.2873478-4.5963067 3.4023438-6.9101563L253.9375 235.9375l1.5273438-3.1601563C256.8132968 230.3377757 258.0252476 228.8922255 260 227v-2h2v-2l1.7734375-.8476563c2.0770092-1.0749433 3.922986-2.272667 5.8515625-3.5898437 9.0110829-5.6885607 19.3707824-6.7491924 29.8125-6.625l2.2167969.0136719c1.7819373.0116466 3.5638317.0295762 5.3457031.0488281-.9439585 8.6198317-2.3878643 16.1125631-6 24-.6739224 1.663746-1.3424534 3.3297142-2 5h-2c-1.0211924 1.1730315-1.9918128 2.3902885-2.9375 3.625C285.5416291 254.4647837 272.432814 257.7651233 260 260h-4v3c1.6592354 1.4738949 1.6592354 1.4738949 3.8125 2.6875l2.1445313 1.3242188C264.071859 268.2177355 264.071859 268.2177355 267 268v2l6 2v2l2.2304688 1.2070313L278.1875 276.8125l2.9179688 1.5820313c1.9036683 1.0558808 3.7831195 2.1568751 5.6328125 3.3046875C288.8541025 283.1661851 288.8541025 283.1661851 291 283v2l1.5820313.8476563c5.4264454 2.9555596 10.6504033 6.1504959 15.8398437 9.5039062L311 297l2.6992188 1.75L316 300c2.1485344-.5319564 2.1485344-.5319564 4-2l2.25-1.5L324 295v-2l1.625-.625c3.29478-1.9075043 5.9686363-4.4231938 8.375-7.375v-2h2c3.025179-3.0555842 3.025179-3.0555842 4-7h2c14.2911323-19.6664005 21.4455299-44.0007648 21.3125-68.1875l-.0170898-3.2966309C362.911023 178.7562248 353.8020729 154.0848234 336 135h-2l-.7070313-1.6914063C329.320884 126.2164423 321.8315055 120.269691 315 116h-2v-2c-18.0122138-12.7998882-39.3507733-18.1755098-61.125-18.1875-1.1472656-.012246-2.2945313-.0244922-3.4765625-.0371094C232.166845 95.7479724 216.5217823 98.6347856 202 106Zm71 122v2l-1.8085938.796875C265.8333922 233.7385298 262.2630173 239.4681804 260 245v3c9.9861335.9986133 17.7479418-3.102819 25.4375-9.3125 5.2149662-4.8998953 8.3881634-10.6414801 9.5625-17.6875-8.0678117 0-15.2752743 2.666288-22 7Zm-69-3c2.6155374 9.9115103 7.0486964 16.4271873 15.8554688 21.8164063C226.3338678 250.3919161 232.7169245 250.5144615 240 251l-5-11h-2l-.75-1.875c-1.4562864-2.4756869-2.628125-3.07625-5.25-4.125v-2c-7.6978587-4.3930188-14.0754426-6.964864-23-7Zm33.6875 54.5-1.8918457 1.0783691c-5.292233 3.054474-10.3430766 6.3793208-15.369873 9.8552247C218 292 218 292 215 293v2l-1.6367188.28125c-3.0895135.9396207-5.4478206 2.489326-8.1757812 4.21875-1.1478977.7209124-2.2963597 1.4409267-3.4453125 2.1601563l-1.8291016 1.1489257c-3.3435833 2.081419-6.722013 4.1044674-10.1005859 6.128418l-1.9621582 1.1796875C183.2530821 312.8734589 183.2530821 312.8734589 181 314v2l-1.9375.3125L177 317c-.9342526 2.8027577-1.0994904 4.3188539-1.0217285 7.196045l.0608978 2.547409.0819245 2.7370148.0715484 2.812088c.0765979 2.9651381.160639 5.9300126.2448578 8.8949432.0532246 2.0097527.105965 4.0195183.1582031 6.0292969.1282366 4.92795.2665324 9.8554733.4042969 14.7832031h31l.1484375-7.2617188c.0540655-2.3300582.111351-4.6600168.1689453-6.9899902.038198-1.6148327.0730667-3.2297478.1044922-4.8447266.045851-2.3262266.1038108-4.6518903.1640625-6.9777831l.0350037-2.1754609c.1462933-5.009007.5425178-8.8159048 4.0694885-12.530838 3.159806-1.6684176 5.698373-1.6556858 9.2626953-1.7312012l3.6611328-.1003418L230.25 319.3125 245 319v-43c-2.4501605 0-5.1825557 2.2818076-7.3125 3.5ZM256 277v42c9.3635152.2493264 9.3635152.2493264 18.727539.4780273l3.538086.1079102 3.618164.0952148c3.0117888.3081633 4.7134702.504744 7.116211 2.3188477 2.3954993 4.1407643 2.3412202 8.4794782 2.4140625 13.1445313l.0586853 2.3326873c.0595084 2.4449831.1060652 4.890014.1522522 7.3352814.0382063 1.6634313.0772596 3.3268435.1171875 4.9902344.0973323 4.065652.1771265 8.1311132.2578125 12.1972656h32c.1840157-6.1594154.343098-12.3092602.4394531-18.4692383.0401648-2.093428.0947105-4.1866325.1640625-6.2792969.0973667-3.0140697.1424784-6.0251689.1777344-9.0405273l.125122-2.8226623c.0026632-3.8805524-.0069897-6.3652135-2.6351318-9.3547669C319.0837606 313.5348855 317.1217594 312 313 312v-2l-6-2v-2l-3.4804688-1.6875c-4.4249382-2.2148977-8.62749-4.7081136-12.8320312-7.3125l-2.310791-1.4216309C268.1497076 283.0998051 268.1497076 283.0998051 259 277h-3Zm-37 53v32h26v-32h-26Zm38 0c-.864718 5.980669-.864718 5.980669-1.1328125 11.8828125l-.0039063 2.5976563L255.875 347.125l-.0117188 2.6679688.0039063 2.5898437.003418 2.324707c.1022343 2.76571.1022343 2.76571 1.1293945 7.2924805h24v-32h-24Z"/><path d="M171 310c1.9375.3125 1.9375.3125 4 1l1 3h-2v2h2c.809749 2.8431333 1.1224186 5.3570297 1.1135254 8.3095703l-.0002289 2.5471802-.0156402 2.7213745-.0042878 2.8078003c-.0055903 2.9547246-.018141 5.909373-.0308685 8.8640747-.0050163 2.0052072-.009579 4.0104157-.0136719 6.015625C177.0386636 352.1771362 177.0190862 357.088483 177 362h30v2l3-1 3 3v-4h32l-.5625-7.5c-.5737412-8.6120238-.13483-16.899597.5625-25.5h-27v-1h29l1 25 6 2 1 6 27 1v-27l3-1c.733238-2.0150836.733238-2.0150836 1-4h2v3h2v31l3-1c1.980012-.09449 3.9630484-.1307174 5.9453125-.1328125l3.5117188-.0039063L306.125 362.875l3.6914063-.0117188 3.5039062.0039063 3.2270508.003418C319 363 319 363 320 364c2.0072092-.2867442 4.0085944-.618667 6-1v5l3 1v2c-20.6615877.354458-41.3234304.6858065-61.9858284.9895515-9.5936402.1415707-19.1870505.2907375-28.7802849.4577141-8.3602412.1454964-16.7205635.2768148-25.0812928.3910225-4.4280943.0609854-8.8558203.1291266-13.283522.2142403-4.1661543.0798621-8.3321534.1407864-12.4988117.1870994-1.5303605.0203657-3.0606464.0476914-4.5907478.0824433-2.0876632.0463804-4.1741503.0678252-6.2622394.0830192l-3.5419198.0558663C169.3511432 372.8994759 168.1941274 371.883896 166 369c-.481018-2.5310669-.481018-2.5310669-.4541016-5.4111328l.0009156-3.2752075.062561-3.5167847.0171509-3.6149292c.0223948-3.8110564.0725998-7.6211735.1234741-11.4319458.0200608-2.5833198.0383123-5.1666543.0546875-7.75.0441084-6.333654.1110527-12.6667599.1953125-19l3-1c1.208821-2.0001647 1.208821-2.0001647 2-4Z"/><path d="m249.75 140.625 2.59375-.0742188C258.7534911 140.5216462 263.3678466 142.0215897 269 145c1.3326406.6680503 2.665771 1.3351279 4 2v2h2v2h2c6.852925 7.7310156 9.6053153 17.401996 9.21875 27.5976563-.9257538 10.1667608-4.8715349 19.8381184-12.7070313 26.7070312C269.0346356 208.7834327 264.4068868 210.4491875 259 212l-3 1c-10.1285317.9534575-18.0675107-1.409693-27-6v-2l-1.8125-.7851563c-6.0805314-3.3768665-9.3805269-10.6639788-11.4960938-17.0195312-2.5874818-11.957967-1.1208377-23.04778 5.3710938-33.3828125 3.7789083-5.1588918 8.2135427-8.088559 13.9375-10.8125l2.1953125-1.1328125c4.1755703-1.2910538 8.2082267-1.2357578 12.5546875-1.2421875ZM232 159v2h-2c-4.3402909 6.9173386-4.980166 12.9111548-4 21 1.629098 5.9327047 4.343736 9.940693 9 14l1.5 1.6875c3.9350562 3.4431742 8.4039992 3.6086042 13.4375 3.625l3.5898438.0507813C259.3980616 200.7491342 263.6914718 197.928364 268 194v-2h2c4.0972846-7.1372055 6.0547143-13.8879397 4.375-22.125-2.2523762-7.335041-5.8537567-12.1458818-12.5078125-15.9648438-3.9730847-1.936671-7.3050295-2.10425-11.6796875-2.1601562l-3.6445313-.078125C240.6203653 152.2203851 236.3389786 155.0438726 232 159Z"/><path d="m250 260 1 2h2l1-2h2l2 7h3l1 3h-3l-1 5-6-1-.3125 1.6875c-.8188358 2.7542658-2.1460378 4.8997766-3.6875 7.3125l5 1 .1835938 2.5898438.2539062 3.3476562.2460938 3.3398438C253.7041808 295.911099 253.7041808 295.911099 255 297c.0727174 2.3531355.0837087 4.7083367.0625 7.0625l-.0273438 3.9101563L255 311l-3 1-1 5-1-3h-3v5h-1v-44l-9 1v-3l-3-1c1.6236647-3.2473293 4.7538784-3.7015514 8-5l-3-2c1.875-1.0625 1.875-1.0625 4-2l2 1v2c3.3708827-2.2741529 3.3708827-2.2741529 5-6Z"/><path d="m265 145-1 5c-2.3125.625-2.3125.625-5 1l-3-2v2l-3.1054688.0429688c-1.360721.0469214-2.7213966.0951686-4.0820312.1445312l-2.0410156.0175781c-3.9470767.1732863-5.5825623.627079-8.5722656 3.2832031L236 157c-3 1-3 1-6 0l-2 4h-3v4h-2v2l-4-2c.375-2.9375.375-2.9375 1-6l2-1c.3733972-1.3856537.699148-2.7843073 1-4.1875 1.6553383-5.405714 4.8000358-7.1339478 9.625-9.71875 9.3203258-4.2922553 22.9771408-2.8034313 32.375.90625Z"/><path d="M240 141c3.1455081-.1179282 6.2904354-.1878138 9.4375-.25l2.6621094-.1015625C258.6435935 140.5518473 263.256385 141.933165 269 145c1.3323802.6685696 2.6654362 1.3358 4 2v2h2v2h2c4 4.4705882 4 4.4705882 4 7h-2l-.375 2.375C278 163 278 163 276 165c-.4600635 2.20251-.4600635 2.20251-.625 4.625l-.2265625 2.4765625L275 174h-1l-.75-3.625c-.9966375-4.073214-2.8076687-6.9557362-5.25-10.375v-2c-1.3225847-.687744-2.659865-1.3471137-4-2l-3.125-1.5625c-4.1420212-1.7665059-7.867888-1.783591-12.3125-1.625l-2.2167969.0410156c-1.7822273.0349457-3.5640688.0887364-5.3457031.1464844l-1-2h16v-2l2.3125.625c2.9063594.708912 2.9063594.708912 5.6875-1.625v-2c-4.7752623-2.3530278-9.592042-2.650059-14.8125-3.125l-2.6777344-.2617188C244.3404794 142.4022156 242.1703154 142.2002058 240 142v-1Z"/><path d="M158 276v2l2.1875.125c4.0943988 1.273813 5.336988 3.4092832 7.8125 6.875v2h2c-.875 3.875-.875 3.875-2 5l1.625.25c3.3324931 1.0523662 5.6740416 2.540125 8.375 4.75.375 2.75.375 2.75 0 5l-2 1-1 2-3-1-1-3c-1.9872327-.7038116-3.9877795-1.3711811-6-2l-1-2-2.375-1.3125c-2.9454503-1.8935038-4.0440468-3.6088016-5.625-6.6875l2-1c-2.0072908-3.0109362-2.8388422-3.630165-6-5v-4l-3-1c3.3709738-1.4982106 5.2044212-2 9-2Z"/><path d="M295.9375 124.8125C299 125 299 125 301 127c.5972435 3.2101836.5352483 5.1807088-1.2734375 7.9492188C298.2223142 136.7579856 296.770521 138.4496473 295 140h-2v2h-2v2h-2v2c-6.4119449 1.330781-6.4119449 1.330781-9-.125-1.4167538-2.6564134-.829317-4.023165 0-6.875 1.453125-2.0625 1.453125-2.0625 3.25-4l1.8984375-2.0664063C287.3988393 130.5834906 289.6650216 128.2663027 292 126c1-1 1-1 3.9375-1.1875Z"/><path d="m193.875 169.6875 2.4335938-.0488281C200.9902177 169.6348155 204.2569663 169.8661267 208 173c1 3 1 3 .2539063 5.6601563-2.7067071 2.809909-3.5051615 2.7259844-7.2890626 2.8984374-2.0094667-.0146288-4.0188764-.0560576-6.0273437-.1210937l-3.0878906-.0175781C184.2947587 181.2947587 184.2947587 181.2947587 182 179c-.3125-3.5-.3125-3.5 0-7 4.046988-2.697992 7.1270157-2.3313712 11.875-2.3125Z"/><path d="M209 125v2h2c4 4.4705882 4 4.4705882 4 7h2c2.2890114 2.8949262 3.852385 5.0721345 4.4375 8.75L221 145c-3.8503105 2.5668737-5.5856976 1.8328872-10 1v-2h-2c-1.65625-1.6445313-1.65625-1.6445313-3.5-3.8125l-1.84375-2.1445313c-3.577477-4.412784-3.577477-4.412784-3.96875-7.5429687.3125-2.5.3125-2.5 1.4375-4.3125 2.6503596-1.678561 4.8074642-1.3920024 7.875-1.1875Z"/><path d="M278 189c2 2 2 2 2 6l-2 1-.25 2.8125C277 202 277 202 274.125 204.4375L271 206l-3-1v2c-3.634232 2.3259085-6.7708833 2.1626583-11 2v-2l-2-1-2-2v2h-5l-2-4 16-1v-3l7-1v-2c2.0308174-2.4369808 4.1306156-3.704149 7-5l2-1Z"/><path d="m305.375 169.8125 3.9609375-.0429688c3.4020521.2139884 5.6309.7490207 8.6640625 2.2304688.25 2.8125.25 2.8125 0 6-1.7983784 2.1154479-3.3220784 2.8962168-6.0620117 3.3156738-2.5074374.1613137-4.9880317.1918654-7.5004883.1843262l-2.6152344.0859375C299.4354887 181.5933556 297.324567 181.5454615 295 181c-2.0898438-2.53125-2.0898438-2.53125-3-5 3.4227915-6.3566128 6.4129576-6.1533053 13.375-6.1875Z"/><path d="M254 111c1.8487 3.9478213 2.2972655 7.1530924 2.3125 11.5l.0507813 3.34375C255.9656735 129.298234 254.9892295 131.186736 253 134c-3.375-.25-3.375-.25-7-1-2.7457268-3.5099096-2.3316448-7.8085287-2.3125-12.0625l-.0488281-2.1816406c-.0027836-2.997892.0094859-5.205706 1.6503906-7.7714844 2.8921402-1.663971 5.5785299-.6344973 8.7109375.015625Z"/><path d="M169 124c3.25-.375 3.25-.375 6 0l-1 3h-2v2h-2v2h-2v2h-2l-.7539063 1.65625c-1.4975577 2.8167231-3.290114 5.276798-5.1835937 7.84375l-2.0898438 2.84375C156.3214164 147.5672017 154.6617217 149.784371 153 152l1-10c-3.4061495.0212646-3.4061495.0212646-7 1-2.01041 2.934494-2.01041 2.934494-3 6h-2c1.332508-3.5875213 2.830717-6.8364623 5-10h2l.6875-2.0625c1.6247615-3.6363709 3.6405326-6.9657926 6.3125-9.9375h2l1-2-1 8 3 1 2-4h2l1.75-3 2.25-3Z"/><path d="M289 213c2.479238-.026851 4.9581884-.0467655 7.4375-.0625.7070508-.008379 1.4141016-.0167578 2.1425781-.0253906 1.8068575-.0086453 3.613798.0356905 5.4199219.0878906 1 1 1 1 1.0976563 3.7226563L305.0625 220.0625l-.0273438 3.3476563L305 226h-3l-1 3-3-3-3 2v-7l-1.6875.4375c-5.2538632 1.2779667-9.9095853 1.7589696-15.3125 1.5625l-1-5h11l1-5Z"/><path d="m239 199 1.5703125.4921875c3.1380552.6558636 6.0998413.6397046 9.3046875.6328125l3.6171875.0078125c3.261286-.1234785 6.3071958-.51618 9.5078125-1.1328125l-1 3-15 1 1 2c2.5273323.6555512 2.5273323.6555512 5 1v-2l3 1 1 4 11-2v-2h3v2c-8.621002 5.3881262-16.859949 7.068713-27 6-9.5025295-2.5025295-9.5025295-2.5025295-13-6l2-2 1.5625 1.5c3.2443002 1.9964924 5.6996733 1.7156438 9.4375 1.5v-2l-1.875-.4375C240 205 240 205 238 204l1-5Z"/><path d="M203 224h5l-4 1c.9299412 1.9411393 1.8692453 3.8777951 2.8125 5.8125l1.5820313 3.2695313C209.7783768 236.5971958 210.9657774 238.0635179 213 240v2l2.3125.8125c2.5613088 1.1317411 3.8844294 2.099734 5.6875 4.1875-4.5765928-.5491911-8.6612169-1.4504346-13-3h-1c.9977758 2.9933274 1.7522025 3.9476632 4 6l-1 2-5-2v-2h-2c-1.4375-1.828125-1.4375-1.828125-3-4.25l-1.5625-2.390625C195 235.7173913 195 235.7173913 195 232h2v2h2v2h2l1-2h2l-1-3c-.0395423-2.3329983-.0440173-4.6670819 0-7Z"/><path d="M334 283c2 3 2 3 2 5h4l2 6c-1.4134656 1.4406477-2.8309121 2.8773901-4.25 4.3125l-2.390625 2.4257813C333 303 333 303 330.703125 304.6679688L329 306c-.2284549 2.2436257-.2284549 2.2436257 2 4.125l2 1.875-2.8125-.0625c-3.2103601-.095196-3.2103601-.095196-6.1875 1.0625v5l-7-4v-1l5-1-2-3 2-3-2-1 4-1v2h2l2-5h4v-3l-3-1c1.375-1.5 1.375-1.5 3-3h2l1-2 1-1-4-2v2l-5 1 1.2773438-1.4609375L329.9375 288.625l1.6523438-1.8984375C333.0695862 285.0436767 333.0695862 285.0436767 334 283Z"/><path d="M372 198c.1914894 21.5319149.1914894 21.5319149-1 32h-1l-1-5h-2l-1 5-3 1v-8l2-1v-23c2.462788-1.231394 4.2795055-1.071592 7-1Z"/><path d="M279 158h3c4.0304 9.2363335 3.1505403 17.1587714 2 27h-2v3h-2c-.625-2.3125-.625-2.3125-1-5l2-3c-.3121764-2.6463229-.3121764-2.6463229-1-5l-3 4c-1.801164-3.1000112-2.2961501-5.424821-2.3125-9l-.0507813-2.5625c.435244-2.920347 1.5100407-4.1854608 3.3632813-6.4375l1-3Z"/><path d="M291 285c4.0563792.6494203 7.2133959 2.7862095 10.625 4.9375l1.7734375 1.0917969C305.8294415 292.5430987 307.9682708 293.9682708 310 296l-6 1-1-3h-2l-2 8c-5.903721-2.2609996-10.8313266-5.3784126-16-9 3.71875-2.046875 3.71875-2.046875 6.25-1.625L291 292v-7Z"/><path d="M240 141c3.1455081-.1179282 6.2904354-.1878138 9.4375-.25l2.6621094-.1015625C258.6435935 140.5518473 263.256385 141.933165 269 145c1.3323802.6685696 2.6654362 1.3358 4 2l-1 2c-2.0625.625-2.0625.625-4 1-.166811 2.9165217-.166811 2.9165217 0 6l2 2-1 3-1-3c-1.6976923-1.1016898-1.6976923-1.1016898-4-2l-3.1210938-1.5507813c-4.1454066-1.7776835-7.8647085-1.7955624-12.3164062-1.6367187l-2.2167969.0410156c-1.7822273.0349457-3.5640688.0887364-5.3457031.1464844l-1-2h16v-2l2.3125.625c2.9063594.708912 2.9063594.708912 5.6875-1.625v-2c-4.7752623-2.3530278-9.592042-2.650059-14.8125-3.125l-2.6777344-.2617188C244.3404794 142.4022156 242.1703154 142.2002058 240 142v-1Z"/><path d="m232 224 6 3v2h2c1.454429 2.0582105 2.7714354 4.0928366 4.0625 6.25l1.1035156 1.7773438C246.9453613 239.9545481 248.4517088 242.5921593 249 246h-5l1-5h-3l1-5-4 2v10c-4-4.625-4-4.625-4-8h-2c-1.374827-1.6326071-2.7064767-3.3022506-4-5l-2-2 3.875-.25c2.1783342-.2086993 2.1783342-.2086993 4.125-.75 1.5899433-1.920648 1.5899433-1.920648 2-4l-5-1v-3Z"/><path d="M282 214c-1.4151971 2.0343459-2.5498212 2.904104-4.9804688 3.421875-2.0013007.2408645-4.0105256.4134524-6.0195312.578125v4c-2.9060026 1.2566498-4.7960458 2-8 2l-1 7c3.289768 1.0965894 4.7130377.7995314 8 0l-1.2070313 1.5390625C265.7143383 236.539035 263.084044 240.3687915 261 245l-3-1v-4h3l-1-4-6-1c1.3668722-3.9867106 3.151951-6.8849463 6-10h2v-2c2.0117188-1.65625 2.0117188-1.65625 4.6875-3.5l2.6367188-1.84375C273.6191806 214.9977626 276.9290618 213.7102321 282 214Z"/><path d="M372 192c3.182366 4.773549 2.3372694 9.8845899 2.3125 15.5l-.0061035 3.6601563C374.1848915 222.1377956 373.4981126 233.505662 370 244h-2l1-9-3-1v-9h4c1.1846261-6.779247 1.3339403-13.5694695 1.5625-20.4375l.1308594-3.6621094C371.798894 197.933694 371.901007 194.966921 372 192Z"/><path d="M299 125c2 2 2 2 2.5 4.6875-.7047433 4.6689246-3.247197 7.040335-6.5 10.3125l-1-3h-2v-4l-4-1-.25 1.8125c-.9657678 2.8168227-2.2386857 3.6654913-4.75 5.1875h-2c3.4676193-7.5131752 9.1325678-14.9638513 18-14Z"/><path d="M335 130c2.3125-.1875 2.3125-.1875 5 0 1.0210455.978502 2.0206121 1.9798043 3 3l2.5625.5C348 134 348 134 350 137l3 1v4h-3v2h-2l-1 2-1.1875-1.3125c-1.7963378-1.8263166-1.7963378-1.8263166-4.375-3-3.138881-2.1730715-3.4222434-4.0950536-4.4375-7.6875l-2-1v-3Z"/><path d="M129 179c2.6423743 3.8240383 1.8167633 7.2621606 1.1328125 11.5898438-1.2888845 9.3571644-1.3627014 18.5435392-1.2578125 27.9726562.0100718 1.6087183.01919 3.2174428.0273438 4.8261719.0216312 3.8706028.0559178 7.740892.0976562 11.6113281h-1c-3.6190828-19.3879438-3.1599448-36.6542371 1-56Z"/><path d="m285 241 5 2-1 4-2-1 1-2h-2v2l-1.6796875.515625c-4.5105403 1.3671307-4.5105403 1.3671307-7.7578125 4.546875L276 253l-1 2h-3l-1-3-1 4-2-1v2h-8v-4l5 1 .1953125-1.8984375C266 250 266 250 268.1796875 249.0234375L270.875 248.375c3.3307329-.8254003 5.2157194-1.4354796 8.125-3.375h3v-2h3v-2Z"/><path d="M296.8413086 170.5874023c2.2989833-.080167 4.5491183-.0223877 6.8461914.1000977l2.4160156.0683594c1.9662977.0588712 3.9316293.148553 5.8964844.2441406v1l-3.3125.1875c-3.8308272.4257233-3.8308272.4257233-5.625 3.375L302 178l11 2v1c-2.9390235.1348176-5.8718956.2339942-8.8125.3125l-2.5253906.1269531c-2.3235654.046658-4.3878125.0454777-6.6621094-.4394531-2.0742187-2.5195312-2.0742187-2.5195312-3-5 1.8277899-4.737333 1.8277899-4.737333 4.8413086-5.4125977Z"/><path d="m360 161 5 4-1 4-3-1c1.3553326 2.5367329 1.3553326 2.5367329 3 5h2c2.125 4.625 2.125 4.625 1 8h-7c-1.283179-3.8495368-1.0664364-6.9473814-1-11h-2c-.3692308-5.5384615-.3692308-5.5384615 1.5-7.875L360 161Z"/><path d="M243 266c-2.4895292 2.6673527-4.6340813 4.5574634-8 6l2 1v3l2-1h7v44h-1c-1.0690404-9.0693672-1.1183088-18.0738133-1.0625-27.1875.0050291-1.4433578.0095895-2.8867173.0136719-4.3300781.0108843-3.494177.0280696-6.988288.0488281-10.4824219l-7 3-1-3-3-1c-2-3-2-3-2-6 4.0453972-3.3711643 6.7481182-4.5001792 12-4Z"/><path d="M240 236h3l-1 5h3l-1 5 3-1 2 5-2.375-.1875L244 250l-2 3c-2.8203125.2929688-2.8203125.2929688-6.125.1875l-3.3203125-.0820313L230 253l-1 3h-2v3l-6-1v-1h5l1-5h14l-2-4c-.484375-2.5078125-.484375-2.5078125-.75-5.125l-.296875-2.6328125C238 238 238 238 240 236Z"/><path d="M210 326h1v36l-4 2 1-36h2v-2Z"/><path d="m257 263 10 5v2l2 1h-4l-.4375 2.375C264 276 264 276 263 278l-7-1v17c-3.140408-6.280816-2.119233-12.2846024-1-19h3l.375-2.4375L259 270l2-1v-2h-3l-1-4Z"/><path d="m290 326 2 1v35h26v1l-28 1v-38Z"/><path d="M232 195c3.8886299 1.2611773 5.893756 2.4526417 8 6v2l1 2 3 1v2c-6.4346734 1.3611809-6.4346734 1.3611809-9.25-.4375L233 206h-3c-.2404228-4.087187.5774119-7.1767944 2-11Z"/><path d="M218 328h29v34h-2c-.8986245-11.1705937-.906293-21.822386 0-33h-27v-1Z"/><path d="M278 87c-1.8125 1.0625-1.8125 1.0625-4 2l-3-1c-2.200686-.139749-4.4049625-.225442-6.609375-.28125l-3.9765625-.1132813c-1.3880087-.0356318-2.7760298-.070784-4.1640625-.1054687-2.7033062-.0682524-5.4062746-.1420475-8.109375-.21875l-3.6396484-.0917969C240.9520786 86.9974068 237.5089994 86.5543478 234 86v-1c15.023579-2.0931728 29.1699367-.9449771 44 2Z"/><path d="m271 219 3 1h-2l-1 2v-3Zm3 5v3c-1.8125 1.5625-1.8125 1.5625-4 3l-3 2c-2.0625.75-2.0625.75-4 1l-2-2c.3269756-2.6158048.8203907-4.6407814 2-7 4.3717004-2.2449272 6.7020404-2.1489798 11 0Z"/><path d="M214 284v4h-2l1 5-5 1v2h-5l1 3-4-2c1.1517335-2.4680005 2.0478356-4.0478357 4-6v-2h2l1-4c4.75-1 4.75-1 7-1Z"/><path d="M188.3789063 171.9023438c1.3945645.0066725 2.7891111.0186309 4.1835937.0351562l2.1542969.0136719C196.4779 171.9629914 198.2389604 171.9809274 200 172v1c-6.625 1.125-6.625 1.125-10 0v5l2.7734375.1484375L196.375 178.375l3.5859375.2109375C203 179 203 179 205 181h-20c-1.3662367-2.7324735-1.128426-4.981989-1-8 1-1 1-1 4.3789063-1.0976563Z"/><path d="M295 93c4.4723865 1.4180738 8.711463 3.1130437 13 5-3.0526366.9812046-4.9473634.9812046-8 0l1 3c-.6503581 1.3413637-1.3162955 2.6753225-2 4l1 2c-4.6852091-1.2181544-8.7054361-2.6955999-13-5v-2h9l-1-7Z"/><path d="m230 191 2 1v2l3 1-2 1c-.6878958 1.7840647-.6878958 1.7840647-1.125 3.875l-.5078125 2.1171875c-.4571354 2.15947-.4571354 2.15947-.3671875 5.0078125h-2v-2l-1.8007813-.7539063c-2.5180587-1.4267508-3.6965396-2.8503645-5.3867187-5.1835937l-1.5429688-2.0898438C219 195 219 195 218 192l3 1c.6875 2.0625.6875 2.0625 1 4l7-1 1-5Z"/><path d="m193.875 169.6875 2.4335938-.0488281C200.9902177 169.6348155 204.2569663 169.8661267 208 173c1 3 1 3 0 6h-2l-.3125-1.9375L205 175l-3-1v-2l-17 1v8l-3-2c-.375-3.5-.375-3.5 0-7 4.046988-2.697992 7.1270157-2.3313712 11.875-2.3125Z"/><path d="M158 276v2h3v4l2 1-2 4-9-4v-4l-3-1c3.3709738-1.4982106 5.2044212-2 9-2Z"/><path d="M334 283c2 3 2 3 2 5h4l2 6-7 6c-.8096744-2.9148278-1.21846-4.4611322-.0625-7.3125L336 291l-4-2v2l-5 1 1.2773438-1.4609375L329.9375 288.625l1.6523438-1.8984375C333.0695862 285.0436767 333.0695862 285.0436767 334 283Z"/><path d="m251 117 3 1v8h2v3h-3l-1 3h-3c-2.521973-7.6681614-2.521973-7.6681614-1.2421875-10.9335938C248.875 119.4375 248.875 119.4375 251 117Z"/><path d="M226 219c-3.2124878 1.0708293-3.8853065.9521376-6.9960938.1015625-5.3498652-1.2900384-10.5818664-1.5433628-16.0664062-1.7265625l-2.9121094-.1171875C197.6838713 217.1646177 195.3419634 217.0812736 193 217v9c-2-4-2-4-1.125-7.75L193 215c11.616967-2.050053 22.077437-.2312632 33 4Z"/><path d="M314 105h2v2l2.75-.1875c3.5398264.2042208 4.6993116.8330184 7.25 3.1875l-1 2-5-2-1 6c-2.375-.3125-2.375-.3125-5-1-2-3-2-3-2-7h2v-3Z"/><path d="m363 179 4 2-.974121 2.0183105c-1.2357425 3.591652-1.3776278 6.9339527-1.4399415 10.6887207l-.0586853 2.198166c-.0594733 2.302317-.1060507 4.604685-.1522522 6.9073028-.0382096 1.5670783-.077263 3.1341363-.1171875 4.7011719C364.1621044 211.3422815 364.0779555 215.1709894 364 219h-1l-.0600586-1.980957C362.554266 204.9011623 362.1676862 192.9538426 360 181h3v-2Z"/><path d="M203 224h5l-4 1 4 10-6 5-2-1-1 4c-.674083-1.266915-1.339005-2.5387075-2-3.8125l-1.125-2.1445313C195 235 195 235 195 232h2v2h2v2h2l1-2h2l-1-3c-.0395423-2.3329983-.0440173-4.6670819 0-7Z"/><path d="M245 256h4l-2 8-4 1v-2l-15-2v-2l3.2109375-.1484375c1.3880475-.0750296 2.776067-.1505773 4.1640625-.2265625l2.1171875-.09375c4.2096708-.126245 4.2096708-.126245 7.5078125-2.53125Z"/><path d="m271 148 3 1c1.1202981 5.4894609.7921797 8.8343056-1 14l-3-1c-1.125-2.25-1.125-2.25-2-5l-.875-2.5625C267 152 267 152 268.9375 149.6875L271 148Z"/><path d="m287 283 1 2h3v2l2 1h-2l1 6-2.1875-.9375c-2.615573-.9881054-5.0636898-1.5912754-7.8125-2.0625v-2h-2c1.5223544-3.0447087 4.1842449-4.2027095 7-6Z"/><path d="M150.5625 141.9375 154 142l-1 10-4-3-2 3-2-2-3 1v-2h2l.9375-2.9375c1.4054395-4.0509726 1.4054395-4.0509726 5.625-4.125Z"/><path d="m332 289 5 1 1 3-1.75.3125c-2.5704916.785428-4.1865728 1.992542-6.25 3.6875l2 1v3l-6 2 1-8-2-1h2v-2l5-1v-2Z"/><path d="M225 187c3.0808967 2.772807 4.6877545 5.0632636 6 9l-7 3v-2h-2c-.75-2.75-.75-2.75-1-6 1.9375-2.375 1.9375-2.375 4-4Z"/><path d="M351 149v6l3-1 .9375 3.4375c.6917453 3.350251.6917453 3.350251 2.0625 4.5625.1411516 2.6705885.042471 5.3243224 0 8h2v6c-1.5298727-3.0038597-2.9355971-6.0482725-4.3125-9.125-2.4255102-5.3635537-5.0143716-10.6311183-7.6875-15.875 3-2 3-2 4-2Z"/><path d="M229 273c2.0625.4375 2.0625.4375 4 1v2l4 1v3l-2.9375.375L231 281l-1 2h-3l-1 2c.307697-1.8133215.6212906-3.6256434.9375-5.4375l.5273438-3.0585938C228 274 228 274 229 273Z"/><path d="M298 170c2.3961413-.0542523 4.7910385-.0937903 7.1875-.125l2.0410156-.0507813C311.2880781 169.7846134 314.3499882 170.1998 318 172c.3125 2.8125.3125 2.8125 0 6-2.5 1.875-2.5 1.875-5 3l-3-2 4-1 1-4-3 1v-2h-8v-1l-6-1v-1Z"/><path d="m308 99 4 1v2l1.6875.25c3.009642.9761001 4.9340475 2.7018881 7.3125 4.75h-5v-2h-2v3h-2l3 8h-2v-2l-5-2c0-3 0-3 2-5.0625L312 105v-2h-2v-2h-2v-2Z"/><path d="M335 130c2.3125-.1875 2.3125-.1875 5 0 1.0210455.978502 2.0206121 1.9798043 3 3 2.6061108.7219716 2.6061108.7219716 5 1l-3 6c-3.2057599-.3434743-3.9751676-.9707854-6.125-3.5L337 134l-2-1v-3Z"/><path d="M208 235c1.70884 1.623398 3.3744672 3.2931905 5 5v2l2.3125.8125c2.5613088 1.1317411 3.8844294 2.099734 5.6875 4.1875-12.2983871-1.4758064-12.2983871-1.4758064-16-6l2-1c.6555512-2.5273323.6555512-2.5273323 1-5Z"/><path d="M268 205h3v2c-8.967734 5.6048338-16.5661147 6.3130166-27 6v-2h12l1-3 3.25.0625c2.8979042-.0482984 5.0361214-.1940589 7.75-1.0625v-2Z"/><path d="m221 248 2.8125.4375c5.0415532.7261496 10.113792 1.1312807 15.1875 1.5625l1-2 2 2-1 2c-3.5946622.3181117-7.1700408.3802044-10.7773438.4609375L227 253c-1.5235474 1.9162977-1.5235474 1.9162977-2 4l-.875-2.9375c-.7671468-3.169142-.7671468-3.169142-3.125-4.0625v-2Z"/><path d="M293 140v2h-2v2h-2v2c-6.4348786 1.3355408-6.4348786 1.3355408-9-.1875-1-1.8125-1-1.8125-.6875-4L280 140l1 5h5l-1-6c3.4025449-1.2151946 4.9325113-.8624039 8 1Z"/><path d="m297.9375 210.6875 3.7773438-.0507813C305 211 305 211 306.9921875 212.1328126c1.5463616 2.8649645.8353557 4.9218443.1953125 8.0546875l-.6445313 3.2929688L306 226h-1l-1-12-15-1c2.8633637-2.8633637 4.9522835-2.3001619 8.9375-2.3125Z"/><path d="m176 112 2 2h-2c1.3089572 3.1219748 1.3089572 3.1219748 4 5l-3 2c-1.1923261 2.0500395-1.1923261 2.0500395-2 4l-3-1 1-7-2-1 1-3c1.9375-.8125 1.9375-.8125 4-1Z"/><path d="M255 337h2v25l-3-1 1-24Z"/><path d="M282 214c-1.4151971 2.0343459-2.5498212 2.904104-4.9804688 3.421875-2.0013007.2408645-4.0105256.4134524-6.0195312.578125v4c-2.9060026 1.2566498-4.7960458 2-8 2v2l-3 1v-2h2v-2c2.0117188-1.65625 2.0117188-1.65625 4.6875-3.5l2.6367188-1.84375C273.6191806 214.9977626 276.9290618 213.7102321 282 214Z"/><path d="M247 203h11v4l9-1c-3 3-3 3-6.6875 3.1875L257 209v-2l-2-1-2-2v2h-5l-1-3Zm13 2h2l-1 2-1-2Z"/><path d="M285 171h1c.4094642 10.8962966-1.230372 18.6849134-7 28l-2-4h3l2-10h2l-.0351563-2.046875L283.9375 180.25l-.0351563-2.671875c.0893943-2.3600088.428528-4.3231102 1.0976563-6.578125Z"/><path d="M302 226h3c-.4502094 5.8527226-3.0383923 10.0822012-6 15h-1v-9h2l.4375-1.875C301 228 301 228 302 226Z"/><path d="m278 276 1 5-5 2v-2l-3-1c-.6875-2.0625-.6875-2.0625-1-4 2.8617706-1.4308853 4.9337577-.599917 8 0Z"/><path d="m353 140 3 3-1.6875.6875c-2.9449668 1.6714677-4.9940654 3.8652635-7.3125 6.3125-2.7987244-2.52788-4.4577302-4.2041113-5-8l3 1v2l5-1-1-3 4 1v-2Z"/><path d="m255 234 7 2-1 4h-3v4l-3-1c-1.125-5.625-1.125-5.625 0-9Z"/><path d="M344 271h3c-1.9969372 5.3763694-3.9688247 9.9163764-9 13h-2c.5968743-3.3424963 1.7360388-5.4643634 4-8h2l2-5Z"/><path d="M205 242c1.417914.4544596 2.8342805.9137494 4.25 1.375l2.390625.7734375C213.8662796 244.9517367 215.9093167 245.8971166 218 247c-2.3125 2.0625-2.3125 2.0625-5 4-3-1-3-1-5-3l-2-1c-.625-2.5625-.625-2.5625-1-5Z"/><path d="m191 297 3 1v2l3 1c-2.1899143 2.5184015-3.6907383 3.5133439-7 4-1.6662364.037869-3.333976.0462784-5 0l2-3h2l2-5Z"/><path d="M189 174v3Zm-2 3 3 1c3.3535709.26914 6.706746.445058 10.0664063.6210938C203 179 203 179 205 181h-20l2-4Z"/><path d="m339 121 1 2h2c1.7908385 2.3016679 3.4725924 4.602389 5.125 7l1.4179688 2.0234375C349.7012623 133.6781427 350.8513977 135.3385531 352 137h-3l-1-3c-2.0150836-.733238-2.0150836-.733238-4-1v-3c-1.3540586-1.6041125-1.3540586-1.6041125-3-3l-2-2v-4Z"/><path d="m216 134 1.9375 2.4375c1.468535 1.8375504 1.468535 1.8375504 3.0625 3.5625.25 2.4375.25 2.4375 0 5-3.2279156 2.1519437-4.284008 2.2008644-8 2l4-2-.5-3.25C216 138 216 138 216 134Z"/><path d="M240 141c3.2082556-.0584955 6.4163723-.0937616 9.625-.125l2.7382813-.0507813C257.3275014 140.7879837 261.344119 141.0355585 266 143c-3.8348733 2.5565822-5.163022 1.940884-9.625 1.1875l-3.765625-.6054688L249 143c-2.9975194-.3726862-5.9952914-.689168-9-1v-1Z"/><path d="M153 136c2.7222677 2.7222677 3.7889614 5.3668842 5 9-1.0725488 2.5169863-2.5480345 4.6680554-4 7-1.2380014-3.5764485-.7492607-6.3369477 0-10h-2c-.625-1.875-.625-1.875-1-4l2-2Z"/><path d="m223 152 1 2c-.9375 2.625-.9375 2.625-2 5h-2l.125 2.8125C220 165 220 165 218 168h-2c.2839802-6.673534 3.0780553-10.7107719 7-16Z"/><path d="m161 296 4 1v2l2.875.25c3.125.75 3.125.75 4.4375 2.5625.645187 2.0528678 1.2365754 4.083185 1.6875 6.1875h-2l-1.6875-2.125c-2.4039002-2.9886327-4.9631984-5.2289306-7.921875-7.640625L161 297v-1Z"/><path d="m205 286 2 1-1 2h-2v2l2 1c-4.5425096 1.6151145-7.3133416 2.5622195-12 1 1.7852465-1.1971302 3.5784028-2.3824728 5.375-3.5625l3.0234375-2.0039063L205 286Z"/><path d="m226 220 4 2h-2v2h-2l1 3c-.9375 2.1875-.9375 2.1875-2 4l-5-2 2-1c1.0001619-2.0003237 1.49396-3.8312575 2-6h2v-2Z"/><path d="m287 91 4 1 1 6c-1.6875.6875-1.6875.6875-4 1-2.75-1.4375-2.75-1.4375-5-3 1-2 1-2 4-3v-2Z"/><path d="M255 295h1l1 23h-3l-2-6 2-1c.3124145-2.7144698.513366-5.3390936.625-8.0625l.1171875-2.2988281c.0945481-1.8791439.17728-3.7588753.2578125-5.6386719Z"/><path d="M214 284v4h-2v2c-3.75 1.125-3.75 1.125-6 0l1-5c4.75-1 4.75-1 7-1Z"/><path d="m149 137 3 1-1 5h-4l-3 6h-2c1.332508-3.5875213 2.830717-6.8364623 5-10h2v-2Z"/><path d="m209 125 1 3h-5l1 2-2 2-3-1-1 2c-.222232-2.7408606-.3478114-4.4396372 1.125-6.8125 2.6503596-1.678561 4.8074642-1.3920024 7.875-1.1875Z"/><path d="M160 126c1.6754298.286049 3.3438534.6178123 5 1-1.2038145 2.4936157-2.4542872 4.6814308-4 7h-4c1.875-6.875 1.875-6.875 3-8Z"/><path d="m218 192 3 1c.6875 2.0625.6875 2.0625 1 4l5 1v2h2l-1 3c-2.8592631-.3480842-3.818556-.7835988-5.703125-3.03125L220.75 197.5l-1.578125-2.46875C218 193 218 193 218 192Z"/><path d="m294 172 4 1 1 6-5 1c-1.125-1.75-1.125-1.75-2-4 .875-2.25.875-2.25 2-4Z"/><path d="M311.125 300.9375 314 302l-1 3c-3.4782311 1.1594104-5.4589558.7082088-9 0 2.465909-5.4602273 2.465909-5.4602273 7.125-4.0625Z"/><path d="M277 218h8v2l2 1h-3v2h-6l-1-5Z"/><path d="m351 143 5 1v4h2l-1 2-2-1v-2l-2.875 2C349 151 349 151 347 151l4-8Z"/><path d="M240 144c-3.7670695 3.7670695-5.5466251 5.2886902-11 6l-1-3c4.1045761-2.9851463 6.9774537-3.2954439 12-3Z"/><path d="m257 263 10 5v2l2 1h-7l-1-4h-3l-1-4Z"/><path d="m129 235 5 1-1 12c-2.8757998-4.3136997-4-7.8073476-4-13Z"/><path d="m294 224 2 3 2-2h2v6h-3l-2 1-1-2-2-1 2-5Z"/><path d="m259 84 19 3-4 2-3-1c-2.0589362-.2232581-4.1223365-.4070576-6.1875-.5625l-3.2929688-.2539063L259 87v-3Z"/><path d="m301 293 3 1v5l-3 1 2 2h-4c.875-7.875.875-7.875 2-9Z"/><path d="M243 235c3.0959284 3.5087188 4.7419462 6.491974 6 11h-5l1-5h-3l1-6Z"/><path d="m274 149 1 2h2c4 4.4705882 4 4.4705882 4 7-2.375.1875-2.375.1875-5 0-2.2901365-3.4352048-2.1784297-4.985331-2-9Z"/><path d="M207 235h1v5c-1.875 1.0625-1.875 1.0625-4 2l-2-1v2h-2v-4h3c1.373107-1.292336 2.7103482-2.6243715 4-4Z"/><path d="M195.375 303.875 197 305c-5.625 4-5.625 4-9 4l-1-4c5.4153846-2.2153846 5.4153846-2.2153846 8.375-1.125Z"/><path d="M224 95h13v1c-6.1477887 1.6277833-11.640122 2.2019009-18 2v-1h5v-2Z"/><path d="M298 289c4.3076481 1.5664175 8.0617146 3.6833616 12 6l-2 2h-4l-1-3-2-1c-2-1-2-1-3-4Z"/><path d="M170 289h2v2h2v2l1.9375.875C178 295 178 295 179 297c-3.7852752-.5115237-5.4410869-1.2084584-8-4l-3-1c1-2 1-2 2-3Z"/><path d="M282 240c2 1 2 1 3 3h-3v2c-6.9642857 2.2767857-6.9642857 2.2767857-11 1l2.1523438-1.0585938L275.9375 243.5625l2.7773438-1.3710938C280.905289 241.1947461 280.905289 241.1947461 282 240Z"/><path d="m232 224 6 3v2h2l1 3-6 2 2-6-5-1v-3Z"/><path d="m263 199-1 3h-19v-1l2.9921875-.1835938L249.875 200.5625l3.8671875-.2460938C257.3536677 199.965651 259.26782 199 263 199Z"/><path d="M201 131c1.875.1875 1.875.1875 4 1 1.25 2.5625 1.25 2.5625 2 5l-2 2c-2-1.75-2-1.75-4-4v-4Z"/><path d="M169 124h6l-1 3h-2v2h-2v2h-2l1-7Z"/><path d="M139 152h3l1 5-7 3c1.875-5.75 1.875-5.75 3-8Z"/><path d="m289 128 2 1c-4.1220826 7.8025135-4.1220826 7.8025135-8 10h-2c1.363703-2.9922027 2.9490808-5.2902653 5.125-7.75l1.6328125-1.859375L289 128Z"/><path d="m211 130-1 5h-4l-1-5c2.4909281-1.245464 3.4108073-.7767578 6 0Z"/><path d="m253 235 2 3-1 3 2 1-5 3c-1.3919591-4.1758775.1767678-6.1347478 2-10Z"/><path d="m214 138 4 3-1 4-4 1c-.9306513-2.6058237-1.149174-3.6419822-.0625-6.25L214 138Z"/><path d="M236 275h10c-3.2104799 2.40786-5.3500883 3.6819764-9 5l-1-5Z"/><path d="M294 229c2 3 2 3 1.8125 5.125L295 236l-3 1v-2l-2-1h2v-4l2-1Z"/><path d="m232 205 2.125 1.375c2.904846 1.6418694 5.6889348 2.661771 8.875 3.625v1c-4.87664.3483314-7.7705-.5831429-12-3l1-3Zm9 3 2 1Z"/><path d="M129 179c1.6825262 2.5732754 2.0150238 3.8234703 1.75 6.9375-.6948243 2.837199-1.5725335 5.393576-2.75 8.0625h-1c.9635535-10.5580866.9635535-10.5580866 2-15Z"/><path d="M231 280h6c-3.199905 2.7427758-6.0049938 4.6302836-10 6v-3h3l1-3Z"/><path d="m216 279 2 1c-.5625 1.9375-.5625 1.9375-2 4-3.625.75-3.625.75-7 1v-2c5.2734375-3.2226563 5.2734375-3.2226563 7-4Z"/><path d="M295 240h2c-.1762584 2.3794877-.6971977 3.7022585-2.4023438 5.3789063C293.0935091 246.6211549 291.5487015 247.8137606 290 249v-5l5-1v-3Z"/><path d="M282 214c-2.4453385 2.9652776-4.4460235 3.5558221-8.1875 4.1875l-2.7304688.4804688L269 219c3.8469584-4.0582076 7.392266-5.320442 13-5Z"/><path d="M368 170c2.5661663 3.8492495 2.5509768 6.4349304 3 11l-4-2c-.125-6.75-.125-6.75 1-9Z"/><path d="M362 155c1.5625 1.75 1.5625 1.75 3 4-.1875 2.1875-.1875 2.1875-1 4l-2 1c-2-3-2-3-1.6875-5.0625C361 157 361 157 362 155Z"/><path d="m215 319 2 1c-1.6159483 2.0411979-3.2856382 4.0407294-5 6h-2l-1 2c.306184-3.6742087.7577178-4.7813551 3.5625-7.3125L215 319Z"/><path d="M326 292c1 3 1 3 1 6l-2.25-.125c-2.8375895.1289813-4.3377394.6955122-6.75 2.125 1.2806248-1.7074998 2.6176756-3.373736 4-5h2v-2l2-1Z"/><path d="M281 284c1 3.875 1 3.875 1 5l1 3c-3.3750367-1.1858237-5.6472273-2.2757369-8-5l6-1v-2Z"/><path d="M151 284h6c.625 1.8125.625 1.8125 1 4l-2 3c-3-3.75-3-3.75-3-6l-2-1Z"/><path d="M138 225h1l2 13c-3.5409162-3.5409162-3.652057-5.1287988-4-10l1-3Z"/><path d="m218 223 2 1-1 2 2 1c-3.2718555 1.0731086-5.429476.892631-8.75.0625l-2.421875-.5898438L208 226v-1l1.9335938-.1835938L212.4375 224.5625l2.4960938-.2460938C216.9866201 224.210692 216.9866201 224.210692 218 223Z"/><path d="M331 130h4v3l4 2-1 4-2-4h-2c-1.625-2.5-1.625-2.5-3-5Z"/><path d="m352 272 4 2-3 6-.3125-1.9375L352 276l-3-1 3-1v-2Z"/><path d="M148 257c2.5383345 1.2691673 2.894009 2.416248 4.125 4.9375l1.0703125 2.1523438C154 266 154 266 154 268l-4 1 1-6h-2l-1-6Z"/><path d="m257 257 11 1c-3.3137967 1.6568984-5.4239187 2.541528-9 3l-3-1 1-3Z"/><path d="M217 252c3 3.75 3 3.75 3 6-3.7754539-1.0906867-6.4704347-1.9083091-9-5l6-1Z"/><path d="m199 292 2 1c-1.2806249 1.7074998-2.6176756 3.373736-4 5h-2v-2l-2-1c1.9646641-1.0677522 3.9685536-2.0655347 6-3Z"/><path d="m193 226 5 1-1 5h-3l-1-6Z"/><path d="m348 270 3 1 1 3c-1.875 1.0625-1.875 1.0625-4 2l-2-1 2-5Z"/><path d="M203 247h6l2 4c-4 0-4 0-6-1v-2l-2-1Z"/><path d="m287 236 3 2-3 4-4-1 4-5Z"/><path d="M214 216c4.3177458.50797 8.0330211 1.1968278 12 3-3.296961 1.098987-4.404949.8712444-7.6875.0625l-2.4492188-.5898438L214 218v-2Z"/><path d="M205 127c2.8125-.3125 2.8125-.3125 6 0 1.875 2.5 1.875 2.5 3 5h-3v-2l-7-1 1-2Z"/><path d="m179 298 2.25.5625c2.6999096.429531 4.1963108.2887297 6.75-.5625l-1 3c-3.2869623.7995314-4.710232 1.0965894-8 0v-3Z"/><path d="M207 293h8v2l-7 3-1-5Z"/><path d="M233 239h4c2.0923077 4.4307692 2.0923077 4.4307692 1.625 7.3125L238 248c-3-4.625-3-4.625-3-8l-2-1Z"/><path d="m135 172 1 4-5 4-1-5 2 2 3-5Z"/><path d="M346 131c3 1 3 1 4.6875 4.0625L352 138l-4-2v-2l-4-1 2-2Z"/><path d="M308 103h4l1 3-4 2-2-4 1-1Z"/><path d="m328 301 5 1-5 6c-.9342365-3.0103174-1.0444991-3.8665027 0-7Z"/><path d="M288.6875 292.25C290 294 290 294 291 297c-3.3750367-1.1858237-5.6472273-2.2757369-8-5 3.5381984-1.3420753 3.5381984-1.3420753 5.6875.25Z"/><path d="m140 239 2 1c.5935561 2.6486043.7420927 5.2919732 1 8l-3-2c-.1875-3.625-.1875-3.625 0-7Z"/><path d="m275 198 3 1c-2.625 4.875-2.625 4.875-6 6v-2h2l-1-3 2-2Z"/><path d="M270 162c3.875 1.875 3.875 1.875 5 3 .0717996 1.5192804.08392 3.0416748.0625 4.5625l-.0273438 2.5039063L275 174h-1l-.875-3.75c-.738348-2.9744874-1.5697493-5.583856-3.125-8.25Z"/><path d="M253 129h2l-2 5-7-1v-1l2.9375-.375L252 131l1-2Z"/><path d="M293 125c2.875-.125 2.875-.125 6 0 2 2 2 2 2.125 5.125L301 133c-3-3.625-3-3.625-3-7h-5v-1Z"/><path d="m165 118 1 2-1 3h-2v2l-4-1 6-6Z"/><path d="m345 284 4 1-5 6c-.625-1.875-.625-1.875-1-4l2-2v-1Z"/><path d="m154 268 4 4-1 3-4-2 1-5Z"/><path d="M234 232v3h-2l-1 2-4-4c2.4906489-.6870756 4.378863-1 7-1Z"/><path d="M203 224h5l-4 1 2 7-3-1v-7Z"/><path d="m270 190 1 3h-2v4l-6 1c1.6159483-2.0411979 3.2856382-4.0407294 5-6h2v-2Z"/><path d="M223 152c1 2 1 2 .3125 4.5625L222 159l-4 1 5-8Z"/><path d="m348 140 2 4h-2l-1 2-3-3 4-3Z"/><path d="m297 129 3 1-1 5h-4l1-2h2l-1-4Z"/><path d="M253 328c2.8993236 2.3950934 3.5016828 4.3124524 4 8l-2 1c-1.4982106-3.3709738-2-5.2044212-2-9Z"/><path d="m310 296 6 3-4 3-2-1v-5Z"/><path d="m357 250 2 1-1 7h-3v-4h2v-4Z"/><path d="M141 175c1.4560652 4.5209297.2703284 7.516488-1 12h-1c-.0542295-1.4370809-.0928972-2.8747546-.125-4.3125l-.0703125-2.4257813C139 178 139 178 141 175Z"/><path d="m154 144 4 1-4 7c-.9812046-3.0526366-.9812046-4.9473634 0-8Z"/><path d="M160 138h2c-1.1517335 2.4680005-2.0478356 4.0478356-4 6l-2-1 1-4 3 1v-2Z"/><path d="m207 136 5 1v2c-3.75 1.125-3.75 1.125-6 0l1-3Z"/><path d="m170 113 2 1-1 2 3 1-8 1 4-5Z"/><path d="m189 109 6 1c-2.3857338 1.8921337-4.0717535 3.0239178-7 4l1-5Z"/></svg>